{"glyphs":{"0":{"ha":805,"x_min":69,"x_max":736,"o":"m 69 453 q 151 118 69 249 q 403 -14 233 -14 q 654 118 572 -14 q 736 453 736 249 q 654 788 736 657 q 403 920 572 920 q 151 788 233 920 q 69 453 69 657 m 599 453 q 403 69 599 69 q 207 453 207 69 q 403 836 207 836 q 599 453 599 836 z "},"1":{"ha":540,"x_min":33,"x_max":468,"o":"m 458 -7 q 394 -3 444 -5 q 273 0 343 0 q 172 -3 232 -1 q 86 -7 111 -5 l 79 62 l 216 85 q 229 191 229 167 l 229 728 l 71 646 l 33 704 l 224 854 q 257 892 233 863 q 289 933 281 922 l 354 917 q 349 755 353 876 q 345 591 345 635 l 345 232 q 348 151 345 193 q 354 85 351 109 l 468 75 l 458 -7 z "},"2":{"ha":715,"x_min":50,"x_max":660,"o":"m 338 920 q 541 861 467 920 q 615 696 615 802 q 578 536 615 611 q 451 365 541 461 q 179 102 361 268 l 440 102 q 557 113 454 102 q 576 161 557 113 l 583 227 l 660 221 l 647 24 l 621 -4 q 546 -2 598 -4 q 453 0 493 0 l 69 0 l 50 102 q 340 402 253 306 q 455 555 427 498 q 484 675 484 611 q 439 795 484 749 q 323 842 395 842 q 252 832 285 842 q 184 803 220 823 q 175 763 179 785 q 171 732 171 742 l 174 669 l 97 665 l 79 869 q 207 908 150 897 q 338 920 264 920 z "},"3":{"ha":652,"x_min":18,"x_max":576,"o":"m 261 920 q 467 861 396 920 q 538 693 538 803 q 495 557 538 616 q 372 465 452 498 q 524 378 471 437 q 576 233 576 318 q 509 60 576 140 q 321 -75 441 -21 q 43 -146 200 -129 l 18 -72 q 241 -6 144 -51 q 391 101 338 39 q 444 231 444 163 q 392 354 444 307 q 254 401 340 401 q 191 400 217 401 q 158 397 165 399 l 139 464 q 341 533 275 481 q 407 673 407 585 q 368 800 407 755 q 257 844 329 844 q 198 838 222 844 q 147 814 174 831 q 134 745 134 758 l 136 682 l 60 677 l 41 879 q 155 910 104 901 q 261 920 207 920 z "},"4":{"ha":734,"x_min":7,"x_max":664,"o":"m 603 956 q 499 844 575 926 q 410 742 422 761 l 150 353 l 428 357 l 428 554 l 536 591 l 536 364 l 664 372 l 664 279 l 536 279 l 536 232 q 540 151 536 193 q 546 85 543 109 l 661 75 l 652 -7 q 590 -3 640 -5 q 471 0 541 0 q 368 -3 429 -1 q 279 -7 306 -5 l 272 62 l 415 85 q 428 191 427 172 l 428 279 l 68 279 l 7 353 l 507 1026 l 603 956 z "},"5":{"ha":642,"x_min":58,"x_max":593,"o":"m 564 827 q 413 807 525 821 q 275 794 301 794 l 186 794 q 178 668 183 765 q 170 493 172 571 q 283 505 227 505 q 510 438 428 505 q 593 244 593 371 q 452 -22 593 79 q 83 -146 311 -122 l 58 -72 q 351 30 240 -45 q 461 231 461 104 q 409 366 461 319 q 258 412 357 412 q 125 395 201 412 l 74 424 l 97 880 l 123 905 l 218 905 l 555 920 l 564 827 z "},"6":{"ha":725,"x_min":62,"x_max":690,"o":"m 401 559 q 337 551 372 559 q 290 538 301 542 l 298 471 q 339 475 308 472 q 389 478 371 478 q 514 422 471 478 q 558 278 558 366 q 511 127 558 191 q 383 64 464 64 q 242 147 290 64 q 193 342 193 231 q 239 594 193 471 q 391 817 285 717 q 669 966 497 917 l 653 1038 q 329 894 463 1002 q 129 640 196 786 q 62 342 62 494 q 146 82 62 180 q 383 -16 231 -16 q 537 23 467 -16 q 649 128 608 61 q 690 278 690 195 q 613 486 690 412 q 401 559 536 559 z "},"7":{"ha":703,"x_min":83,"x_max":685,"o":"m 122 918 q 208 911 144 917 q 292 905 271 905 l 663 905 l 685 851 l 288 -146 l 179 -111 l 476 586 q 538 804 487 610 l 304 804 q 186 796 274 804 q 167 749 169 762 l 160 679 l 83 685 l 96 890 l 122 918 z "},"8":{"ha":722,"x_min":56,"x_max":667,"o":"m 467 484 q 613 375 559 435 q 667 225 667 315 q 579 49 667 111 q 361 -14 492 -14 q 143 48 230 -14 q 56 228 56 110 q 113 371 56 307 q 252 482 170 435 q 130 583 174 527 q 86 724 86 639 q 124 842 86 791 q 224 920 161 893 q 361 947 288 947 q 496 920 433 947 q 598 842 559 893 q 636 721 636 790 q 586 587 636 647 q 467 484 536 526 m 361 882 q 286 860 321 882 q 229 804 250 839 q 207 726 207 768 q 232 640 207 676 q 294 579 257 604 q 400 517 330 554 l 401 515 q 481 605 448 553 q 515 721 515 657 q 471 835 515 789 q 361 882 427 882 m 361 52 q 488 99 436 52 q 541 222 541 147 q 513 309 541 271 q 446 373 486 346 q 336 439 406 400 l 325 444 q 224 349 267 403 q 182 228 182 294 q 233 100 182 149 q 361 52 283 52 z "},"9":{"ha":729,"x_min":35,"x_max":667,"o":"m 332 345 q 440 366 391 345 l 431 431 q 345 427 401 427 q 254 454 294 427 q 192 526 214 481 q 170 624 170 571 q 214 778 170 715 q 339 840 258 840 q 445 799 401 840 q 510 693 489 758 q 530 557 530 628 q 425 176 530 349 q 66 -77 319 4 l 86 -149 q 411 1 281 -107 q 604 254 542 109 q 667 557 667 400 q 581 820 667 720 q 342 920 496 920 q 186 881 257 920 q 75 775 115 843 q 35 624 35 708 q 73 476 35 541 q 179 378 111 412 q 332 345 248 345 z "}," ":{"ha":297,"x_min":0,"x_max":0,"o":""},"!":{"ha":317,"x_min":97,"x_max":261,"o":"m 221 301 q 121 306 196 306 l 122 397 l 110 990 l 235 1000 l 261 975 q 250 859 258 950 q 234 647 241 768 q 227 428 227 525 q 228 357 227 392 q 231 310 229 322 l 221 301 m 179 -14 q 240 11 218 -14 q 261 77 261 36 q 240 141 261 117 q 179 165 218 165 q 119 141 140 165 q 97 77 97 117 q 119 10 97 34 q 179 -14 140 -14 z "},"\"":{"ha":415,"x_min":49,"x_max":367,"o":"m 49 1050 q 63 943 53 1022 q 75 847 74 864 l 74 717 l 154 713 l 172 1050 l 49 1050 m 243 1050 q 258 943 248 1022 q 269 847 268 864 l 268 717 l 349 713 l 367 1050 l 243 1050 z "},"#":{"ha":791,"x_min":45,"x_max":760,"o":"m 549 306 l 732 307 l 732 208 l 533 208 l 497 -21 l 414 -7 l 447 208 l 294 208 l 258 -21 l 175 -7 l 208 208 l 45 208 l 45 300 l 224 301 l 250 469 l 72 468 l 72 567 l 265 567 l 301 794 l 385 781 l 351 567 l 504 567 l 541 794 l 624 781 l 590 567 l 760 567 l 760 475 l 575 473 l 549 306 m 336 471 l 310 302 l 464 304 l 490 472 l 336 471 z "},"$":{"ha":724,"x_min":69,"x_max":654,"o":"m 654 233 q 574 55 654 119 q 367 -14 493 -9 l 363 -127 l 314 -123 l 318 -12 q 195 6 250 -9 q 105 37 140 21 q 69 54 69 53 l 90 262 l 176 254 l 175 179 q 189 98 175 168 q 322 68 254 73 l 336 406 l 294 425 q 136 531 196 473 q 75 685 75 590 q 152 857 75 796 q 354 918 229 918 l 357 918 l 363 1054 l 410 1050 l 404 916 q 608 876 485 909 l 587 676 l 513 685 l 514 750 q 507 782 514 758 q 496 818 500 806 q 401 843 441 839 l 389 526 l 428 505 q 547 433 502 465 q 623 352 591 401 q 654 233 654 302 m 204 708 q 240 623 204 659 q 342 551 275 587 l 354 846 l 350 846 q 245 810 286 846 q 204 708 204 774 m 371 66 q 479 112 440 72 q 518 220 518 151 q 484 311 518 273 q 383 383 449 349 l 371 66 z "},"%":{"ha":1090,"x_min":57,"x_max":1004,"o":"m 872 957 l 271 -68 l 200 -24 l 803 1002 l 872 957 m 473 684 q 419 511 473 579 q 265 443 364 443 q 112 511 167 443 q 57 685 57 579 q 112 857 57 789 q 265 925 167 925 q 418 857 363 925 q 473 685 473 789 l 473 684 m 161 684 q 185 565 161 614 q 265 517 210 517 q 345 565 321 517 q 370 685 370 614 q 345 803 370 754 q 265 851 321 851 q 185 803 210 851 q 161 684 161 754 m 1004 225 q 949 53 1004 121 q 796 -16 895 -16 q 643 53 698 -16 q 587 227 587 121 q 642 399 587 331 q 796 467 697 467 q 949 398 895 467 q 1004 227 1004 330 l 1004 225 m 692 225 q 716 107 692 155 q 796 58 741 58 q 876 107 852 58 q 900 227 900 155 q 876 345 900 296 q 796 393 851 393 q 716 345 741 393 q 692 225 692 296 z "},"&":{"ha":1006,"x_min":69,"x_max":966,"o":"m 422 920 q 537 905 469 920 q 642 876 606 890 l 624 682 l 547 686 l 550 750 q 545 781 550 755 q 536 817 539 807 q 489 841 518 830 q 422 851 460 851 q 328 817 364 851 q 292 725 292 782 q 343 588 292 664 q 470 434 395 511 q 667 245 546 357 q 689 387 689 304 q 676 467 689 411 l 582 475 l 590 555 l 717 555 l 886 562 l 893 489 l 786 467 q 779 371 779 418 q 734 183 779 265 l 777 144 q 857 85 781 140 l 966 75 l 957 -7 q 896 -3 945 -5 q 778 0 847 0 l 749 0 l 737 35 l 673 98 q 545 15 619 44 q 383 -14 471 -14 q 225 20 297 -14 q 111 117 153 54 q 69 264 69 180 q 114 419 69 351 q 243 536 158 486 q 170 725 169 641 q 238 872 170 825 q 422 920 307 920 m 293 471 q 193 273 193 394 q 247 127 193 186 q 385 69 300 69 q 612 155 533 69 l 533 229 q 392 364 447 310 q 293 471 338 418 z "},"'":{"ha":220,"x_min":49,"x_max":172,"o":"m 49 1050 q 63 943 53 1022 q 75 847 74 864 l 74 717 l 154 713 l 172 1050 l 49 1050 z "},"(":{"ha":376,"x_min":69,"x_max":363,"o":"m 183 440 q 205 209 183 313 q 265 4 228 106 q 310 -73 272 -14 q 363 -151 349 -132 l 318 -187 q 131 99 192 -61 q 69 440 69 258 q 131 782 69 622 q 318 1068 192 942 l 363 1032 q 311 954 349 1013 q 265 876 272 895 q 205 671 228 774 q 183 440 183 568 z "},")":{"ha":376,"x_min":14,"x_max":307,"o":"m 193 440 q 171 209 193 313 q 111 4 149 106 q 66 -73 104 -14 q 14 -151 28 -132 l 58 -187 q 246 99 184 -61 q 307 440 307 258 q 246 782 307 622 q 58 1068 184 942 l 14 1032 q 66 954 27 1013 q 111 876 104 895 q 171 671 149 774 q 193 440 193 568 z "},"*":{"ha":568,"x_min":60,"x_max":507,"o":"m 410 765 l 437 745 l 505 705 l 482 650 l 329 718 q 322 668 328 696 q 318 633 318 643 l 318 557 l 258 550 l 241 715 l 163 684 l 96 644 l 60 693 l 196 790 l 127 843 l 61 880 l 85 936 l 236 868 q 249 951 248 943 l 249 1029 l 309 1036 l 325 871 q 403 903 399 900 l 471 942 l 507 893 l 371 796 l 410 765 z "},"+":{"ha":777,"x_min":31,"x_max":746,"o":"m 437 307 l 440 0 l 336 0 l 336 306 l 31 302 l 31 407 l 336 407 l 336 710 l 433 710 l 436 407 l 746 407 l 746 310 l 437 307 z "},",":{"ha":305,"x_min":47,"x_max":243,"o":"m 146 -14 q 119 -91 146 -57 q 47 -144 93 -125 l 61 -189 q 195 -99 147 -171 q 243 56 243 -28 q 222 144 243 110 q 155 179 201 179 q 92 152 115 179 q 69 83 69 125 q 90 17 69 45 q 146 -14 110 -11 z "},"-":{"ha":391,"x_min":41,"x_max":350,"o":"m 343 300 l 45 300 l 41 404 l 350 404 l 343 300 z "},".":{"ha":296,"x_min":56,"x_max":233,"o":"m 144 179 q 79 152 103 179 q 56 82 56 125 q 79 13 56 39 q 144 -14 103 -14 q 210 13 186 -14 q 233 82 233 39 q 210 154 233 128 q 144 179 186 179 z "},"/":{"ha":522,"x_min":9,"x_max":529,"o":"m 529 1046 l 98 -93 l 9 -65 l 441 1074 l 529 1046 z "},":":{"ha":281,"x_min":56,"x_max":220,"o":"m 138 656 q 77 631 98 656 q 56 566 56 606 q 77 501 56 526 q 138 476 98 476 q 198 500 176 476 q 220 566 220 525 q 198 632 220 608 q 138 656 176 656 m 138 165 q 77 140 98 165 q 56 75 56 115 q 77 11 56 35 q 138 -14 98 -14 q 198 11 176 -14 q 220 75 220 35 q 198 142 220 118 q 138 165 176 165 z "},";":{"ha":305,"x_min":47,"x_max":243,"o":"m 154 656 q 94 631 115 656 q 72 566 72 606 q 94 501 72 526 q 154 476 115 476 q 214 500 193 476 q 236 566 236 525 q 215 632 236 608 q 154 656 193 656 m 146 -14 q 119 -91 146 -57 q 47 -144 93 -125 l 61 -189 q 195 -99 147 -171 q 243 56 243 -28 q 222 144 243 110 q 155 179 201 179 q 92 152 115 179 q 69 83 69 125 q 90 17 69 45 q 146 -14 110 -11 z "},"<":{"ha":777,"x_min":142,"x_max":636,"o":"m 636 53 l 283 345 l 635 639 l 561 713 l 142 343 l 562 -21 l 636 53 z "},"=":{"ha":777,"x_min":72,"x_max":704,"o":"m 72 525 l 72 427 l 704 433 l 704 525 l 72 525 m 704 165 l 704 264 l 72 257 l 72 165 l 704 165 z "},">":{"ha":777,"x_min":142,"x_max":636,"o":"m 142 53 l 494 345 l 143 639 l 216 713 l 636 343 l 215 -21 l 142 53 z "},"?":{"ha":559,"x_min":46,"x_max":570,"o":"m 439 710 q 392 570 439 624 q 264 517 346 517 q 193 522 235 517 l 157 489 l 157 310 l 163 306 q 257 301 232 306 l 267 310 l 261 432 q 419 465 349 432 q 529 561 489 498 q 570 708 570 624 q 488 930 570 850 q 264 1010 406 1010 q 156 997 205 1010 q 46 956 106 983 l 62 764 l 143 764 l 140 814 q 142 854 140 827 q 149 895 144 882 q 204 923 176 916 q 265 930 232 930 q 394 868 350 930 q 439 710 439 806 m 215 -14 q 276 11 254 -14 q 297 77 297 36 q 276 141 297 117 q 215 165 254 165 q 155 141 176 165 q 134 77 134 117 q 155 10 134 34 q 215 -14 176 -14 z "},"@":{"ha":1266,"x_min":56,"x_max":1211,"o":"m 804 110 q 710 22 777 58 q 570 -14 643 -14 q 433 36 484 -14 q 382 171 382 86 q 423 282 382 241 q 542 343 464 323 q 692 372 604 359 q 790 386 779 385 l 790 432 q 761 572 790 521 q 660 624 732 624 q 530 597 583 624 q 524 565 529 591 q 518 532 518 539 l 518 482 l 437 478 l 422 665 q 673 699 547 699 q 814 665 764 699 q 883 567 864 631 q 903 404 903 504 l 903 191 q 910 126 903 174 q 920 64 917 79 q 1054 183 1010 83 q 1099 399 1099 283 q 1044 639 1099 535 q 885 801 989 743 q 640 859 781 859 q 356 768 458 859 q 218 557 254 677 q 182 322 182 436 q 293 -68 182 75 q 647 -210 404 -211 q 776 -186 677 -210 q 909 -154 875 -163 l 932 -197 q 860 -228 915 -204 q 742 -274 806 -252 q 647 -296 679 -296 q 296 -206 427 -296 q 110 22 164 -117 q 56 322 56 161 q 115 619 56 482 q 306 841 175 755 q 640 926 437 926 q 942 864 812 926 q 1141 682 1071 802 q 1211 399 1211 562 q 1168 213 1211 303 q 1042 64 1125 123 q 847 -5 960 4 l 822 14 l 804 110 m 606 75 q 727 120 675 75 q 790 232 779 164 l 790 315 q 719 304 781 314 q 591 278 657 294 q 504 178 504 256 q 530 102 504 129 q 606 75 557 75 z "},"A":{"ha":958,"x_min":28,"x_max":930,"o":"m 783 0 q 672 -3 734 0 q 585 -7 610 -5 l 579 61 l 681 89 l 643 239 l 614 322 l 309 322 l 264 176 l 250 89 l 347 75 l 340 0 l 221 0 q 113 -3 170 0 q 33 -7 56 -5 l 28 61 l 115 85 l 175 222 l 424 979 l 504 993 l 790 207 l 844 89 l 930 75 l 924 0 l 783 0 m 456 774 l 334 392 l 586 397 l 456 774 z "},"B":{"ha":830,"x_min":66,"x_max":768,"o":"m 461 993 q 594 964 533 993 q 690 882 654 936 q 725 754 725 828 q 671 599 725 664 q 532 514 618 534 l 532 504 q 704 423 639 487 q 768 254 768 359 q 731 117 768 176 q 628 25 693 57 q 485 -7 564 -7 q 367 -4 456 -7 l 218 0 l 74 -7 l 66 62 l 168 85 q 180 191 180 167 l 180 789 q 168 895 180 814 l 69 911 l 77 986 l 218 979 q 283 982 248 979 q 332 986 318 985 q 386 990 345 987 q 461 993 427 993 m 317 909 q 311 837 314 885 q 307 747 307 789 l 307 232 q 310 148 307 191 q 315 82 313 104 q 441 74 385 74 q 577 124 526 74 q 628 265 628 174 q 561 416 628 365 q 395 468 494 468 l 379 468 l 389 547 l 399 547 q 541 597 485 547 q 596 737 596 647 q 551 869 596 819 q 432 918 505 918 q 317 909 386 918 z "},"C":{"ha":847,"x_min":58,"x_max":799,"o":"m 799 26 q 642 -8 710 4 q 498 -21 574 -21 q 257 42 355 -21 q 108 221 158 106 q 58 489 58 336 q 108 757 58 642 q 257 936 158 872 q 498 1000 355 1000 q 630 989 574 1000 q 786 953 686 978 l 772 747 l 690 753 l 690 818 q 673 888 690 831 q 584 910 631 901 q 498 920 536 920 q 278 799 354 920 q 201 490 201 679 q 278 180 201 301 q 497 60 354 60 q 590 68 538 60 q 686 90 642 77 q 705 168 706 154 q 707 201 707 176 q 708 233 708 225 l 790 236 l 799 26 z "},"D":{"ha":1001,"x_min":58,"x_max":943,"o":"m 464 993 q 724 932 616 993 q 888 758 832 871 q 943 489 943 644 q 886 229 943 342 q 720 54 828 117 q 464 -8 611 -8 q 370 -4 424 -8 q 305 -2 349 -4 q 229 0 261 0 q 139 -3 192 -1 q 65 -7 86 -5 l 58 62 l 168 85 q 180 191 180 167 l 180 789 q 168 895 180 814 l 61 911 l 68 986 l 204 979 q 315 986 244 981 q 379 990 334 987 q 464 993 424 993 m 465 909 q 317 903 375 909 q 307 747 307 811 l 307 232 q 311 142 307 189 q 317 79 314 96 q 465 74 389 74 q 654 129 578 74 q 768 277 730 183 q 806 489 806 371 q 768 704 806 608 q 654 854 730 799 q 465 909 578 909 z "},"E":{"ha":817,"x_min":58,"x_max":764,"o":"m 68 986 q 140 983 89 985 q 229 979 192 981 l 541 979 q 618 985 559 979 q 699 993 677 990 l 725 968 l 734 779 l 654 772 q 639 847 650 806 q 611 895 637 861 q 498 901 534 901 l 317 901 q 307 747 307 800 l 307 550 l 367 547 l 468 547 q 513 553 485 547 q 551 559 542 558 l 564 652 l 628 644 l 627 528 q 628 432 627 475 q 631 376 629 390 l 564 368 l 551 461 q 497 466 538 463 q 440 469 457 469 l 367 469 q 307 465 343 469 l 307 232 q 317 79 307 172 l 517 79 q 637 92 570 79 q 667 143 664 127 q 675 175 669 157 q 682 205 677 189 q 688 236 686 221 l 764 229 l 743 20 l 717 -5 q 645 -2 696 -4 q 558 0 595 0 l 229 0 q 140 -3 192 -1 q 65 -7 87 -5 l 58 62 l 168 85 q 180 191 180 167 l 180 789 q 168 895 180 814 l 61 911 l 68 986 z "},"F":{"ha":766,"x_min":58,"x_max":734,"o":"m 699 993 q 618 985 677 990 q 541 979 558 979 l 229 979 q 140 983 192 981 q 68 986 89 985 l 61 911 l 168 895 q 180 789 180 814 l 180 191 q 168 85 180 167 l 58 62 l 65 -7 q 140 -3 87 -5 q 229 0 192 -1 q 363 -3 298 0 q 446 -7 428 -5 l 456 75 l 317 85 q 311 151 314 109 q 307 232 307 193 l 307 454 q 367 458 343 458 l 440 458 q 497 455 457 458 q 551 450 538 452 l 564 357 l 631 366 q 628 421 629 379 q 627 517 627 464 l 628 633 l 564 640 l 551 549 q 513 542 542 547 q 468 536 485 536 l 367 536 l 307 539 l 307 747 q 317 901 307 800 l 498 901 q 611 895 534 901 q 639 847 637 861 q 654 772 650 806 l 734 779 l 725 968 l 699 993 z "},"G":{"ha":924,"x_min":58,"x_max":852,"o":"m 522 1000 q 661 989 602 1000 q 828 953 721 978 l 812 747 l 732 755 l 732 818 q 715 886 732 830 q 518 920 603 920 q 341 863 414 920 q 234 710 269 807 q 199 490 199 614 q 234 270 199 367 q 341 116 269 172 q 518 60 414 60 q 612 67 559 60 q 713 87 665 75 q 729 178 730 159 l 729 272 q 724 325 729 290 q 715 371 718 359 l 568 382 l 575 463 l 729 463 q 787 465 757 463 q 828 467 817 467 l 852 443 q 846 346 851 419 q 840 231 840 273 l 840 26 q 673 -8 745 4 q 522 -21 602 -21 q 268 42 372 -21 q 111 221 164 106 q 58 489 58 336 q 111 757 58 642 q 268 936 164 872 q 522 1000 372 1000 z "},"H":{"ha":1074,"x_min":58,"x_max":1028,"o":"m 903 895 q 897 828 900 871 q 893 747 893 786 l 893 232 q 897 151 893 193 q 903 85 900 109 l 1028 75 l 1018 -7 q 943 -3 1001 -5 q 815 0 885 0 q 726 -3 778 -1 q 652 -7 673 -5 l 644 62 l 754 85 q 766 191 766 167 l 766 454 l 307 454 l 307 232 q 311 151 307 193 q 317 85 314 109 l 441 75 l 432 -7 q 357 -3 415 -5 q 229 0 298 0 q 140 -3 192 -1 q 65 -7 87 -5 l 58 62 l 168 85 q 180 191 180 167 l 180 789 q 168 895 180 814 l 61 911 l 68 986 q 140 983 89 985 q 229 979 192 981 q 352 982 298 979 q 419 986 406 985 l 425 904 l 317 895 q 311 828 314 871 q 307 747 307 786 l 307 525 l 766 532 l 766 789 q 754 895 766 814 l 647 911 l 654 986 q 727 983 675 985 q 815 979 778 981 q 938 982 884 979 q 1006 986 991 985 l 1011 904 l 903 895 z "},"I":{"ha":504,"x_min":66,"x_max":450,"o":"m 325 895 q 319 828 322 871 q 315 747 315 786 l 315 232 q 319 151 315 193 q 325 85 322 109 l 450 75 l 440 -7 q 365 -3 423 -5 q 237 0 307 0 q 148 -3 200 -1 q 74 -7 96 -5 l 66 62 l 176 85 q 189 191 189 167 l 189 789 q 176 895 189 814 l 69 911 l 77 986 q 149 983 98 985 q 237 979 200 981 q 360 982 307 979 q 428 986 414 985 l 433 904 l 325 895 z "},"J":{"ha":460,"x_min":56,"x_max":419,"o":"m 311 895 q 305 828 309 871 q 301 747 301 786 l 301 -14 q 247 -110 301 -39 q 111 -278 192 -182 l 64 -248 q 129 -106 82 -210 q 175 16 175 -3 l 175 789 q 163 895 175 814 l 56 911 l 62 986 q 135 983 83 985 q 224 979 186 981 q 347 982 293 979 q 414 986 400 985 l 419 904 l 311 895 z "},"K":{"ha":969,"x_min":58,"x_max":956,"o":"m 419 986 q 352 982 406 985 q 229 979 298 979 q 140 983 192 981 q 68 986 89 985 l 61 911 l 168 895 q 180 789 180 814 l 180 191 q 168 85 180 167 l 58 62 l 65 -7 q 140 -3 87 -5 q 229 0 192 -1 q 357 -3 298 0 q 432 -7 415 -5 l 441 75 l 317 85 q 311 151 314 109 q 307 232 307 193 l 307 747 q 311 828 307 786 q 317 895 314 871 l 425 904 l 419 986 m 946 -7 q 875 -3 930 -5 q 750 0 819 0 q 654 -3 711 -1 q 572 -7 596 -5 l 566 62 l 647 82 q 550 228 586 180 l 321 490 l 574 802 l 628 896 l 553 911 l 559 986 q 626 983 579 985 q 707 979 672 981 q 823 982 776 979 q 884 986 871 985 l 889 904 l 783 895 q 642 758 711 828 l 458 514 l 559 399 l 751 179 q 859 85 774 154 l 956 75 l 946 -7 z "},"L":{"ha":741,"x_min":58,"x_max":728,"o":"m 317 895 q 311 828 314 871 q 307 747 307 786 l 307 232 q 311 150 307 195 q 317 79 314 104 l 481 79 q 602 92 534 79 q 631 143 629 130 q 652 236 648 208 l 728 229 l 707 20 l 681 -5 q 609 -2 660 -4 q 522 0 558 0 l 229 0 q 140 -3 192 -1 q 65 -7 87 -5 l 58 62 l 168 85 q 180 191 180 167 l 180 789 q 168 895 180 814 l 61 911 l 68 986 q 140 983 89 985 q 229 979 192 981 q 352 982 298 979 q 419 986 406 985 l 425 904 l 317 895 z "},"M":{"ha":1289,"x_min":37,"x_max":1260,"o":"m 972 979 q 1105 982 1042 979 q 1187 986 1169 985 l 1193 904 l 1082 895 q 1078 790 1078 869 l 1125 183 q 1147 85 1126 174 l 1260 75 l 1251 -7 q 1176 -3 1234 -5 q 1048 0 1118 0 q 958 -3 1011 -1 q 884 -7 905 -5 l 876 62 l 985 85 q 991 225 991 189 l 954 811 l 650 0 l 600 0 l 296 811 l 262 225 q 269 85 262 196 l 382 75 l 372 -7 q 311 -3 360 -5 q 193 0 261 0 q 111 -3 159 -1 q 45 -7 64 -5 l 37 62 l 146 85 l 153 111 q 161 146 157 127 q 170 183 165 165 l 205 790 q 204 844 205 814 q 200 895 203 873 l 86 911 l 93 986 q 194 982 119 985 q 285 981 268 979 l 363 981 l 389 951 q 421 852 398 922 q 461 734 444 782 l 646 243 l 835 746 q 871 845 843 766 q 908 951 899 924 l 936 979 l 972 979 z "},"N":{"ha":1057,"x_min":57,"x_max":1036,"o":"m 1029 986 q 946 982 1011 985 q 812 979 880 979 l 699 982 l 690 899 l 800 890 q 808 828 804 865 q 812 775 812 790 l 812 227 l 449 736 q 375 852 418 782 q 314 951 332 922 l 286 981 l 225 979 q 136 983 188 981 q 64 986 85 985 l 57 911 l 168 895 q 175 847 170 888 q 180 789 180 807 l 180 191 q 168 85 180 167 l 58 62 l 65 -7 q 133 -3 85 -5 q 215 0 180 -1 q 330 -3 284 0 q 386 -7 375 -5 l 396 75 l 283 85 q 277 151 281 109 q 273 232 273 193 l 273 772 l 821 -9 l 904 -9 l 905 412 l 905 733 q 926 890 905 791 l 1036 913 l 1029 986 z "},"O":{"ha":1027,"x_min":58,"x_max":970,"o":"m 970 489 q 918 222 970 336 q 764 43 867 107 q 514 -21 661 -21 q 264 43 367 -21 q 110 222 161 107 q 58 489 58 336 q 110 757 58 642 q 264 936 161 872 q 514 1000 367 1000 q 764 936 661 1000 q 918 757 867 872 q 970 489 970 642 m 207 489 q 241 267 207 366 q 345 111 275 168 q 514 53 414 53 q 683 111 614 53 q 787 267 753 168 q 821 489 821 366 q 787 712 821 614 q 683 869 753 811 q 514 926 614 926 q 345 869 414 926 q 241 712 275 811 q 207 489 207 614 z "},"P":{"ha":814,"x_min":58,"x_max":772,"o":"m 431 404 q 307 407 385 404 l 307 232 q 311 151 307 193 q 317 85 314 109 l 447 75 l 437 -7 q 359 -3 420 -5 q 229 0 298 0 q 140 -3 192 -1 q 65 -7 87 -5 l 58 62 l 168 85 q 180 191 180 165 l 180 789 q 168 895 180 812 l 61 911 l 68 986 l 207 979 l 317 986 q 389 990 342 987 q 463 993 436 993 q 690 918 608 993 q 772 697 772 843 q 727 540 772 607 q 603 439 681 473 q 431 404 525 404 m 642 697 q 578 865 642 807 q 404 924 515 924 q 318 917 376 924 q 311 831 314 882 q 307 747 307 781 l 307 481 q 403 473 366 474 q 578 530 514 473 q 642 697 642 587 z "},"Q":{"ha":1034,"x_min":58,"x_max":1011,"o":"m 566 -18 q 514 -21 532 -21 q 264 43 367 -21 q 110 222 161 107 q 58 489 58 336 q 110 757 58 642 q 264 936 161 872 q 514 1000 367 1000 q 764 936 661 1000 q 918 757 867 872 q 970 489 970 642 q 893 175 970 303 q 671 1 817 46 l 791 -83 q 893 -131 805 -93 q 1011 -183 981 -170 l 929 -311 l 566 -18 m 207 489 q 241 267 207 366 q 345 111 275 168 q 514 53 414 53 q 683 111 614 53 q 787 267 753 168 q 821 489 821 366 q 787 712 821 614 q 683 869 753 811 q 514 926 614 926 q 345 869 414 926 q 241 712 275 811 q 207 489 207 614 z "},"R":{"ha":897,"x_min":58,"x_max":880,"o":"m 871 -7 q 787 -3 852 -5 q 652 0 721 0 q 614 81 642 21 q 575 161 586 140 l 439 418 l 429 418 q 307 421 385 418 l 307 232 q 311 151 307 193 q 317 85 314 109 l 441 75 l 432 -7 q 357 -3 415 -5 q 229 0 298 0 q 140 -3 192 -1 q 65 -7 87 -5 l 58 62 l 168 85 q 180 191 180 165 l 180 789 q 168 895 180 807 l 61 911 l 68 986 l 207 979 l 317 986 q 388 990 342 987 q 461 993 435 993 q 688 920 607 993 q 768 705 768 847 q 713 538 768 607 q 567 439 659 469 q 713 182 636 302 q 781 85 725 161 l 880 75 l 871 -7 m 307 494 q 401 488 366 488 q 574 543 511 488 q 637 704 637 597 q 575 867 637 811 q 403 924 513 924 q 318 916 372 924 q 307 747 307 827 l 307 494 z "},"S":{"ha":776,"x_min":69,"x_max":707,"o":"m 182 192 q 197 100 182 167 q 378 62 292 62 q 512 107 463 62 q 561 236 561 153 q 532 323 561 286 q 463 387 504 359 q 349 450 421 414 q 212 528 264 493 q 124 615 160 562 q 87 743 87 668 q 172 933 87 865 q 389 1000 256 1000 q 669 956 492 1000 l 650 746 l 568 754 l 568 815 q 561 854 568 825 q 550 893 553 884 q 472 918 509 911 q 385 924 435 924 q 272 883 317 924 q 227 770 227 843 q 254 688 227 724 q 322 627 281 653 q 433 564 363 600 q 576 484 521 521 q 669 390 631 447 q 707 253 707 334 q 614 49 707 119 q 375 -21 521 -21 q 224 -4 292 -21 q 113 31 157 12 q 69 53 69 50 l 90 267 l 182 258 l 182 192 z "},"T":{"ha":826,"x_min":14,"x_max":812,"o":"m 732 761 q 717 847 725 815 q 689 895 715 861 q 576 901 612 901 l 486 901 q 476 747 477 804 l 476 232 q 480 151 476 193 q 486 85 484 109 l 611 75 l 602 -7 q 526 -3 585 -5 q 399 0 468 0 q 309 -3 361 -1 q 235 -7 257 -5 l 228 62 l 338 85 q 350 191 350 167 l 350 789 q 342 867 350 808 l 338 901 l 250 901 q 138 895 214 901 q 110 847 111 861 q 94 761 102 815 l 14 768 l 24 968 l 50 993 q 131 985 71 990 q 208 979 191 979 l 618 979 q 696 985 636 979 q 777 993 755 990 l 803 968 l 812 768 l 732 761 z "},"U":{"ha":1009,"x_min":24,"x_max":983,"o":"m 873 895 q 867 824 871 869 q 864 741 864 779 l 864 370 q 771 83 864 188 q 504 -21 679 -21 q 237 83 329 -21 q 146 370 146 187 l 146 782 q 134 895 146 802 l 24 911 l 31 986 q 103 983 52 985 q 192 979 154 981 q 319 982 261 979 q 392 986 376 985 l 397 904 l 288 895 q 281 824 285 869 q 278 741 278 779 l 278 370 q 339 150 278 232 q 517 68 400 68 q 701 151 637 68 q 764 370 764 233 l 764 782 q 750 895 764 798 l 642 911 l 648 986 q 714 983 668 985 q 796 979 761 981 q 915 982 865 979 q 978 986 965 985 l 983 904 l 873 895 z "},"V":{"ha":962,"x_min":-1,"x_max":956,"o":"m 150 772 q 117 842 138 804 q 90 890 97 879 l -1 904 l 5 979 l 157 979 q 270 983 204 981 q 361 986 335 985 l 367 918 l 257 890 q 268 838 257 885 q 298 741 279 790 l 503 205 l 710 803 q 720 851 715 821 q 725 890 724 880 l 619 904 l 627 979 l 751 979 q 865 982 803 979 q 950 986 926 985 l 956 918 l 861 895 q 834 844 854 884 q 798 757 814 804 l 533 0 l 449 0 l 150 772 z "},"W":{"ha":1404,"x_min":1,"x_max":1401,"o":"m 1307 895 q 1276 835 1299 880 q 1243 757 1254 790 l 1015 0 l 930 0 l 699 703 l 488 0 l 403 0 l 149 772 q 117 844 136 808 q 93 890 98 880 l 1 904 l 8 979 l 160 979 q 273 983 208 981 q 364 986 338 985 l 370 918 l 260 890 q 274 831 262 877 q 297 741 285 785 l 457 205 l 676 951 l 750 951 l 985 205 l 1156 803 q 1165 853 1161 825 q 1171 890 1169 882 l 1065 904 l 1072 979 l 1197 979 q 1310 982 1249 979 q 1396 986 1372 985 l 1401 918 l 1307 895 z "},"X":{"ha":997,"x_min":25,"x_max":989,"o":"m 225 775 q 139 890 196 815 l 26 904 l 36 981 l 160 979 q 302 983 220 981 q 419 986 385 985 l 427 921 l 317 890 q 338 840 319 885 q 374 771 357 794 l 505 586 l 640 803 q 686 890 652 824 l 578 904 l 587 981 l 699 979 q 828 982 745 979 q 937 986 911 985 l 945 921 l 848 899 q 739 790 762 819 l 559 511 l 794 183 q 879 89 825 144 l 989 75 l 979 -1 l 868 0 q 727 -3 808 -1 q 612 -7 646 -5 l 606 58 l 697 83 q 635 197 663 161 l 478 418 l 319 183 q 271 89 304 159 l 382 75 l 372 -1 l 261 0 l 32 -7 l 25 58 l 110 82 q 170 144 117 89 q 243 228 222 199 l 425 493 l 225 775 z "},"Y":{"ha":920,"x_min":8,"x_max":896,"o":"m 802 895 q 765 843 793 884 q 714 757 737 803 l 519 379 l 519 232 q 523 151 519 193 q 529 85 526 109 l 654 75 l 644 -7 q 569 -3 627 -5 q 441 0 511 0 q 352 -3 404 -1 q 278 -7 300 -5 l 271 62 l 380 85 q 393 191 393 167 l 393 357 l 178 772 q 134 844 159 808 q 100 890 109 880 l 8 904 l 16 979 l 167 979 q 279 983 214 981 q 371 986 345 985 l 376 918 l 267 890 q 282 838 267 885 q 326 741 298 791 l 467 478 l 627 803 q 651 856 640 831 q 665 890 661 882 l 559 904 l 567 979 l 692 979 q 805 982 743 979 q 890 986 867 985 l 896 918 l 802 895 z "},"Z":{"ha":773,"x_min":37,"x_max":736,"o":"m 300 897 q 180 890 257 897 l 158 843 q 147 787 153 821 q 140 726 142 753 l 60 733 l 69 968 l 96 993 q 176 985 117 990 q 254 979 236 979 l 714 979 l 724 901 l 574 686 l 309 265 l 207 82 l 489 82 q 611 94 543 82 q 639 143 636 127 q 651 196 644 165 q 660 250 657 227 l 736 243 l 715 20 l 689 -5 q 617 -2 668 -4 q 530 0 567 0 l 47 0 l 37 79 q 111 184 56 106 q 193 304 167 262 l 457 722 l 554 897 l 300 897 z "},"[":{"ha":368,"x_min":104,"x_max":354,"o":"m 118 125 q 112 -16 117 72 q 104 -142 107 -104 l 131 -168 q 260 -170 191 -168 q 350 -174 329 -172 l 354 -114 l 237 -97 q 227 -36 235 -83 q 218 56 218 12 l 218 835 q 227 926 218 878 q 237 987 235 974 l 354 1004 l 350 1064 q 260 1061 329 1063 q 131 1059 191 1059 l 104 1032 q 112 906 107 995 q 118 765 117 818 l 118 125 z "},"\\":{"ha":553,"x_min":9,"x_max":529,"o":"m 9 1046 l 440 -93 l 529 -65 l 97 1074 l 9 1046 z "},"]":{"ha":368,"x_min":14,"x_max":264,"o":"m 250 765 q 256 906 252 818 q 264 1032 261 994 l 237 1059 q 108 1061 178 1059 q 18 1064 39 1063 l 14 1004 l 131 987 q 142 926 134 974 q 150 835 150 878 l 150 56 q 142 -35 150 13 q 131 -97 134 -83 l 14 -114 l 18 -174 q 109 -170 39 -172 q 237 -168 178 -168 l 264 -142 q 256 -16 261 -104 q 250 125 252 72 l 250 765 z "},"^":{"ha":777,"x_min":14,"x_max":764,"o":"m 389 1011 l 764 496 l 676 435 l 389 854 l 102 435 l 14 496 l 389 1011 z "},"_":{"ha":700,"x_min":0,"x_max":700,"o":"m 693 -322 l 3 -322 l 0 -218 l 700 -218 l 693 -322 z "},"`":{"ha":500,"x_min":92,"x_max":407,"o":"m 260 867 q 181 914 248 876 q 92 965 115 951 l 157 1048 l 407 840 l 361 783 l 260 867 z "},"a":{"ha":701,"x_min":54,"x_max":685,"o":"m 476 110 q 387 22 450 57 q 256 -14 323 -14 q 109 34 163 -14 q 54 164 54 82 q 240 349 54 318 l 463 386 l 463 432 q 332 624 463 624 q 262 616 297 624 q 200 596 227 608 l 191 538 l 191 481 l 110 476 l 94 665 q 346 699 219 699 q 522 631 469 699 q 575 404 575 564 l 575 232 q 581 144 575 189 q 589 85 586 98 l 685 75 l 675 -7 q 614 -3 663 -5 q 496 0 566 0 l 476 110 m 264 278 q 199 246 222 271 q 176 184 176 221 q 203 103 176 132 q 278 75 229 75 q 399 120 347 75 q 463 232 452 164 l 463 315 l 264 278 z "},"b":{"ha":769,"x_min":14,"x_max":714,"o":"m 21 1055 q 77 1052 37 1054 q 149 1050 117 1050 l 229 1050 l 256 1025 q 250 928 254 1001 q 245 812 245 856 l 245 593 q 324 669 276 639 q 439 699 372 699 q 643 603 572 699 q 714 355 714 507 q 675 171 714 256 q 563 36 636 86 q 395 -14 490 -14 q 122 36 257 -14 q 129 115 123 57 q 134 191 134 174 l 134 854 q 128 910 134 873 q 119 960 122 947 l 14 982 l 21 1055 m 418 614 q 291 544 336 614 q 245 380 245 475 l 245 232 q 249 148 245 192 q 256 81 253 103 q 386 64 319 64 q 539 144 492 64 q 586 353 586 225 q 418 614 586 614 z "},"c":{"ha":647,"x_min":56,"x_max":608,"o":"m 375 699 q 468 689 429 699 q 593 650 507 679 l 579 476 l 498 481 l 498 530 q 489 578 498 544 q 433 610 460 602 q 375 619 407 619 q 232 539 278 619 q 186 342 186 458 q 232 152 186 227 q 375 77 278 77 q 467 87 424 77 q 536 110 510 98 q 570 126 562 122 l 608 61 q 575 39 608 58 q 490 3 542 20 q 374 -14 437 -14 q 137 82 218 -14 q 56 342 56 178 q 138 602 56 506 q 375 699 220 699 z "},"d":{"ha":768,"x_min":64,"x_max":751,"o":"m 742 -7 q 681 -3 729 -5 q 562 0 632 0 l 543 111 q 460 25 522 64 q 343 -14 399 -14 q 138 81 212 -14 q 64 343 64 176 q 142 604 64 509 q 355 699 221 699 q 437 692 400 699 q 529 665 475 685 l 529 854 q 524 910 529 873 q 515 960 518 947 l 393 982 l 400 1055 q 464 1052 418 1054 q 545 1050 510 1050 l 625 1050 l 652 1025 q 646 928 650 1001 q 642 812 642 856 l 642 232 q 647 144 642 189 q 656 85 653 98 l 751 75 l 742 -7 m 529 564 q 451 602 489 590 q 370 614 412 614 q 238 542 285 614 q 192 342 192 471 q 235 147 192 218 q 353 75 278 75 q 483 131 436 75 q 529 288 529 187 l 529 564 z "},"e":{"ha":663,"x_min":56,"x_max":625,"o":"m 375 77 q 474 89 428 77 q 551 117 519 102 q 582 134 582 132 l 621 69 q 587 45 621 66 q 499 5 554 24 q 375 -14 444 -14 q 138 83 221 -14 q 56 340 56 179 q 133 601 56 503 q 358 699 210 699 q 625 375 625 699 l 602 329 l 186 329 q 239 151 190 224 q 375 77 288 77 m 353 627 q 235 563 273 627 q 187 400 196 498 l 496 422 l 497 450 q 460 577 497 528 q 353 627 424 627 z "},"f":{"ha":487,"x_min":50,"x_max":557,"o":"m 414 1069 q 497 1064 450 1069 q 557 1055 543 1059 l 542 868 l 468 872 l 468 922 q 452 994 468 936 l 414 996 q 326 971 354 996 q 290 904 297 946 q 282 786 282 861 l 282 686 l 476 686 l 469 611 l 282 611 l 282 232 q 286 144 282 189 q 292 85 290 98 l 428 75 l 418 -7 q 341 -3 401 -5 q 211 0 281 0 q 126 -3 175 -1 q 57 -7 78 -5 l 50 62 l 155 85 q 164 135 158 97 q 170 191 170 174 l 170 611 l 62 611 l 58 669 l 96 681 q 170 710 147 696 l 170 829 q 233 1005 170 941 q 414 1069 296 1069 z "},"g":{"ha":701,"x_min":45,"x_max":672,"o":"m 547 619 q 611 447 611 553 q 537 264 611 333 q 343 196 464 196 q 249 208 293 196 q 211 150 212 165 q 237 120 211 129 q 342 102 262 111 l 403 93 q 523 78 464 86 q 610 60 582 69 q 656 20 640 50 q 672 -61 672 -11 q 625 -194 672 -133 q 496 -290 578 -254 q 319 -326 415 -326 q 115 -275 184 -326 q 45 -125 45 -224 q 80 -68 45 -106 q 171 16 115 -29 q 117 55 134 31 q 100 117 100 79 q 200 228 100 144 q 108 317 140 260 q 75 447 75 374 q 149 630 75 561 q 343 699 222 699 q 489 665 422 699 l 659 692 l 659 611 l 547 619 m 343 628 q 196 447 196 627 q 343 267 196 267 q 490 447 490 267 q 343 628 490 627 m 224 -1 q 176 -67 187 -46 q 164 -110 164 -89 q 211 -214 164 -180 q 358 -248 258 -248 q 499 -208 444 -248 q 554 -104 554 -168 q 542 -59 554 -73 q 500 -41 530 -46 l 319 -18 q 224 -1 264 -13 z "},"h":{"ha":825,"x_min":26,"x_max":811,"o":"m 35 1055 q 91 1052 52 1054 q 163 1050 131 1050 l 243 1050 l 269 1025 q 262 921 265 983 q 260 812 260 859 l 260 593 q 341 669 290 639 q 458 699 392 699 q 643 620 593 699 q 693 383 693 542 l 693 232 q 697 144 693 189 q 703 85 701 98 l 811 75 l 802 -7 q 741 -3 789 -5 q 623 0 692 0 q 544 -3 589 -1 q 481 -7 498 -5 l 473 62 l 567 85 q 581 191 581 146 l 581 383 q 437 614 581 614 q 309 549 357 614 q 260 380 261 485 l 260 232 q 262 149 260 193 q 268 85 265 104 l 376 75 l 367 -7 q 306 -3 355 -5 q 187 0 257 0 q 103 -3 151 -1 q 33 -7 54 -5 l 26 62 l 134 85 q 142 138 138 103 q 147 191 147 172 l 147 854 q 142 910 147 873 q 134 960 136 947 l 28 982 l 35 1055 z "},"i":{"ha":418,"x_min":50,"x_max":400,"o":"m 220 1000 q 280 977 258 1000 q 301 909 301 953 q 280 845 301 869 q 220 821 258 821 q 159 845 181 821 q 138 909 138 869 q 159 975 138 949 q 220 1000 180 1000 m 390 -7 q 329 -3 378 -5 q 211 0 281 0 q 126 -3 175 -1 q 57 -7 78 -5 l 50 62 l 155 85 q 164 135 158 97 q 170 191 170 174 l 170 490 q 164 545 170 507 q 155 596 158 583 l 50 618 l 57 692 q 113 688 74 690 q 184 686 153 686 l 265 686 l 292 661 q 286 565 290 637 q 282 449 282 492 l 282 232 q 286 144 282 189 q 292 85 290 98 l 400 75 l 390 -7 z "},"j":{"ha":387,"x_min":35,"x_max":278,"o":"m 196 1000 q 256 977 235 1000 q 278 909 278 953 q 256 845 278 869 q 196 821 235 821 q 136 845 157 821 q 114 909 114 869 q 135 975 114 949 q 196 1000 157 1000 m 41 692 q 98 688 58 690 q 170 686 138 686 l 250 686 l 277 661 q 271 565 275 637 q 267 449 267 492 l 267 -14 q 229 -108 267 -39 q 152 -242 192 -178 q 98 -326 111 -307 l 49 -297 q 82 -208 57 -276 q 131 -68 107 -140 q 154 29 154 4 l 154 163 l 154 490 q 149 546 154 509 q 140 596 143 583 l 35 618 l 41 692 z "},"k":{"ha":794,"x_min":26,"x_max":802,"o":"m 35 1055 q 91 1052 52 1054 q 163 1050 131 1050 l 243 1050 l 269 1025 q 262 921 265 983 q 260 812 260 859 l 260 232 q 262 149 260 193 q 268 85 265 104 l 376 75 l 367 -7 q 306 -3 355 -5 q 187 0 257 0 q 103 -3 151 -1 q 33 -7 54 -5 l 26 62 l 134 85 q 142 138 138 103 q 147 191 147 172 l 147 854 q 142 910 147 873 q 134 960 136 947 l 28 982 l 35 1055 m 452 690 q 504 688 467 690 q 572 686 542 686 q 689 689 642 686 q 749 693 736 692 l 753 612 l 648 602 q 569 553 610 581 q 511 509 528 526 l 399 387 l 589 179 q 668 117 598 170 q 714 83 668 117 l 802 75 l 791 -7 q 731 -3 779 -5 q 612 0 682 0 l 471 -3 l 464 66 l 543 82 l 472 160 l 275 368 l 504 607 l 444 618 l 452 690 z "},"l":{"ha":407,"x_min":26,"x_max":376,"o":"m 35 1055 q 91 1052 52 1054 q 163 1050 131 1050 l 243 1050 l 269 1025 q 262 921 265 983 q 260 812 260 859 l 260 232 q 262 149 260 193 q 268 85 265 104 l 376 75 l 367 -7 q 306 -3 355 -5 q 187 0 257 0 q 103 -3 151 -1 q 33 -7 54 -5 l 26 62 l 134 85 q 142 138 138 103 q 147 191 147 172 l 147 854 q 142 910 147 873 q 134 960 136 947 l 28 982 l 35 1055 z "},"m":{"ha":1236,"x_min":50,"x_max":1222,"o":"m 1213 -7 q 1152 -3 1200 -5 q 1034 0 1103 0 q 955 -3 1000 -1 q 892 -7 909 -5 l 885 62 l 978 85 q 991 191 991 146 l 991 383 q 964 550 991 486 q 865 614 936 614 q 741 550 787 614 q 693 383 694 486 l 693 232 q 697 144 693 189 q 703 85 701 98 l 811 75 l 802 -7 q 741 -3 789 -5 q 623 0 692 0 q 544 -3 589 -1 q 481 -7 498 -5 l 473 62 l 567 85 q 581 191 581 146 l 581 383 q 553 550 581 486 q 454 614 525 614 q 330 549 376 614 q 282 380 283 484 l 282 232 q 286 144 282 189 q 292 85 290 98 l 400 75 l 390 -7 q 329 -3 378 -5 q 211 0 281 0 q 126 -3 175 -1 q 57 -7 78 -5 l 50 62 l 155 85 q 162 125 157 96 q 170 183 167 154 l 170 490 q 164 545 170 507 q 155 596 158 583 l 50 618 l 57 692 q 113 688 74 690 q 184 686 153 686 l 235 686 l 261 661 l 269 572 q 351 663 297 627 q 478 699 406 699 q 604 665 559 699 q 672 567 650 632 q 759 661 703 624 q 889 699 815 699 q 1058 620 1013 699 q 1104 383 1104 542 l 1104 232 q 1108 144 1104 189 q 1114 85 1112 98 l 1222 75 l 1213 -7 z "},"n":{"ha":831,"x_min":32,"x_max":815,"o":"m 806 -7 q 745 -3 793 -5 q 627 0 696 0 q 548 -3 593 -1 q 485 -7 503 -5 l 478 62 l 571 85 q 585 191 585 146 l 585 383 q 441 614 585 614 q 313 549 361 614 q 264 380 265 485 l 264 232 q 268 144 264 189 q 273 85 272 98 l 382 75 l 372 -7 q 311 -3 360 -5 q 193 0 262 0 q 109 -3 157 -1 q 39 -7 60 -5 l 32 62 l 138 85 q 144 125 139 96 q 151 183 149 154 l 151 490 q 146 546 151 509 q 138 596 140 583 l 32 618 l 39 692 q 95 688 56 690 q 167 686 135 686 l 216 686 l 243 661 l 252 572 q 334 662 279 625 q 463 699 389 699 q 647 620 597 699 q 697 383 697 542 l 697 232 q 701 144 697 189 q 707 85 705 98 l 815 75 l 806 -7 z "},"o":{"ha":761,"x_min":61,"x_max":700,"o":"m 700 342 q 617 83 700 179 q 380 -14 534 -14 q 144 83 227 -14 q 61 342 61 179 q 144 602 61 506 q 380 699 227 699 q 618 603 537 699 q 700 342 700 507 m 570 342 q 525 541 570 463 q 380 619 481 619 q 236 541 281 619 q 192 342 192 463 q 236 143 192 221 q 380 65 281 65 q 525 143 480 65 q 570 342 570 221 z "},"p":{"ha":776,"x_min":21,"x_max":721,"o":"m 436 699 q 647 609 572 699 q 721 355 721 519 q 680 166 721 250 q 566 34 639 82 q 401 -14 493 -14 q 253 21 331 -14 l 253 -85 q 257 -173 253 -127 q 262 -232 261 -218 l 399 -241 l 389 -323 q 312 -319 372 -322 q 183 -317 253 -317 q 107 -319 157 -317 q 41 -323 58 -322 l 35 -254 l 126 -232 q 135 -187 129 -221 q 140 -134 140 -153 l 140 490 q 135 546 140 509 q 126 596 129 583 l 21 618 l 28 692 q 84 688 45 690 q 155 686 123 686 l 205 686 l 232 661 l 240 572 q 321 661 262 624 q 436 699 379 699 m 425 614 q 300 553 347 614 q 253 395 253 493 l 253 119 q 393 69 327 69 q 544 142 492 69 q 596 353 596 215 q 553 548 596 481 q 425 614 510 614 z "},"q":{"ha":754,"x_min":56,"x_max":736,"o":"m 726 -323 q 650 -319 709 -322 q 521 -317 590 -317 q 445 -319 494 -317 q 379 -323 396 -322 l 372 -254 l 507 -232 q 515 -181 510 -220 q 521 -126 521 -143 l 521 86 q 437 16 492 46 q 335 -14 382 -14 q 130 81 204 -14 q 56 343 56 176 q 92 529 56 449 q 194 654 127 610 q 347 699 261 699 q 474 689 416 699 q 644 648 532 679 q 638 558 643 626 q 633 447 633 490 l 633 -85 q 637 -173 633 -127 q 643 -232 642 -218 l 736 -241 l 726 -323 m 345 75 q 474 131 428 75 q 521 288 521 187 l 521 489 q 515 567 521 514 l 513 599 q 361 614 445 614 q 232 539 280 614 q 183 342 183 465 q 226 147 183 218 q 345 75 269 75 z "},"r":{"ha":586,"x_min":50,"x_max":587,"o":"m 269 570 q 364 667 310 636 q 493 699 418 699 q 553 693 525 699 q 587 685 581 688 l 574 456 l 493 460 l 493 533 q 473 603 493 544 l 468 603 q 331 549 375 602 q 282 395 286 496 l 282 232 q 286 144 282 189 q 292 85 290 98 l 428 75 l 418 -7 q 341 -3 401 -5 q 211 0 281 0 q 126 -3 175 -1 q 57 -7 78 -5 l 50 62 l 155 85 q 164 135 158 97 q 170 191 170 174 l 170 490 q 164 545 170 507 q 155 596 158 583 l 50 618 l 57 692 q 113 688 74 690 q 184 686 153 686 l 235 686 l 261 661 l 269 570 z "},"s":{"ha":573,"x_min":71,"x_max":528,"o":"m 157 172 q 165 138 157 163 q 184 90 174 114 q 294 57 224 57 q 382 83 350 57 q 414 163 414 110 q 379 233 414 205 q 269 296 345 261 q 165 351 204 326 q 98 415 126 375 q 71 514 71 456 q 132 649 71 599 q 289 699 193 699 q 489 675 378 699 l 486 476 l 406 481 l 406 530 q 394 573 406 543 q 379 610 382 604 q 290 627 342 627 q 211 602 240 627 q 182 536 182 578 q 218 467 182 495 q 326 406 254 439 q 431 350 391 375 q 499 285 471 325 q 528 189 528 245 q 293 -14 528 -14 q 186 -2 235 -14 q 106 24 138 9 q 75 40 75 39 l 77 225 l 157 229 l 157 172 z "},"t":{"ha":477,"x_min":28,"x_max":475,"o":"m 475 58 q 394 5 431 24 q 311 -14 357 -14 q 177 42 216 -14 q 139 216 139 97 l 139 611 l 32 611 l 28 669 l 65 681 q 139 710 117 696 q 170 767 146 718 q 203 835 195 817 l 252 829 l 252 686 l 446 686 l 439 611 l 252 611 l 252 183 q 326 75 252 75 q 373 84 349 75 q 415 103 397 93 q 436 115 432 113 l 475 58 z "},"u":{"ha":822,"x_min":32,"x_max":785,"o":"m 457 692 q 510 688 472 690 q 578 686 547 686 l 659 686 l 685 661 q 679 565 684 637 q 675 449 675 492 l 675 232 q 681 144 675 189 q 689 85 686 98 l 785 75 l 775 -7 q 714 -3 763 -5 q 596 0 665 0 l 578 109 q 363 -14 507 -14 q 222 24 271 -14 q 155 130 172 62 q 138 301 138 197 l 138 490 q 132 546 138 509 q 123 596 126 583 l 32 618 l 39 692 q 88 688 52 690 q 153 686 123 686 l 233 686 l 260 661 q 254 565 258 637 q 250 449 250 492 l 250 254 q 387 75 250 75 q 516 139 469 75 q 562 292 562 203 l 562 490 q 557 546 562 509 q 549 596 551 583 l 450 618 l 457 692 z "},"v":{"ha":736,"x_min":1,"x_max":724,"o":"m 647 604 q 578 443 604 508 l 418 0 l 325 0 l 143 478 q 119 536 135 499 q 86 603 103 572 l 1 618 l 8 690 q 63 688 24 690 q 132 686 102 686 q 251 689 201 686 q 313 693 300 692 l 317 612 l 233 603 q 267 485 260 503 l 386 143 l 501 488 q 529 603 507 503 l 425 618 l 432 690 q 482 688 446 690 q 549 686 518 686 q 663 689 618 686 q 720 693 708 692 l 724 612 l 647 604 z "},"w":{"ha":1111,"x_min":8,"x_max":1105,"o":"m 1043 604 q 974 443 1000 508 l 814 0 l 720 0 l 555 465 l 397 0 l 304 0 l 122 478 q 98 536 114 499 q 65 603 82 572 l 8 618 l 16 690 q 56 688 26 690 q 111 686 85 686 q 241 689 180 686 q 319 693 302 692 l 323 612 l 212 603 q 245 485 239 503 l 366 143 l 542 686 l 596 686 l 782 143 l 897 488 q 925 603 903 503 l 807 618 l 814 690 q 872 688 831 690 q 945 686 913 686 q 1054 689 1014 686 q 1101 693 1093 692 l 1105 612 l 1043 604 z "},"x":{"ha":754,"x_min":20,"x_max":754,"o":"m 745 -7 q 680 -3 731 -5 q 559 0 629 0 q 484 -3 526 -1 q 425 -7 441 -5 l 418 62 l 504 83 l 460 160 l 366 282 l 279 160 l 236 85 l 323 75 l 314 -7 q 268 -3 306 -5 q 161 0 231 0 q 85 -3 128 -1 q 26 -7 43 -5 l 20 62 l 106 85 l 218 207 l 315 346 l 204 490 l 103 604 l 32 618 l 39 690 q 93 688 54 690 q 164 686 132 686 q 277 689 233 686 q 332 693 321 692 l 336 612 l 253 603 l 293 538 l 386 416 l 464 538 l 498 602 l 410 618 l 416 690 q 462 688 429 690 q 524 686 496 686 q 639 689 593 686 q 696 693 685 692 l 700 612 l 615 602 l 521 490 l 433 355 l 547 207 l 669 82 l 754 75 l 745 -7 z "},"y":{"ha":748,"x_min":0,"x_max":736,"o":"m 509 467 q 528 529 518 493 q 546 602 538 566 l 444 618 l 452 690 q 505 688 467 690 q 572 686 542 686 q 680 689 637 686 q 732 693 722 692 l 736 612 l 663 602 q 590 443 612 500 l 304 -326 l 81 -311 l 92 -231 l 147 -232 q 240 -218 168 -232 q 293 -123 275 -170 l 338 0 l 139 463 q 68 602 118 514 l 0 618 l 7 690 q 56 688 20 690 q 121 686 92 686 q 243 689 190 686 q 311 693 297 692 l 315 612 l 215 603 q 250 485 233 524 l 387 144 l 509 467 z "},"z":{"ha":639,"x_min":57,"x_max":595,"o":"m 100 690 q 158 688 117 690 q 232 686 200 686 l 568 686 l 578 606 l 458 454 l 289 197 q 220 72 271 170 l 393 72 q 475 81 409 72 q 505 151 496 122 q 509 175 507 159 q 514 207 511 191 l 595 199 l 582 22 l 557 -4 q 489 -2 537 -4 q 404 0 440 0 l 66 0 l 57 81 q 126 157 75 100 q 189 233 176 214 l 361 489 q 431 614 386 528 l 261 614 q 187 606 249 614 q 167 559 179 587 q 154 519 155 530 l 149 465 l 68 471 l 75 664 l 100 690 z "},"{":{"ha":378,"x_min":49,"x_max":364,"o":"m 149 363 q 140 177 149 289 q 120 -25 131 65 q 107 -140 110 -115 l 135 -168 q 266 -170 195 -168 q 359 -174 338 -172 l 364 -114 l 243 -97 q 237 -19 241 -77 q 232 56 232 39 q 239 225 232 118 q 244 395 244 353 q 200 423 226 410 q 167 439 175 436 l 167 452 q 201 468 175 454 q 244 496 228 481 q 239 665 244 537 q 232 835 232 772 q 237 910 232 853 q 243 987 241 968 l 364 1004 l 359 1064 q 266 1061 337 1063 q 135 1059 195 1059 l 107 1031 q 120 916 110 1006 q 140 713 131 825 q 149 528 149 602 q 103 487 139 508 q 54 465 66 465 l 49 425 q 102 404 66 425 q 149 363 139 382 z "},"|":{"ha":387,"x_min":149,"x_max":239,"o":"m 239 1044 l 239 -170 l 149 -157 l 149 1055 l 239 1044 z "},"}":{"ha":378,"x_min":14,"x_max":329,"o":"m 229 528 q 238 713 229 602 q 258 916 248 825 q 271 1031 268 1006 l 243 1059 q 112 1061 183 1059 q 18 1064 40 1063 l 14 1004 l 135 987 q 141 910 136 968 q 146 835 146 852 q 140 665 146 793 q 134 496 134 558 q 177 467 151 480 q 211 452 203 454 l 211 439 q 177 423 203 436 q 134 395 151 410 q 140 225 134 332 q 146 56 146 98 q 141 -20 146 39 q 135 -97 136 -78 l 14 -114 l 18 -174 q 112 -170 41 -172 q 243 -168 183 -168 l 271 -140 q 258 -25 268 -115 q 238 177 248 65 q 229 363 229 289 q 275 404 239 382 q 323 425 311 425 l 329 465 q 275 487 312 465 q 229 528 239 509 z "},"~":{"ha":777,"x_min":65,"x_max":713,"o":"m 657 433 q 636 409 653 428 q 597 373 619 390 q 557 357 575 357 q 499 366 533 357 q 407 395 465 375 q 296 429 340 417 q 216 440 252 440 q 152 408 186 440 q 92 337 118 376 q 65 296 65 298 l 121 250 q 141 274 125 256 q 180 310 158 293 q 221 326 203 326 q 383 286 260 326 q 494 253 455 264 q 561 243 533 243 q 626 275 591 243 q 686 346 660 307 q 713 387 713 385 l 657 433 z "},"¡":{"ha":317,"x_min":57,"x_max":221,"o":"m 139 699 q 78 673 100 699 q 57 608 57 648 q 78 544 57 568 q 139 519 100 519 q 199 544 178 519 q 221 608 221 568 q 199 675 221 651 q 139 699 178 699 m 97 383 q 197 379 122 379 l 196 288 l 208 -306 l 83 -315 l 57 -290 q 68 -174 60 -265 q 84 38 77 -83 q 92 257 92 160 q 90 328 92 293 q 87 375 89 363 l 97 383 z "},"¢":{"ha":671,"x_min":56,"x_max":608,"o":"m 608 168 q 576 146 608 165 q 492 110 543 126 q 378 93 440 93 l 372 -58 l 323 -54 l 329 96 q 125 203 195 109 q 56 449 56 297 q 133 705 56 609 q 358 806 211 800 l 366 957 l 412 953 l 407 804 q 477 793 444 802 q 561 768 510 785 l 593 757 l 579 583 l 498 587 l 498 637 q 489 685 498 651 q 403 725 448 718 l 382 183 q 471 196 429 184 q 537 218 513 207 q 570 233 562 229 l 608 168 m 186 449 q 222 276 186 347 q 334 187 258 204 l 355 725 q 228 637 269 717 q 186 449 186 558 z "},"£":{"ha":793,"x_min":62,"x_max":772,"o":"m 751 20 l 725 -5 q 653 -2 704 -4 q 567 0 603 0 l 260 0 q 170 -3 222 -1 q 96 -7 118 -5 l 89 62 l 199 85 q 211 191 211 165 l 211 336 l 72 329 l 69 378 l 211 383 l 211 484 l 65 476 l 62 525 l 211 532 l 211 688 q 289 859 211 798 q 490 920 367 920 q 751 875 585 920 l 732 671 l 650 679 l 650 734 q 633 812 650 745 q 565 836 597 829 q 489 843 532 843 q 377 808 417 843 q 338 707 338 772 l 338 538 l 632 550 l 635 503 l 338 489 l 338 389 l 639 403 l 642 355 l 338 342 l 338 232 q 342 141 338 189 q 347 79 346 93 l 525 79 q 646 92 578 79 q 675 143 673 129 q 696 236 692 208 l 772 229 l 751 20 z "},"¥":{"ha":895,"x_min":7,"x_max":884,"o":"m 505 232 q 510 141 505 189 q 515 79 514 93 l 624 71 l 615 -5 q 525 -2 594 -4 q 395 0 456 0 q 318 -2 360 0 q 262 -5 275 -4 l 256 66 l 363 79 q 371 133 366 93 q 376 191 376 172 l 376 339 l 163 329 l 161 378 l 370 387 l 311 484 l 158 476 l 155 525 l 283 530 l 165 726 l 82 821 l 7 832 l 17 907 l 154 907 l 368 914 l 375 848 l 268 818 q 325 693 302 733 l 453 481 l 616 757 q 643 819 636 800 l 541 832 l 550 907 l 661 907 l 876 914 l 884 848 l 789 822 l 689 713 l 587 543 l 728 550 l 729 503 l 559 496 l 505 406 l 505 393 l 732 403 l 734 355 l 505 345 l 505 232 z "},"¦":{"ha":387,"x_min":149,"x_max":239,"o":"m 239 1044 l 239 545 l 149 555 l 149 1055 l 239 1044 m 149 -157 l 149 294 l 239 285 l 239 -170 l 149 -157 z "},"§":{"ha":745,"x_min":111,"x_max":648,"o":"m 511 314 q 529 342 521 325 q 536 378 536 359 q 513 442 536 415 q 453 489 489 469 q 355 536 418 509 q 229 599 277 570 q 146 674 180 628 q 111 789 111 721 q 181 944 111 887 q 358 1000 250 1000 q 589 964 444 1000 l 572 782 l 507 789 l 507 835 q 490 897 507 844 q 425 917 456 911 q 355 924 395 924 q 277 894 308 924 q 245 811 245 864 q 290 723 245 758 q 424 644 335 688 q 535 583 493 610 q 607 518 578 557 q 636 428 636 479 q 610 354 636 393 q 551 290 585 315 l 511 314 m 243 547 q 227 516 232 534 q 221 488 221 498 q 244 422 221 450 q 303 373 268 393 q 403 323 339 353 q 531 257 482 286 q 614 180 579 228 q 648 64 648 132 q 572 -102 648 -45 q 376 -160 496 -160 q 253 -146 309 -160 q 161 -116 197 -132 q 125 -98 125 -100 l 142 90 l 218 83 l 218 29 q 231 -46 218 11 q 378 -77 301 -77 q 473 -44 437 -77 q 509 50 509 -11 q 484 124 509 93 q 421 178 458 155 q 322 229 385 200 q 215 286 256 261 q 146 347 174 310 q 118 435 118 383 q 144 509 118 469 q 204 571 171 549 l 243 547 z "},"¨":{"ha":500,"x_min":11,"x_max":489,"o":"m 86 990 q 142 969 122 990 q 161 907 161 947 q 142 847 161 868 q 86 825 122 825 q 31 847 50 825 q 11 907 11 868 q 31 968 11 945 q 86 990 50 990 m 414 990 q 470 969 450 990 q 489 907 489 947 q 470 847 489 868 q 414 825 450 825 q 358 847 378 825 q 339 907 339 868 q 358 968 339 945 q 414 990 378 990 z "},"©":{"ha":1173,"x_min":79,"x_max":1095,"o":"m 1095 347 q 1026 95 1095 211 q 840 -91 957 -21 q 586 -160 724 -160 q 333 -93 450 -160 q 148 91 216 -25 q 79 347 79 207 q 148 602 79 485 q 333 786 216 718 q 586 854 450 854 q 842 787 725 854 q 1026 603 958 720 q 1095 347 1095 486 m 1032 347 q 971 569 1032 467 q 809 732 911 672 q 586 793 707 793 q 363 734 465 793 q 201 572 261 675 q 140 347 140 469 q 201 124 140 227 q 363 -38 261 22 q 586 -98 465 -98 q 810 -38 707 -98 q 972 124 913 22 q 1032 347 1032 227 m 787 68 q 685 47 725 54 q 597 40 644 40 q 386 123 458 40 q 313 346 313 205 q 386 570 313 486 q 597 653 460 653 q 674 647 639 653 q 740 635 710 642 q 781 625 770 628 l 771 485 l 714 489 l 714 533 q 704 572 714 543 q 599 587 643 588 q 472 520 517 587 q 428 347 428 453 q 472 174 428 241 q 599 106 517 106 q 711 119 653 106 q 720 143 717 132 q 724 164 724 155 q 725 190 725 176 q 725 210 725 204 l 783 211 l 787 68 z "},"ª":{"ha":459,"x_min":36,"x_max":441,"o":"m 289 689 q 237 635 271 654 q 163 616 203 616 q 70 648 104 616 q 36 732 36 679 q 150 847 36 829 l 279 868 l 279 895 q 262 966 279 943 q 208 989 244 989 q 134 974 163 989 l 126 939 l 127 900 l 69 897 l 57 1029 q 214 1051 139 1052 q 378 888 378 1051 l 378 779 q 381 723 378 753 q 386 685 385 693 l 441 679 l 436 621 q 392 624 428 622 q 297 625 357 625 l 289 689 m 191 803 q 140 749 140 793 q 195 690 140 690 q 249 710 225 690 q 279 761 272 729 l 279 818 l 191 803 z "},"«":{"ha":577,"x_min":35,"x_max":519,"o":"m 150 336 l 298 62 l 248 28 l 35 336 l 248 644 l 298 610 l 150 336 m 375 336 l 519 68 l 469 33 l 261 336 l 469 639 l 519 604 l 375 336 z "},"¬":{"ha":777,"x_min":77,"x_max":708,"o":"m 612 334 l 610 96 l 708 96 l 708 427 l 77 427 l 77 328 l 612 334 z "},"®":{"ha":1173,"x_min":79,"x_max":1095,"o":"m 1095 347 q 1026 95 1095 211 q 840 -91 957 -21 q 586 -160 724 -160 q 333 -93 450 -160 q 148 91 216 -25 q 79 347 79 207 q 148 602 79 485 q 333 786 216 718 q 586 854 450 854 q 842 787 725 854 q 1026 603 958 720 q 1095 347 1095 486 m 1032 347 q 971 569 1032 467 q 809 732 911 672 q 586 793 707 793 q 363 734 465 793 q 201 572 261 675 q 140 347 140 469 q 201 124 140 227 q 363 -38 261 22 q 586 -98 465 -98 q 810 -38 707 -98 q 972 124 913 22 q 1032 347 1032 227 m 778 486 q 749 391 778 431 q 668 330 720 351 q 718 240 693 281 q 753 183 743 199 q 794 123 761 168 l 851 117 l 846 65 l 697 65 l 681 111 q 656 171 657 168 l 581 314 l 507 314 l 507 211 q 511 125 507 183 l 572 117 l 567 65 l 505 65 l 347 61 l 339 107 l 408 125 l 410 125 q 414 154 411 132 q 416 186 416 176 l 416 534 q 414 565 416 543 q 410 596 411 587 l 408 596 l 343 602 l 349 648 l 416 648 q 503 653 452 648 q 544 656 521 654 q 590 657 567 657 q 728 614 679 657 q 778 486 778 571 m 571 361 q 658 397 627 366 q 689 485 689 429 q 653 578 689 546 q 555 610 618 610 q 511 604 547 610 q 507 511 507 542 l 507 364 q 555 361 526 361 l 571 361 z "},"¯":{"ha":500,"x_min":26,"x_max":473,"o":"m 473 901 l 467 828 l 26 828 l 26 901 l 473 901 z "},"°":{"ha":500,"x_min":41,"x_max":460,"o":"m 460 718 q 404 567 460 623 q 250 511 347 511 q 98 567 155 511 q 41 718 41 623 q 98 869 41 814 q 250 925 154 925 q 404 869 347 925 q 460 718 460 814 m 149 718 q 174 620 149 659 q 252 582 200 582 q 328 621 303 582 q 353 718 353 660 q 328 815 353 777 q 252 854 302 854 q 174 816 200 854 q 149 718 149 778 z "},"±":{"ha":777,"x_min":72,"x_max":704,"o":"m 704 425 l 433 422 l 436 151 l 339 151 l 339 421 l 72 418 l 72 515 l 339 515 l 339 781 l 429 781 l 432 515 l 704 515 l 704 425 m 704 98 l 704 0 l 72 0 l 72 92 l 704 98 z "},"´":{"ha":500,"x_min":92,"x_max":407,"o":"m 407 965 q 317 914 383 951 q 239 867 252 876 l 138 783 l 92 840 l 342 1048 l 407 965 z "},"µ":{"ha":805,"x_min":122,"x_max":761,"o":"m 672 191 q 689 97 672 126 q 761 37 705 68 l 734 -21 l 704 -9 q 614 32 647 10 q 567 96 581 53 q 367 -14 500 -14 q 229 46 282 -14 l 236 -107 q 249 -193 237 -124 q 264 -286 260 -262 l 252 -297 l 221 -297 q 174 -299 199 -297 q 140 -302 149 -301 l 127 -292 q 131 -122 126 -272 q 132 -65 132 -94 l 132 496 l 122 682 l 131 690 q 154 688 138 690 q 182 686 170 686 q 222 688 204 686 q 245 690 240 689 l 254 682 q 249 576 253 656 q 244 454 244 497 l 244 254 q 278 123 244 171 q 385 75 311 75 q 513 139 467 75 q 559 292 559 203 l 559 496 l 550 682 l 558 690 q 580 688 564 690 q 610 686 596 686 q 650 688 632 686 q 673 690 668 689 l 682 682 q 676 576 681 656 q 672 454 672 497 l 672 191 z "},"¶":{"ha":772,"x_min":24,"x_max":715,"o":"m 366 404 q 193 439 271 404 q 70 540 115 473 q 24 697 24 607 q 105 918 24 843 q 334 993 187 993 q 403 989 363 993 l 403 439 l 366 404 m 606 890 q 597 836 602 868 q 593 789 593 804 l 593 65 q 598 -16 593 47 q 606 -100 604 -78 l 579 -125 l 561 -125 l 334 -132 l 326 -66 l 460 -36 q 468 25 464 -16 q 472 107 472 66 l 472 954 l 498 979 l 708 986 l 715 913 l 606 890 z "},"·":{"ha":296,"x_min":56,"x_max":233,"o":"m 144 513 q 79 486 103 513 q 56 415 56 458 q 79 346 56 372 q 144 319 103 319 q 210 346 186 319 q 233 415 233 372 q 210 487 233 461 q 144 513 186 513 z "},"¸":{"ha":500,"x_min":146,"x_max":410,"o":"m 269 -82 q 371 -115 332 -83 q 410 -203 410 -147 q 367 -292 410 -258 q 261 -326 323 -326 q 146 -301 199 -326 l 164 -253 q 244 -268 213 -269 q 298 -251 277 -268 q 319 -203 319 -233 q 301 -158 319 -172 q 254 -143 283 -143 l 225 -144 l 210 -131 l 222 14 l 289 14 l 269 -82 z "},"º":{"ha":479,"x_min":33,"x_max":446,"o":"m 446 832 q 392 671 446 729 q 239 614 339 614 q 86 671 139 614 q 33 832 33 729 q 86 994 33 937 q 239 1051 139 1051 q 392 994 338 1051 q 446 832 446 936 m 334 832 q 311 948 334 908 q 239 989 289 989 q 168 948 190 989 q 146 832 146 908 q 168 716 146 755 q 239 676 191 676 q 311 716 289 676 q 334 832 334 755 z "},"»":{"ha":576,"x_min":58,"x_max":543,"o":"m 427 335 l 279 608 l 330 643 l 543 335 l 330 26 l 279 61 l 427 335 m 203 335 l 58 603 l 109 637 l 317 335 l 109 32 l 58 66 l 203 335 z "},"¿":{"ha":559,"x_min":16,"x_max":539,"o":"m 370 699 q 309 673 330 699 q 288 608 288 648 q 309 544 288 568 q 370 519 330 519 q 430 544 408 519 q 452 608 452 568 q 430 675 452 651 q 370 699 408 699 m 146 -25 q 192 115 146 61 q 321 168 239 168 q 392 163 350 168 l 428 196 l 428 375 l 422 379 q 328 383 353 379 l 318 375 l 323 253 q 166 219 236 253 q 56 123 96 186 q 16 -24 16 61 q 97 -245 16 -165 q 321 -325 179 -325 q 429 -312 379 -325 q 539 -271 479 -298 l 522 -79 l 441 -79 l 444 -129 q 442 -170 444 -142 q 436 -210 440 -197 q 380 -238 408 -231 q 319 -245 353 -245 q 190 -183 235 -245 q 146 -25 146 -121 z "},"Æ":{"ha":1259,"x_min":-14,"x_max":1207,"o":"m 1068 772 q 1053 847 1063 806 q 1025 893 1051 859 q 913 900 948 900 l 661 900 q 676 751 671 791 l 710 536 q 815 530 788 531 l 882 530 q 928 536 900 530 q 965 543 956 542 l 978 635 l 1042 628 l 1040 517 q 1042 421 1040 464 q 1044 366 1043 379 l 978 357 l 965 450 q 911 455 951 452 q 854 458 871 458 l 815 458 q 722 453 794 458 l 755 241 l 790 79 l 960 79 q 1080 92 1013 79 q 1109 143 1104 125 q 1131 236 1126 208 l 1207 229 l 1186 20 l 1160 -5 q 1088 -2 1139 -4 q 1002 0 1038 0 l 699 0 q 609 -3 661 -1 q 534 -7 557 -5 l 528 62 l 642 85 q 635 180 642 135 l 610 345 l 313 345 l 216 142 l 207 111 q 200 85 205 106 l 314 75 l 304 -7 q 242 -3 292 -5 q 122 0 192 0 q 50 -3 90 0 q -7 -7 9 -5 l -14 62 l 69 85 q 154 212 141 184 l 479 895 l 371 911 l 378 986 q 450 983 399 985 q 539 979 501 981 l 954 979 q 1031 985 971 979 q 1112 993 1092 990 l 1139 968 l 1149 779 l 1068 772 m 534 811 l 347 415 l 599 419 l 545 772 l 534 811 z "},"Ç":{"ha":847,"x_min":58,"x_max":799,"o":"m 532 -82 q 633 -115 595 -83 q 672 -203 672 -147 q 629 -292 672 -258 q 524 -326 586 -326 q 408 -301 461 -326 l 427 -253 q 507 -268 475 -269 q 561 -251 541 -268 q 582 -203 582 -233 q 564 -158 582 -172 q 517 -143 546 -143 l 488 -144 l 472 -131 l 482 -21 q 168 122 277 -16 q 58 489 58 260 q 108 757 58 642 q 257 936 158 872 q 498 1000 355 1000 q 630 989 574 1000 q 786 953 686 978 l 772 747 l 690 753 l 690 818 q 673 888 690 831 q 584 910 631 901 q 498 920 536 920 q 278 799 354 920 q 201 490 201 679 q 278 180 201 301 q 497 60 354 60 q 590 68 538 60 q 686 90 642 77 q 705 168 706 154 q 707 201 707 176 q 708 233 708 225 l 790 236 l 799 26 q 668 -4 727 7 q 545 -20 608 -16 l 532 -82 z "},"Ð":{"ha":1001,"x_min":58,"x_max":943,"o":"m 204 979 q 315 986 244 981 q 379 990 334 987 q 464 993 424 993 q 724 932 616 993 q 888 758 832 871 q 943 489 943 644 q 886 229 943 342 q 720 54 828 117 q 464 -8 611 -8 q 370 -4 424 -8 q 305 -2 349 -4 q 229 0 261 0 q 139 -3 192 -1 q 65 -7 86 -5 l 58 62 l 168 85 q 180 191 180 167 l 180 468 l 58 468 l 58 528 l 180 528 l 180 789 q 168 895 180 814 l 61 911 l 68 986 l 204 979 m 307 232 q 311 142 307 189 q 317 79 314 96 q 465 74 389 74 q 654 129 578 74 q 768 277 730 183 q 806 489 806 371 q 768 704 806 608 q 654 854 730 799 q 465 909 578 909 q 317 903 375 909 q 307 747 307 811 l 307 528 l 505 528 l 498 468 l 307 468 l 307 232 z "},"×":{"ha":747,"x_min":83,"x_max":664,"o":"m 374 273 l 155 56 l 86 125 l 302 345 l 83 562 l 153 632 l 374 415 l 589 635 l 663 561 l 446 345 l 664 131 l 590 57 l 374 273 z "},"Ø":{"ha":1027,"x_min":58,"x_max":970,"o":"m 782 924 q 922 748 875 860 q 970 489 970 636 q 918 222 970 336 q 764 43 867 107 q 514 -21 661 -21 q 306 21 397 -21 l 195 -189 l 139 -157 l 249 53 q 106 229 155 117 q 58 489 58 342 q 110 757 58 642 q 264 936 161 872 q 514 1000 367 1000 q 725 957 632 1000 l 833 1164 l 892 1132 l 782 924 m 207 489 q 231 299 207 386 q 301 153 256 212 l 679 872 q 514 926 610 926 q 345 869 414 926 q 241 712 275 811 q 207 489 207 614 m 514 53 q 683 111 614 53 q 787 267 753 168 q 821 489 821 366 q 797 678 821 592 q 728 822 774 764 l 350 106 q 514 53 420 53 z "},"Þ":{"ha":812,"x_min":58,"x_max":771,"o":"m 317 895 q 309 787 311 861 q 461 796 414 795 q 690 721 608 796 q 771 500 771 646 q 725 343 771 410 q 601 242 679 277 q 429 207 524 207 q 307 210 385 207 q 317 85 310 130 l 441 75 l 432 -7 q 357 -3 415 -5 q 229 0 298 0 q 140 -3 192 -1 q 65 -7 87 -5 l 58 62 l 168 85 q 180 191 180 167 l 180 789 q 168 895 180 814 l 61 911 l 68 986 q 140 983 89 985 q 229 979 192 981 q 352 982 298 979 q 419 986 406 985 l 425 904 l 317 895 m 307 283 q 401 277 366 277 q 576 333 513 277 q 640 500 640 390 q 577 668 640 610 q 403 726 514 726 q 307 718 379 726 l 307 283 z "},"ß":{"ha":868,"x_min":47,"x_max":850,"o":"m 157 85 q 170 191 170 167 l 170 611 l 62 611 l 58 669 l 96 681 q 170 710 147 696 l 170 802 q 244 1000 170 930 q 450 1069 318 1069 q 653 1011 571 1069 q 736 846 736 953 q 719 757 736 794 q 676 696 701 720 q 612 643 652 672 q 547 586 568 611 q 526 524 526 561 q 558 462 526 488 q 657 401 590 436 q 757 342 718 368 q 823 276 796 315 q 850 183 850 236 q 791 33 850 80 q 624 -14 733 -14 q 520 -2 568 -14 q 439 24 472 9 q 407 40 407 39 l 422 229 l 503 225 l 503 172 q 519 89 503 155 q 623 57 555 57 q 704 84 675 57 q 732 163 732 111 q 699 235 732 205 q 596 300 665 264 q 500 355 536 330 q 438 419 464 380 q 412 514 412 458 q 443 617 412 579 q 532 694 473 654 q 612 764 586 733 q 639 846 639 794 q 585 949 639 911 q 450 987 532 987 q 343 961 380 987 q 295 886 307 935 q 282 758 282 838 l 282 232 q 290 0 282 144 l 218 0 q 129 -3 181 -1 q 54 -7 77 -5 l 47 62 l 157 85 z "},"à":{"ha":701,"x_min":54,"x_max":685,"o":"m 476 110 q 387 22 450 57 q 256 -14 323 -14 q 109 34 163 -14 q 54 164 54 82 q 240 349 54 318 l 463 386 l 463 432 q 332 624 463 624 q 262 616 297 624 q 200 596 227 608 l 191 538 l 191 481 l 110 476 l 94 665 q 346 699 219 699 q 522 631 469 699 q 575 404 575 564 l 575 232 q 581 144 575 189 q 589 85 586 98 l 685 75 l 675 -7 q 614 -3 663 -5 q 496 0 566 0 l 476 110 m 264 278 q 199 246 222 271 q 176 184 176 221 q 203 103 176 132 q 278 75 229 75 q 399 120 347 75 q 463 232 452 164 l 463 315 l 264 278 m 318 867 q 240 914 306 876 q 150 965 174 951 l 215 1048 l 465 840 l 419 783 l 318 867 z "},"á":{"ha":701,"x_min":54,"x_max":685,"o":"m 476 110 q 387 22 450 57 q 256 -14 323 -14 q 109 34 163 -14 q 54 164 54 82 q 240 349 54 318 l 463 386 l 463 432 q 332 624 463 624 q 262 616 297 624 q 200 596 227 608 l 191 538 l 191 481 l 110 476 l 94 665 q 346 699 219 699 q 522 631 469 699 q 575 404 575 564 l 575 232 q 581 144 575 189 q 589 85 586 98 l 685 75 l 675 -7 q 614 -3 663 -5 q 496 0 566 0 l 476 110 m 264 278 q 199 246 222 271 q 176 184 176 221 q 203 103 176 132 q 278 75 229 75 q 399 120 347 75 q 463 232 452 164 l 463 315 l 264 278 m 521 965 q 431 914 497 951 q 353 867 366 876 l 252 783 l 205 840 l 456 1048 l 521 965 z "},"â":{"ha":701,"x_min":54,"x_max":685,"o":"m 476 110 q 387 22 450 57 q 256 -14 323 -14 q 109 34 163 -14 q 54 164 54 82 q 240 349 54 318 l 463 386 l 463 432 q 332 624 463 624 q 262 616 297 624 q 200 596 227 608 l 191 538 l 191 481 l 110 476 l 94 665 q 346 699 219 699 q 522 631 469 699 q 575 404 575 564 l 575 232 q 581 144 575 189 q 589 85 586 98 l 685 75 l 675 -7 q 614 -3 663 -5 q 496 0 566 0 l 476 110 m 264 278 q 199 246 222 271 q 176 184 176 221 q 203 103 176 132 q 278 75 229 75 q 399 120 347 75 q 463 232 452 164 l 463 315 l 264 278 m 521 783 l 418 868 q 394 886 410 875 q 363 909 379 897 q 348 920 355 915 q 336 928 340 925 q 325 920 332 925 q 310 909 318 916 q 278 886 293 897 q 254 868 262 875 l 151 783 l 106 828 l 336 1063 l 567 828 l 521 783 z "},"ã":{"ha":701,"x_min":54,"x_max":685,"o":"m 476 110 q 387 22 450 57 q 256 -14 323 -14 q 109 34 163 -14 q 54 164 54 82 q 240 349 54 318 l 463 386 l 463 432 q 332 624 463 624 q 262 616 297 624 q 200 596 227 608 l 191 538 l 191 481 l 110 476 l 94 665 q 346 699 219 699 q 522 631 469 699 q 575 404 575 564 l 575 232 q 581 144 575 189 q 589 85 586 98 l 685 75 l 675 -7 q 614 -3 663 -5 q 496 0 566 0 l 476 110 m 264 278 q 199 246 222 271 q 176 184 176 221 q 203 103 176 132 q 278 75 229 75 q 399 120 347 75 q 463 232 452 164 l 463 315 l 264 278 m 562 975 q 541 932 558 965 q 498 868 524 899 q 447 838 472 838 q 340 867 416 838 q 233 895 262 895 q 200 878 216 895 q 173 844 183 861 q 160 821 163 827 l 110 850 q 131 895 114 861 q 174 960 149 929 q 224 991 199 991 q 272 983 242 991 q 332 964 301 975 q 439 935 406 935 q 472 950 456 935 q 499 982 489 965 q 513 1004 510 999 l 562 975 z "},"ä":{"ha":701,"x_min":54,"x_max":685,"o":"m 476 110 q 387 22 450 57 q 256 -14 323 -14 q 109 34 163 -14 q 54 164 54 82 q 240 349 54 318 l 463 386 l 463 432 q 332 624 463 624 q 262 616 297 624 q 200 596 227 608 l 191 538 l 191 481 l 110 476 l 94 665 q 346 699 219 699 q 522 631 469 699 q 575 404 575 564 l 575 232 q 581 144 575 189 q 589 85 586 98 l 685 75 l 675 -7 q 614 -3 663 -5 q 496 0 566 0 l 476 110 m 264 278 q 199 246 222 271 q 176 184 176 221 q 203 103 176 132 q 278 75 229 75 q 399 120 347 75 q 463 232 452 164 l 463 315 l 264 278 m 172 990 q 228 969 208 990 q 248 907 248 947 q 228 847 248 868 q 172 825 208 825 q 117 847 136 825 q 97 907 97 868 q 117 968 97 945 q 172 990 136 990 m 500 990 q 556 969 536 990 q 575 907 575 947 q 556 847 575 868 q 500 825 536 825 q 445 847 464 825 q 425 907 425 868 q 445 968 425 945 q 500 990 464 990 z "},"æ":{"ha":1050,"x_min":56,"x_max":1011,"o":"m 96 665 q 347 699 221 699 q 539 608 490 699 q 747 697 621 697 q 1011 431 993 697 l 990 378 l 575 330 q 635 146 579 216 q 778 77 692 77 q 870 89 827 77 q 942 117 913 102 q 971 134 971 132 l 1010 69 q 973 45 1010 66 q 882 5 936 24 q 764 -14 828 -14 q 608 28 673 -14 q 507 147 542 69 q 257 -14 413 -14 q 110 36 164 -14 q 56 171 56 86 q 97 286 56 241 q 215 343 138 330 l 464 385 l 464 432 q 334 624 464 624 q 204 597 257 624 l 192 532 l 192 482 l 111 478 l 96 665 m 742 625 q 628 567 671 625 q 578 401 585 509 l 886 444 l 886 447 q 848 578 886 532 q 742 625 810 625 m 265 278 q 198 245 218 268 q 178 178 178 222 q 204 102 178 129 q 279 75 231 75 q 373 104 331 75 q 439 185 415 134 q 464 298 464 236 l 464 314 l 265 278 z "},"ç":{"ha":647,"x_min":56,"x_max":608,"o":"m 390 -82 q 492 -115 453 -83 q 530 -203 530 -147 q 487 -292 530 -258 q 382 -326 444 -326 q 267 -301 319 -326 l 285 -253 q 366 -268 334 -269 q 419 -251 399 -268 q 440 -203 440 -233 q 422 -158 440 -172 q 375 -143 404 -143 l 346 -144 l 330 -131 l 340 -12 q 129 92 201 -3 q 56 342 56 186 q 138 602 56 506 q 375 699 220 699 q 468 689 429 699 q 593 650 507 679 l 579 476 l 498 481 l 498 530 q 489 578 498 543 q 433 610 460 602 q 375 619 407 619 q 232 539 278 619 q 186 342 186 458 q 232 152 186 227 q 375 77 278 77 q 467 87 424 77 q 536 110 510 98 q 570 126 562 122 l 608 61 q 580 42 608 60 q 506 8 551 25 q 404 -12 460 -8 l 390 -82 z "},"è":{"ha":663,"x_min":56,"x_max":625,"o":"m 375 77 q 474 89 428 77 q 551 117 519 102 q 582 134 582 132 l 621 69 q 587 45 621 66 q 499 5 554 24 q 375 -14 444 -14 q 138 83 221 -14 q 56 340 56 179 q 133 601 56 503 q 358 699 210 699 q 625 375 625 699 l 602 329 l 186 329 q 239 151 190 224 q 375 77 288 77 m 353 627 q 235 563 273 627 q 187 400 196 498 l 496 422 l 497 450 q 460 577 497 528 q 353 627 424 627 m 345 867 q 266 914 332 876 q 176 965 200 951 l 241 1048 l 492 840 l 446 783 l 345 867 z "},"é":{"ha":663,"x_min":56,"x_max":625,"o":"m 375 77 q 474 89 428 77 q 551 117 519 102 q 582 134 582 132 l 621 69 q 587 45 621 66 q 499 5 554 24 q 375 -14 444 -14 q 138 83 221 -14 q 56 340 56 179 q 133 601 56 503 q 358 699 210 699 q 625 375 625 699 l 602 329 l 186 329 q 239 151 190 224 q 375 77 288 77 m 353 627 q 235 563 273 627 q 187 400 196 498 l 496 422 l 497 450 q 460 577 497 528 q 353 627 424 627 m 547 965 q 458 914 524 951 q 379 867 392 876 l 278 783 l 232 840 l 482 1048 l 547 965 z "},"ê":{"ha":663,"x_min":56,"x_max":625,"o":"m 375 77 q 474 89 428 77 q 551 117 519 102 q 582 134 582 132 l 621 69 q 587 45 621 66 q 499 5 554 24 q 375 -14 444 -14 q 138 83 221 -14 q 56 340 56 179 q 133 601 56 503 q 358 699 210 699 q 625 375 625 699 l 602 329 l 186 329 q 239 151 190 224 q 375 77 288 77 m 353 627 q 235 563 273 627 q 187 400 196 498 l 496 422 l 497 450 q 460 577 497 528 q 353 627 424 627 m 547 783 l 444 868 q 421 886 436 875 q 389 909 406 897 q 374 920 381 915 q 363 928 367 925 q 352 920 359 925 q 336 909 345 916 q 304 886 319 897 q 281 868 289 875 l 178 783 l 132 828 l 363 1063 l 593 828 l 547 783 z "},"ë":{"ha":663,"x_min":56,"x_max":625,"o":"m 375 77 q 474 89 428 77 q 551 117 519 102 q 582 134 582 132 l 621 69 q 587 45 621 66 q 499 5 554 24 q 375 -14 444 -14 q 138 83 221 -14 q 56 340 56 179 q 133 601 56 503 q 358 699 210 699 q 625 375 625 699 l 602 329 l 186 329 q 239 151 190 224 q 375 77 288 77 m 353 627 q 235 563 273 627 q 187 400 196 498 l 496 422 l 497 450 q 460 577 497 528 q 353 627 424 627 m 199 990 q 254 969 235 990 q 274 907 274 947 q 254 847 274 868 q 199 825 235 825 q 143 847 163 825 q 123 907 123 868 q 143 968 123 945 q 199 990 163 990 m 526 990 q 582 969 563 990 q 602 907 602 947 q 582 847 602 868 q 526 825 563 825 q 471 847 490 825 q 452 907 452 868 q 471 968 452 945 q 526 990 490 990 z "},"ð":{"ha":754,"x_min":57,"x_max":696,"o":"m 503 893 q 647 646 599 787 q 696 350 696 504 q 612 85 696 183 q 375 -14 529 -14 q 205 29 277 -14 q 95 150 134 72 q 57 328 57 228 q 95 505 57 426 q 201 627 132 583 q 358 671 269 671 q 407 665 385 671 q 456 648 429 660 l 444 586 q 371 591 408 591 q 235 516 281 591 q 189 328 189 440 q 234 140 189 215 q 375 65 279 65 q 520 145 475 65 q 566 349 566 225 q 424 852 566 672 l 252 764 l 221 812 l 385 897 q 233 1006 321 961 l 260 1063 q 460 936 374 1018 l 619 1019 l 650 968 l 503 893 z "},"ñ":{"ha":831,"x_min":32,"x_max":815,"o":"m 806 -7 q 745 -3 793 -5 q 627 0 696 0 q 548 -3 593 -1 q 485 -7 503 -5 l 478 62 l 571 85 q 585 191 585 146 l 585 383 q 441 614 585 614 q 313 549 361 614 q 264 380 265 485 l 264 232 q 268 144 264 189 q 273 85 272 98 l 382 75 l 372 -7 q 311 -3 360 -5 q 193 0 262 0 q 109 -3 157 -1 q 39 -7 60 -5 l 32 62 l 138 85 q 144 125 139 96 q 151 183 149 154 l 151 490 q 146 546 151 509 q 138 596 140 583 l 32 618 l 39 692 q 95 688 56 690 q 167 686 135 686 l 216 686 l 243 661 l 252 572 q 334 662 279 625 q 463 699 389 699 q 647 620 597 699 q 697 383 697 542 l 697 232 q 701 144 697 189 q 707 85 705 98 l 815 75 l 806 -7 m 646 975 q 624 932 642 965 q 581 868 607 899 q 530 838 555 838 q 424 867 500 838 q 317 895 346 895 q 283 878 300 895 q 256 844 267 861 q 243 821 246 827 l 193 850 q 215 895 197 861 q 257 960 232 929 q 307 991 282 991 q 355 983 326 991 q 415 964 385 975 q 522 935 489 935 q 556 950 539 935 q 583 982 572 965 q 596 1004 593 999 l 646 975 z "},"ò":{"ha":761,"x_min":61,"x_max":700,"o":"m 700 342 q 617 83 700 179 q 380 -14 534 -14 q 144 83 227 -14 q 61 342 61 179 q 144 602 61 506 q 380 699 227 699 q 618 603 537 699 q 700 342 700 507 m 570 342 q 525 541 570 463 q 380 619 481 619 q 236 541 281 619 q 192 342 192 463 q 236 143 192 221 q 380 65 281 65 q 525 143 480 65 q 570 342 570 221 m 364 867 q 286 914 352 876 q 196 965 220 951 l 261 1048 l 511 840 l 465 783 l 364 867 z "},"ó":{"ha":761,"x_min":61,"x_max":700,"o":"m 700 342 q 617 83 700 179 q 380 -14 534 -14 q 144 83 227 -14 q 61 342 61 179 q 144 602 61 506 q 380 699 227 699 q 618 603 537 699 q 700 342 700 507 m 570 342 q 525 541 570 463 q 380 619 481 619 q 236 541 281 619 q 192 342 192 463 q 236 143 192 221 q 380 65 281 65 q 525 143 480 65 q 570 342 570 221 m 567 965 q 477 914 543 951 q 399 867 412 876 l 298 783 l 252 840 l 502 1048 l 567 965 z "},"ô":{"ha":761,"x_min":61,"x_max":700,"o":"m 700 342 q 617 83 700 179 q 380 -14 534 -14 q 144 83 227 -14 q 61 342 61 179 q 144 602 61 506 q 380 699 227 699 q 618 603 537 699 q 700 342 700 507 m 570 342 q 525 541 570 463 q 380 619 481 619 q 236 541 281 619 q 192 342 192 463 q 236 143 192 221 q 380 65 281 65 q 525 143 480 65 q 570 342 570 221 m 567 783 l 464 868 q 440 886 456 875 q 409 909 425 897 q 394 920 401 915 q 382 928 387 925 q 371 920 378 925 q 356 909 364 916 q 324 886 339 897 q 300 868 309 875 l 197 783 l 152 828 l 382 1063 l 613 828 l 567 783 z "},"õ":{"ha":761,"x_min":61,"x_max":700,"o":"m 700 342 q 617 83 700 179 q 380 -14 534 -14 q 144 83 227 -14 q 61 342 61 179 q 144 602 61 506 q 380 699 227 699 q 618 603 537 699 q 700 342 700 507 m 570 342 q 525 541 570 463 q 380 619 481 619 q 236 541 281 619 q 192 342 192 463 q 236 143 192 221 q 380 65 281 65 q 525 143 480 65 q 570 342 570 221 m 608 975 q 587 932 604 965 q 544 868 570 899 q 493 838 518 838 q 387 867 463 838 q 279 895 309 895 q 246 878 262 895 q 219 844 229 861 q 206 821 209 827 l 156 850 q 177 895 160 861 q 220 960 195 929 q 270 991 245 991 q 318 983 288 991 q 378 964 347 975 q 485 935 452 935 q 518 950 502 935 q 546 982 535 965 q 559 1004 556 999 l 608 975 z "},"ö":{"ha":761,"x_min":61,"x_max":700,"o":"m 700 342 q 617 83 700 179 q 380 -14 534 -14 q 144 83 227 -14 q 61 342 61 179 q 144 602 61 506 q 380 699 227 699 q 618 603 537 699 q 700 342 700 507 m 570 342 q 525 541 570 463 q 380 619 481 619 q 236 541 281 619 q 192 342 192 463 q 236 143 192 221 q 380 65 281 65 q 525 143 480 65 q 570 342 570 221 m 218 990 q 274 969 254 990 q 294 907 294 947 q 274 847 294 868 q 218 825 254 825 q 163 847 182 825 q 143 907 143 868 q 163 968 143 945 q 218 990 182 990 m 546 990 q 602 969 583 990 q 621 907 621 947 q 602 847 621 868 q 546 825 583 825 q 491 847 510 825 q 471 907 471 868 q 491 968 471 945 q 546 990 510 990 z "},"÷":{"ha":777,"x_min":72,"x_max":704,"o":"m 399 677 q 338 653 359 677 q 317 587 317 628 q 338 523 317 547 q 399 498 359 498 q 459 523 437 498 q 481 587 481 547 q 459 654 481 630 q 399 677 437 677 m 704 296 l 704 395 l 72 387 l 72 296 l 704 296 m 399 187 q 338 162 359 187 q 317 97 317 138 q 338 33 317 57 q 399 8 359 8 q 459 33 437 8 q 481 97 481 57 q 459 163 481 140 q 399 187 437 187 z "},"ø":{"ha":749,"x_min":56,"x_max":694,"o":"m 579 636 q 665 515 636 590 q 694 342 694 440 q 612 83 694 179 q 375 -14 529 -14 q 245 8 300 -14 l 170 -138 l 115 -110 l 192 36 q 91 158 125 79 q 56 342 56 237 q 138 602 56 506 q 375 699 221 699 q 525 668 460 699 l 611 831 l 667 803 l 579 636 m 186 342 q 240 129 186 201 l 482 585 q 375 619 439 619 q 231 541 275 619 q 186 342 186 463 m 375 65 q 519 143 475 65 q 564 342 564 221 q 524 533 564 463 l 288 86 q 375 65 326 65 z "},"ù":{"ha":822,"x_min":32,"x_max":785,"o":"m 457 692 q 510 688 472 690 q 578 686 547 686 l 659 686 l 685 661 q 679 565 684 637 q 675 449 675 492 l 675 232 q 681 144 675 189 q 689 85 686 98 l 785 75 l 775 -7 q 714 -3 763 -5 q 596 0 665 0 l 578 109 q 363 -14 507 -14 q 222 24 271 -14 q 155 130 172 62 q 138 301 138 197 l 138 490 q 132 546 138 509 q 123 596 126 583 l 32 618 l 39 692 q 88 688 52 690 q 153 686 123 686 l 233 686 l 260 661 q 254 565 258 637 q 250 449 250 492 l 250 254 q 387 75 250 75 q 516 139 469 75 q 562 292 562 203 l 562 490 q 557 546 562 509 q 549 596 551 583 l 450 618 l 457 692 m 363 867 q 284 914 351 876 q 195 965 218 951 l 260 1048 l 510 840 l 464 783 l 363 867 z "},"ú":{"ha":822,"x_min":32,"x_max":785,"o":"m 457 692 q 510 688 472 690 q 578 686 547 686 l 659 686 l 685 661 q 679 565 684 637 q 675 449 675 492 l 675 232 q 681 144 675 189 q 689 85 686 98 l 785 75 l 775 -7 q 714 -3 763 -5 q 596 0 665 0 l 578 109 q 363 -14 507 -14 q 222 24 271 -14 q 155 130 172 62 q 138 301 138 197 l 138 490 q 132 546 138 509 q 123 596 126 583 l 32 618 l 39 692 q 88 688 52 690 q 153 686 123 686 l 233 686 l 260 661 q 254 565 258 637 q 250 449 250 492 l 250 254 q 387 75 250 75 q 516 139 469 75 q 562 292 562 203 l 562 490 q 557 546 562 509 q 549 596 551 583 l 450 618 l 457 692 m 565 965 q 475 914 541 951 q 397 867 410 876 l 296 783 l 250 840 l 500 1048 l 565 965 z "},"û":{"ha":822,"x_min":32,"x_max":785,"o":"m 457 692 q 510 688 472 690 q 578 686 547 686 l 659 686 l 685 661 q 679 565 684 637 q 675 449 675 492 l 675 232 q 681 144 675 189 q 689 85 686 98 l 785 75 l 775 -7 q 714 -3 763 -5 q 596 0 665 0 l 578 109 q 363 -14 507 -14 q 222 24 271 -14 q 155 130 172 62 q 138 301 138 197 l 138 490 q 132 546 138 509 q 123 596 126 583 l 32 618 l 39 692 q 88 688 52 690 q 153 686 123 686 l 233 686 l 260 661 q 254 565 258 637 q 250 449 250 492 l 250 254 q 387 75 250 75 q 516 139 469 75 q 562 292 562 203 l 562 490 q 557 546 562 509 q 549 596 551 583 l 450 618 l 457 692 m 566 783 l 463 868 q 439 886 454 875 q 408 909 424 897 q 392 920 399 915 q 381 928 385 925 q 370 920 377 925 q 355 909 363 916 q 322 886 338 897 q 299 868 307 875 l 196 783 l 151 828 l 381 1063 l 612 828 l 566 783 z "},"ü":{"ha":822,"x_min":32,"x_max":785,"o":"m 457 692 q 510 688 472 690 q 578 686 547 686 l 659 686 l 685 661 q 679 565 684 637 q 675 449 675 492 l 675 232 q 681 144 675 189 q 689 85 686 98 l 785 75 l 775 -7 q 714 -3 763 -5 q 596 0 665 0 l 578 109 q 363 -14 507 -14 q 222 24 271 -14 q 155 130 172 62 q 138 301 138 197 l 138 490 q 132 546 138 509 q 123 596 126 583 l 32 618 l 39 692 q 88 688 52 690 q 153 686 123 686 l 233 686 l 260 661 q 254 565 258 637 q 250 449 250 492 l 250 254 q 387 75 250 75 q 516 139 469 75 q 562 292 562 203 l 562 490 q 557 546 562 509 q 549 596 551 583 l 450 618 l 457 692 m 217 990 q 273 969 253 990 q 292 907 292 947 q 273 847 292 868 q 217 825 253 825 q 161 847 181 825 q 142 907 142 868 q 161 968 142 945 q 217 990 181 990 m 545 990 q 601 969 581 990 q 620 907 620 947 q 601 847 620 868 q 545 825 581 825 q 489 847 509 825 q 470 907 470 868 q 489 968 470 945 q 545 990 509 990 z "},"ý":{"ha":748,"x_min":0,"x_max":736,"o":"m 509 467 q 528 529 518 493 q 546 602 538 566 l 444 618 l 452 690 q 505 688 467 690 q 572 686 542 686 q 680 689 637 686 q 732 693 722 692 l 736 612 l 663 602 q 590 443 612 500 l 304 -326 l 81 -311 l 92 -231 l 147 -232 q 240 -218 168 -232 q 293 -123 275 -170 l 338 0 l 139 463 q 68 602 118 514 l 0 618 l 7 690 q 56 688 20 690 q 121 686 92 686 q 243 689 190 686 q 311 693 297 692 l 315 612 l 215 603 q 250 485 233 524 l 387 144 l 509 467 m 559 965 q 470 914 536 951 q 391 867 404 876 l 290 783 l 244 840 l 494 1048 l 559 965 z "},"þ":{"ha":757,"x_min":1,"x_max":701,"o":"m 8 1055 q 65 1052 25 1054 q 136 1050 104 1050 l 216 1050 l 243 1025 l 233 831 l 233 593 q 308 664 253 630 q 416 699 363 699 q 627 609 553 699 q 701 355 701 519 q 660 166 701 250 q 546 34 619 82 q 382 -14 473 -14 q 233 21 311 -14 l 233 -85 q 237 -173 233 -127 q 243 -232 241 -218 l 379 -241 l 370 -323 q 293 -319 353 -322 q 164 -317 233 -317 q 88 -319 138 -317 q 22 -323 39 -322 l 16 -254 l 107 -232 q 115 -187 110 -221 q 121 -134 121 -153 l 121 854 q 115 909 121 871 q 107 960 110 947 l 1 982 l 8 1055 m 406 614 q 281 547 329 614 q 233 380 233 481 l 233 119 q 374 69 305 69 q 524 142 472 69 q 576 353 576 215 q 533 548 576 481 q 406 614 490 614 z "},"ÿ":{"ha":748,"x_min":0,"x_max":736,"o":"m 509 467 q 528 529 518 493 q 546 602 538 566 l 444 618 l 452 690 q 505 688 467 690 q 572 686 542 686 q 680 689 637 686 q 732 693 722 692 l 736 612 l 663 602 q 590 443 612 500 l 304 -326 l 81 -311 l 92 -231 l 147 -232 q 240 -218 168 -232 q 293 -123 275 -170 l 338 0 l 139 463 q 68 602 118 514 l 0 618 l 7 690 q 56 688 20 690 q 121 686 92 686 q 243 689 190 686 q 311 693 297 692 l 315 612 l 215 603 q 250 485 233 524 l 387 144 l 509 467 m 211 990 q 267 969 247 990 q 286 907 286 947 q 267 847 286 868 q 211 825 247 825 q 155 847 175 825 q 136 907 136 868 q 155 968 136 945 q 211 990 175 990 m 538 990 q 594 969 575 990 q 614 907 614 947 q 594 847 614 868 q 538 825 575 825 q 483 847 503 825 q 464 907 464 868 q 483 968 464 945 q 538 990 503 990 z "},"Œ":{"ha":1362,"x_min":58,"x_max":1310,"o":"m 1263 -5 q 1191 -2 1242 -4 q 1104 0 1140 0 l 775 0 q 648 -5 732 0 q 514 -21 583 -21 q 264 43 367 -21 q 110 222 161 107 q 58 489 58 336 q 110 757 58 642 q 264 936 161 872 q 514 1000 367 1000 q 648 985 583 1000 q 775 979 732 979 l 1086 979 q 1163 985 1103 979 q 1244 993 1223 990 l 1271 968 l 1280 779 l 1200 772 q 1185 847 1196 806 q 1157 895 1183 861 q 1044 901 1080 901 l 863 901 q 852 747 853 810 l 852 547 l 913 545 l 1014 545 q 1059 550 1031 545 q 1097 557 1088 555 l 1109 648 l 1174 642 l 1173 530 q 1174 435 1173 477 q 1177 379 1175 393 l 1109 371 l 1097 464 q 1044 469 1084 465 q 986 472 1004 472 l 913 472 q 852 468 889 472 l 852 232 q 863 79 852 172 l 1063 79 q 1183 92 1116 79 q 1213 143 1210 127 q 1221 175 1215 157 q 1228 205 1223 189 q 1234 236 1232 221 l 1310 229 l 1289 20 l 1263 -5 m 726 827 q 633 900 686 873 q 514 926 579 926 q 345 869 414 926 q 241 712 275 811 q 207 489 207 614 q 241 267 207 366 q 345 111 275 168 q 514 53 414 53 q 634 78 581 53 q 726 150 688 103 l 726 827 z "},"œ":{"ha":1151,"x_min":56,"x_max":1112,"o":"m 846 699 q 1112 375 1112 699 l 1089 329 l 673 329 q 726 151 677 224 q 863 77 775 77 q 961 89 916 77 q 1038 117 1007 102 q 1069 134 1069 132 l 1108 69 q 1075 45 1108 66 q 987 5 1042 24 q 863 -14 932 -14 q 618 90 705 -14 q 516 13 578 40 q 375 -14 454 -14 q 138 83 221 -14 q 56 342 56 179 q 138 602 56 506 q 375 699 221 699 q 618 597 533 699 q 846 699 697 699 m 840 627 q 722 563 761 627 q 675 400 684 498 l 983 422 l 985 450 q 948 577 985 528 q 840 627 911 627 m 375 619 q 231 541 275 619 q 186 342 186 463 q 231 143 186 221 q 375 65 275 65 q 519 143 475 65 q 564 342 564 221 q 519 541 564 463 q 375 619 475 619 z "},"ƒ":{"ha":507,"x_min":-7,"x_max":557,"o":"m 45 669 l 82 681 q 157 710 135 696 l 161 829 q 231 1005 165 941 q 414 1069 296 1069 q 496 1064 450 1069 q 557 1055 543 1059 l 534 868 l 461 872 l 464 922 q 447 993 464 946 q 411 996 427 996 q 322 971 351 996 q 284 904 293 946 q 272 786 275 861 l 269 686 l 464 686 l 454 611 l 267 611 l 244 -29 q 175 -205 240 -140 q -7 -269 110 -269 l -4 -196 q 83 -171 54 -196 q 122 -103 113 -146 q 134 14 131 -61 l 154 611 l 47 611 l 45 669 z "},"ˆ":{"ha":500,"x_min":20,"x_max":481,"o":"m 435 783 l 332 868 q 308 886 323 875 q 277 909 293 897 q 261 920 269 915 q 250 928 254 925 q 239 920 246 925 q 224 909 232 916 q 192 886 207 897 q 168 868 176 875 l 65 783 l 20 828 l 250 1063 l 481 828 l 435 783 z "},"˜":{"ha":500,"x_min":24,"x_max":476,"o":"m 476 975 q 455 932 472 965 q 412 868 437 899 q 361 838 386 838 q 254 867 330 838 q 147 895 176 895 q 114 878 130 895 q 87 844 97 861 q 74 821 77 827 l 24 850 q 45 895 28 861 q 87 960 62 929 q 138 991 113 991 q 185 983 156 991 q 245 964 215 975 q 353 935 319 935 q 386 950 370 935 q 413 982 403 965 q 427 1004 424 999 l 476 975 z "},"ऀ":{"ha":0,"x_min":9,"x_max":475,"o":"m 412 970 q 253 1078 357 1078 q 117 971 151 1078 l 9 1008 q 96 1122 35 1080 q 231 1164 157 1164 q 376 1124 311 1164 q 475 1008 440 1084 l 412 970 m 269 1033 q 295 1018 278 1033 q 325 982 311 1004 q 338 937 338 961 q 325 912 338 928 q 291 884 311 896 q 246 872 270 872 q 220 887 237 872 q 190 923 203 901 q 176 968 176 944 q 190 994 176 977 q 224 1021 203 1010 q 269 1033 245 1033 z "},"ँ":{"ha":0,"x_min":18,"x_max":484,"o":"m 81 1080 q 240 972 136 972 q 376 1079 342 972 l 484 1042 q 397 928 458 970 q 262 886 336 886 q 117 926 182 886 q 18 1042 53 966 l 81 1080 m 248 1177 q 274 1163 257 1177 q 303 1127 290 1148 q 317 1082 317 1105 q 303 1056 317 1072 q 270 1028 290 1040 q 225 1017 249 1017 q 199 1031 216 1017 q 169 1067 182 1046 q 155 1112 155 1088 q 169 1138 155 1122 q 203 1166 182 1154 q 248 1177 224 1177 z "},"ं":{"ha":0,"x_min":14,"x_max":175,"o":"m 106 1084 q 132 1070 115 1084 q 162 1034 149 1055 q 175 989 175 1013 q 162 963 175 979 q 128 936 149 947 q 83 924 107 924 q 57 938 74 924 q 27 974 40 953 q 14 1019 14 996 q 27 1045 14 1029 q 61 1073 40 1061 q 106 1084 82 1084 z "},"ः":{"ha":280,"x_min":60,"x_max":221,"o":"m 151 623 q 178 609 161 623 q 208 573 195 594 q 221 528 221 551 q 208 502 221 518 q 174 474 195 486 q 129 463 153 463 q 103 477 119 463 q 73 513 86 492 q 60 558 60 534 q 73 584 60 568 q 107 611 86 600 q 151 623 127 623 m 151 251 q 178 236 161 251 q 208 200 195 222 q 221 155 221 179 q 208 130 221 146 q 174 102 195 114 q 129 90 153 90 q 103 105 119 90 q 73 141 86 119 q 60 186 60 162 q 73 211 60 195 q 107 239 86 227 q 151 251 127 251 z "},"ऄ":{"ha":1051,"x_min":53,"x_max":1079,"o":"m 921 232 l 932 -18 l 907 -39 l 799 -18 l 810 191 l 810 338 q 733 329 775 330 q 612 354 679 329 q 635 261 635 314 q 571 109 635 163 q 387 56 507 56 q 205 106 297 56 q 53 240 114 157 l 109 289 q 244 183 172 217 q 372 149 315 149 q 479 183 440 149 q 518 281 518 218 q 486 367 518 330 q 393 425 453 404 q 267 387 338 406 l 229 479 l 240 504 q 420 571 366 534 q 475 663 475 607 q 380 739 475 739 q 208 685 311 739 l 176 694 l 135 785 q 233 822 192 812 q 342 832 273 832 q 467 808 410 832 q 557 741 524 785 q 591 640 591 697 q 569 540 591 581 q 490 468 546 500 q 689 414 610 414 q 810 444 767 414 l 810 734 l 672 734 l 652 818 l 665 832 l 827 832 q 802 887 817 869 q 766 914 786 905 q 700 935 746 922 l 564 971 q 455 1019 494 989 q 370 1116 415 1048 l 351 1140 l 408 1182 q 483 1109 448 1129 q 547 1081 517 1089 q 589 1069 578 1072 l 718 1035 q 827 985 793 1013 q 880 903 861 958 q 897 832 890 872 l 1059 832 l 1079 749 l 1065 734 l 921 734 l 921 232 z "},"अ":{"ha":1051,"x_min":53,"x_max":1079,"o":"m 921 232 l 932 -18 l 907 -39 l 799 -18 l 810 191 l 810 338 q 733 329 775 330 q 612 354 679 329 q 635 261 635 314 q 571 109 635 163 q 387 56 507 56 q 205 106 297 56 q 53 240 114 157 l 109 289 q 244 183 172 217 q 372 149 315 149 q 479 183 440 149 q 518 281 518 218 q 486 367 518 330 q 393 425 453 404 q 267 387 338 406 l 229 479 l 240 504 q 420 571 366 534 q 475 663 475 607 q 380 739 475 739 q 208 685 311 739 l 176 694 l 135 785 q 233 822 192 812 q 342 832 273 832 q 467 808 410 832 q 557 741 524 785 q 591 640 591 697 q 569 540 591 581 q 490 468 546 500 q 689 414 610 414 q 810 444 767 414 l 810 734 l 672 734 l 652 818 l 665 832 l 1059 832 l 1079 749 l 1065 734 l 921 734 l 921 232 z "},"आ":{"ha":1423,"x_min":53,"x_max":1451,"o":"m 1293 232 l 1304 -18 l 1279 -39 l 1171 -18 l 1182 191 l 1182 734 l 921 734 l 921 232 l 932 -18 l 907 -39 l 799 -18 l 810 191 l 810 338 q 733 329 775 330 q 612 354 679 329 q 635 261 635 314 q 571 109 635 163 q 387 56 507 56 q 205 106 297 56 q 53 240 114 157 l 109 289 q 244 183 172 217 q 372 149 315 149 q 479 183 440 149 q 518 281 518 218 q 486 367 518 330 q 393 425 453 404 q 267 387 338 406 l 229 479 l 240 504 q 420 571 366 534 q 475 663 475 607 q 380 739 475 739 q 208 685 311 739 l 176 694 l 135 785 q 233 822 192 812 q 342 832 273 832 q 467 808 410 832 q 557 741 524 785 q 591 640 591 697 q 569 540 591 581 q 490 468 546 500 q 689 414 610 414 q 810 444 767 414 l 810 734 l 672 734 l 652 818 l 665 832 l 1430 832 l 1451 749 l 1438 734 l 1293 734 l 1293 232 z "},"इ":{"ha":764,"x_min":-21,"x_max":785,"o":"m 317 534 q 229 514 260 534 q 197 444 197 493 q 216 377 197 397 q 277 357 235 357 q 378 382 295 357 q 426 395 387 385 q 479 406 465 406 q 582 378 534 406 q 661 304 631 350 q 692 205 692 258 q 644 74 692 135 q 504 -5 596 14 q 693 -117 601 -66 l 624 -227 q 372 -9 509 -143 q 193 30 268 -1 q 111 119 118 61 l 129 157 q 216 175 170 175 q 257 172 237 175 q 382 79 346 106 q 521 127 467 86 q 575 244 575 168 q 561 290 575 275 q 514 304 546 304 q 425 285 500 304 q 304 260 334 260 q 205 288 258 260 q 117 367 153 315 q 81 484 81 418 q 285 632 81 632 l 453 632 l 453 734 l 0 734 l -21 818 l -7 832 l 764 832 l 785 749 l 771 734 l 564 734 l 564 562 l 532 534 l 317 534 z "},"ई":{"ha":764,"x_min":-21,"x_max":785,"o":"m 317 534 q 229 514 260 534 q 197 444 197 493 q 216 377 197 397 q 277 357 235 357 q 378 382 295 357 q 426 395 387 385 q 479 406 465 406 q 582 378 534 406 q 661 304 631 350 q 692 205 692 258 q 644 74 692 135 q 504 -5 596 14 q 693 -117 601 -66 l 624 -227 q 372 -9 509 -143 q 193 30 268 -1 q 111 119 118 61 l 129 157 q 216 175 170 175 q 257 172 237 175 q 382 79 346 106 q 521 127 467 86 q 575 244 575 168 q 561 290 575 275 q 514 304 546 304 q 425 285 500 304 q 304 260 334 260 q 205 288 258 260 q 117 367 153 315 q 81 484 81 418 q 285 632 81 632 l 453 632 l 453 734 l 0 734 l -21 818 l -7 832 l 764 832 l 785 749 l 771 734 l 564 734 l 564 562 l 532 534 l 317 534 m 669 1044 q 587 1061 631 1061 q 514 1036 540 1061 q 489 964 489 1011 q 545 818 489 908 l 478 818 q 424 911 441 871 q 407 990 407 951 q 452 1111 407 1068 q 581 1153 497 1153 q 659 1143 628 1153 l 681 1054 l 669 1044 z "},"उ":{"ha":719,"x_min":-41,"x_max":761,"o":"m 509 734 q 562 619 563 688 q 541 530 562 568 q 469 464 519 493 q 642 261 642 387 q 580 109 642 163 q 400 56 518 56 q 210 106 306 56 q 52 240 114 157 l 107 289 q 242 183 171 217 q 371 149 314 149 q 485 182 445 149 q 525 281 525 216 q 486 364 525 328 q 375 422 447 400 q 237 380 311 400 l 200 472 l 211 497 q 391 564 337 528 q 446 656 446 600 q 414 734 446 709 l -21 734 l -41 818 l -28 832 l 741 832 l 761 749 l 747 734 l 509 734 z "},"ऊ":{"ha":1048,"x_min":-41,"x_max":1090,"o":"m 509 734 q 562 619 562 688 q 541 530 562 568 q 469 464 519 493 q 547 421 518 440 q 732 490 629 490 q 906 432 843 490 q 970 271 970 374 q 943 154 970 210 q 857 40 916 98 l 782 113 l 782 139 q 864 310 864 227 q 839 376 864 349 q 770 404 814 404 q 702 388 741 404 q 625 336 664 371 q 642 261 642 302 q 580 109 642 163 q 400 56 518 56 q 210 106 306 56 q 52 240 114 157 l 107 289 q 242 183 171 217 q 371 149 314 149 q 485 182 445 149 q 525 281 525 216 q 486 364 525 328 q 375 422 447 400 q 237 380 311 400 l 200 472 l 211 497 q 391 564 337 528 q 446 656 446 600 q 414 734 446 709 l -21 734 l -41 818 l -28 832 l 1069 832 l 1090 749 l 1076 734 l 509 734 z "},"ऋ":{"ha":1145,"x_min":-24,"x_max":1165,"o":"m 656 407 q 742 458 703 429 q 722 561 728 515 l 768 599 q 970 513 886 591 q 848 397 937 450 q 908 316 872 355 q 999 229 943 277 l 999 203 q 885 178 922 203 q 848 104 848 154 q 867 63 848 78 q 914 49 885 49 q 1057 114 988 49 l 1100 49 q 947 -26 1034 -26 q 856 -6 899 -26 q 786 51 812 14 q 760 136 760 87 q 782 211 760 178 q 844 264 804 244 q 779 358 819 297 q 656 310 720 329 l 656 232 l 667 -18 l 642 -39 l 533 -18 l 545 191 l 545 262 l 184 22 l 122 111 q 503 343 305 213 q 393 452 437 417 q 302 488 349 488 q 225 467 264 488 q 132 395 187 447 l 56 493 q 278 583 164 583 q 414 540 353 583 q 545 416 475 497 l 545 734 l -3 734 l -24 818 l -9 832 l 1145 832 l 1165 749 l 1152 734 l 656 734 l 656 407 z "},"ऌ":{"ha":1014,"x_min":-41,"x_max":1042,"o":"m 889 86 l 890 83 q 777 59 814 83 q 741 -16 741 35 q 759 -56 741 -42 q 806 -71 777 -71 q 949 -5 880 -71 l 991 -71 q 839 -146 925 -146 q 747 -126 790 -146 q 678 -69 704 -106 q 652 17 652 -32 q 684 104 652 67 q 771 158 715 142 l 772 191 l 772 496 q 701 510 731 509 q 584 447 627 510 q 541 282 541 385 l 424 314 q 457 481 424 414 q 350 510 396 510 q 239 465 281 510 q 197 343 197 419 q 249 194 197 252 q 403 85 300 136 l 363 24 q 156 178 231 87 q 81 375 81 269 q 140 537 81 482 q 315 593 200 593 q 494 532 400 593 q 667 593 558 593 q 772 571 720 593 l 772 734 l -21 734 l -41 818 l -28 832 l 1021 832 l 1042 749 l 1028 734 l 884 734 l 884 232 l 889 86 z "},"ऍ":{"ha":732,"x_min":-53,"x_max":811,"o":"m 631 734 l 631 486 q 620 358 631 406 q 580 278 608 311 q 496 211 551 244 l 422 290 l 422 314 q 499 368 479 342 q 519 444 519 395 l 519 734 l 212 734 l 212 301 q 228 233 212 258 q 281 192 243 208 l 469 110 q 560 41 533 82 q 587 -54 587 0 q 550 -150 587 -106 l 513 -150 l 447 -104 q 489 -26 488 -63 q 428 45 489 15 l 212 147 q 102 322 101 201 l 102 734 l -32 734 l -53 818 l -39 832 l 755 832 l 777 749 l 762 734 l 631 734 m 408 1082 q 568 974 463 974 q 704 1080 669 974 l 811 1043 q 725 929 786 971 q 590 888 664 888 q 445 928 509 888 q 346 1043 380 968 l 408 1082 z "},"ऎ":{"ha":732,"x_min":-53,"x_max":777,"o":"m 631 734 l 631 486 q 620 358 631 406 q 580 278 608 311 q 496 211 551 244 l 422 290 l 422 314 q 499 368 479 342 q 519 444 519 395 l 519 734 l 212 734 l 212 301 q 228 233 212 258 q 281 192 243 208 l 469 110 q 560 41 533 82 q 587 -54 587 0 q 550 -150 587 -106 l 513 -150 l 447 -104 q 489 -26 488 -63 q 428 45 489 15 l 212 147 q 102 322 101 201 l 102 734 l -32 734 l -53 818 l -39 832 l 755 832 l 777 749 l 762 734 l 631 734 m 117 1183 q 191 1111 157 1131 q 256 1082 225 1090 q 297 1071 286 1074 l 427 1036 q 536 987 502 1014 q 589 904 570 960 q 611 806 598 878 l 541 806 q 516 880 531 856 q 479 914 501 904 q 408 936 457 924 l 272 972 q 163 1020 203 991 q 78 1117 123 1050 l 60 1141 l 117 1183 z "},"ए":{"ha":732,"x_min":-53,"x_max":777,"o":"m 631 734 l 631 486 q 620 358 631 406 q 580 278 608 311 q 496 211 551 244 l 422 290 l 422 314 q 499 368 479 342 q 519 444 519 395 l 519 734 l 212 734 l 212 301 q 228 233 212 258 q 281 192 243 208 l 469 110 q 560 41 533 82 q 587 -54 587 0 q 550 -150 587 -106 l 513 -150 l 447 -104 q 489 -26 488 -63 q 428 45 489 15 l 212 147 q 102 322 101 201 l 102 734 l -32 734 l -53 818 l -39 832 l 755 832 l 777 749 l 762 734 l 631 734 z "},"ऐ":{"ha":732,"x_min":-53,"x_max":777,"o":"m 631 734 l 631 486 q 620 358 631 406 q 580 278 608 311 q 496 211 551 244 l 422 290 l 422 314 q 499 368 479 342 q 519 444 519 395 l 519 734 l 212 734 l 212 301 q 228 233 212 258 q 281 192 243 208 l 469 110 q 560 41 533 82 q 587 -54 587 0 q 550 -150 587 -106 l 513 -150 l 447 -104 q 489 -26 488 -63 q 428 45 489 15 l 212 147 q 102 322 101 201 l 102 734 l -32 734 l -53 818 l -39 832 l 755 832 l 777 749 l 762 734 l 631 734 m 132 1145 q 194 1162 159 1156 q 257 1168 229 1168 q 394 1121 332 1168 q 504 1000 456 1074 q 607 819 553 926 l 533 819 q 399 1003 461 940 q 268 1065 338 1065 q 192 1046 231 1065 l 132 1145 z "},"ऑ":{"ha":1423,"x_min":53,"x_max":1475,"o":"m 1293 232 l 1304 -18 l 1279 -39 l 1171 -18 l 1182 191 l 1182 734 l 921 734 l 921 232 l 932 -18 l 907 -39 l 799 -18 l 810 191 l 810 338 q 733 329 775 330 q 612 354 679 329 q 635 261 635 314 q 571 109 635 163 q 387 56 507 56 q 205 106 297 56 q 53 240 114 157 l 109 289 q 244 183 172 217 q 372 149 315 149 q 479 183 440 149 q 518 281 518 218 q 486 367 518 330 q 393 425 453 404 q 267 387 338 406 l 229 479 l 240 504 q 420 571 366 534 q 475 663 475 607 q 380 739 475 739 q 208 685 311 739 l 176 694 l 135 785 q 233 822 192 812 q 342 832 273 832 q 467 808 410 832 q 557 741 524 785 q 591 640 591 697 q 569 540 591 581 q 490 468 546 500 q 689 414 610 414 q 810 444 767 414 l 810 734 l 672 734 l 652 818 l 665 832 l 1430 832 l 1451 749 l 1438 734 l 1293 734 l 1293 232 m 1072 1080 q 1232 972 1127 972 q 1368 1079 1333 972 l 1475 1042 q 1389 928 1450 970 q 1254 886 1328 886 q 1109 926 1173 886 q 1010 1042 1044 966 l 1072 1080 z "},"ऒ":{"ha":1423,"x_min":53,"x_max":1451,"o":"m 1293 232 l 1304 -18 l 1279 -39 l 1171 -18 l 1182 191 l 1182 734 l 921 734 l 921 232 l 932 -18 l 907 -39 l 799 -18 l 810 191 l 810 338 q 733 329 775 330 q 612 354 679 329 q 635 261 635 314 q 571 109 635 163 q 387 56 507 56 q 205 106 297 56 q 53 240 114 157 l 109 289 q 244 183 172 217 q 372 149 315 149 q 479 183 440 149 q 518 281 518 218 q 486 367 518 330 q 393 425 453 404 q 267 387 338 406 l 229 479 l 240 504 q 420 571 366 534 q 475 663 475 607 q 380 739 475 739 q 208 685 311 739 l 176 694 l 135 785 q 233 822 192 812 q 342 832 273 832 q 467 808 410 832 q 557 741 524 785 q 591 640 591 697 q 569 540 591 581 q 490 468 546 500 q 689 414 610 414 q 810 444 767 414 l 810 734 l 672 734 l 652 818 l 665 832 l 1198 832 q 1174 887 1189 869 q 1138 914 1158 905 q 1072 935 1118 922 l 936 971 q 827 1019 867 989 q 742 1116 787 1048 l 724 1140 l 781 1182 q 855 1109 821 1129 q 920 1081 889 1089 q 961 1069 950 1072 l 1090 1035 q 1200 985 1166 1013 q 1253 903 1234 958 q 1270 832 1262 872 l 1430 832 l 1451 749 l 1438 734 l 1293 734 l 1293 232 z "},"ओ":{"ha":1423,"x_min":53,"x_max":1451,"o":"m 1293 232 l 1304 -18 l 1279 -39 l 1171 -18 l 1182 191 l 1182 734 l 921 734 l 921 232 l 932 -18 l 907 -39 l 799 -18 l 810 191 l 810 338 q 733 329 775 330 q 612 354 679 329 q 635 261 635 314 q 571 109 635 163 q 387 56 507 56 q 205 106 297 56 q 53 240 114 157 l 109 289 q 244 183 172 217 q 372 149 315 149 q 479 183 440 149 q 518 281 518 218 q 486 367 518 330 q 393 425 453 404 q 267 387 338 406 l 229 479 l 240 504 q 420 571 366 534 q 475 663 475 607 q 380 739 475 739 q 208 685 311 739 l 176 694 l 135 785 q 233 822 192 812 q 342 832 273 832 q 467 808 410 832 q 557 741 524 785 q 591 640 591 697 q 569 540 591 581 q 490 468 546 500 q 689 414 610 414 q 810 444 767 414 l 810 734 l 672 734 l 652 818 l 665 832 l 1189 832 q 1060 1005 1120 946 q 932 1064 1000 1064 q 856 1044 895 1064 l 796 1143 q 859 1160 824 1154 q 921 1166 893 1166 q 1104 1079 1025 1166 q 1264 832 1182 991 l 1430 832 l 1451 749 l 1438 734 l 1293 734 l 1293 232 z "},"औ":{"ha":1423,"x_min":53,"x_max":1451,"o":"m 1293 232 l 1304 -18 l 1279 -39 l 1171 -18 l 1182 191 l 1182 734 l 921 734 l 921 232 l 932 -18 l 907 -39 l 799 -18 l 810 191 l 810 338 q 733 329 775 330 q 612 354 679 329 q 635 261 635 314 q 571 109 635 163 q 387 56 507 56 q 205 106 297 56 q 53 240 114 157 l 109 289 q 244 183 172 217 q 372 149 315 149 q 479 183 440 149 q 518 281 518 218 q 486 367 518 330 q 393 425 453 404 q 267 387 338 406 l 229 479 l 240 504 q 420 571 366 534 q 475 663 475 607 q 380 739 475 739 q 208 685 310 739 l 176 694 l 135 785 q 233 822 192 812 q 342 832 273 832 q 467 808 410 832 q 557 741 524 785 q 591 640 591 697 q 569 540 591 581 q 490 468 546 500 q 689 414 610 414 q 810 444 767 414 l 810 734 l 672 734 l 652 818 l 665 832 l 1189 832 q 1136 887 1189 852 q 1016 951 1083 922 q 909 979 949 979 q 831 957 865 979 l 783 1040 q 893 1071 847 1071 q 1143 951 998 1071 q 1011 1092 1076 1043 q 893 1140 946 1140 q 832 1128 861 1140 l 785 1223 q 890 1235 832 1237 q 1082 1131 992 1235 q 1265 832 1173 1026 l 1430 832 l 1451 749 l 1438 734 l 1293 734 l 1293 232 z "},"क":{"ha":1147,"x_min":-21,"x_max":1168,"o":"m 616 488 q 829 583 708 583 q 1004 525 941 583 q 1067 364 1067 467 q 1020 205 1067 281 q 867 50 972 129 l 791 122 l 791 149 q 961 403 961 275 q 936 469 961 441 q 867 497 911 497 q 791 476 835 497 q 701 409 747 454 q 616 292 654 363 l 616 232 l 628 -18 l 603 -39 l 494 -18 l 505 189 q 330 138 423 138 q 203 170 261 138 q 112 256 146 201 q 78 375 78 310 q 138 537 78 482 q 313 593 197 593 q 505 538 407 593 l 505 734 l 0 734 l -21 818 l -7 832 l 1147 832 l 1168 749 l 1154 734 l 616 734 l 616 488 m 310 224 q 407 254 361 224 q 505 349 453 285 l 505 464 q 423 497 465 485 q 347 510 380 510 q 236 465 278 510 q 195 343 195 419 q 310 224 195 224 z "},"ख":{"ha":1127,"x_min":-41,"x_max":1156,"o":"m 997 232 l 1008 -18 l 983 -39 l 875 -18 l 886 191 l 886 222 q 700 170 802 170 q 573 199 631 170 q 481 280 515 229 q 447 393 447 332 q 507 535 447 486 q 682 583 567 583 q 886 524 779 583 l 886 734 l 349 734 q 393 567 393 650 q 346 401 393 474 q 208 286 298 329 q 494 58 297 147 l 431 -47 q 211 138 314 18 q 61 389 109 258 l 138 471 l 212 435 q 293 621 293 500 q 271 734 293 672 l -21 734 l -41 818 l -28 832 l 1135 832 l 1156 749 l 1141 734 l 997 734 l 997 232 m 679 256 q 886 379 803 256 l 886 450 q 799 487 845 474 q 717 500 753 500 q 606 463 648 500 q 564 361 564 425 q 595 284 564 312 q 679 256 627 256 z "},"ग":{"ha":794,"x_min":-41,"x_max":822,"o":"m 664 232 l 675 -18 l 650 -39 l 542 -18 l 553 191 l 553 734 l 301 734 q 309 557 308 661 q 295 340 309 440 q 253 187 282 240 q 164 219 205 187 q 97 297 122 250 q 75 382 72 343 l 98 414 q 142 424 112 419 q 193 429 172 428 q 204 549 204 488 q 180 734 204 635 l -21 734 l -41 818 l -28 832 l 802 832 l 822 749 l 808 734 l 664 734 l 664 232 z "},"घ":{"ha":840,"x_min":-40,"x_max":868,"o":"m 710 232 l 721 -18 l 696 -39 l 587 -18 l 599 191 l 599 195 q 371 109 507 109 q 175 167 248 109 q 102 325 102 225 q 192 479 102 416 q 123 550 147 509 q 98 640 98 591 q 125 734 98 689 l -20 734 l -40 818 l -26 832 l 847 832 l 868 749 l 854 734 l 710 734 l 710 232 m 288 734 q 235 681 254 712 q 216 614 216 650 q 262 517 216 555 q 408 553 326 542 l 444 465 l 431 437 q 273 387 323 420 q 222 300 222 354 q 255 221 222 250 q 343 192 288 192 q 480 235 417 192 q 599 368 543 278 l 599 734 l 288 734 z "},"ङ":{"ha":850,"x_min":-21,"x_max":871,"o":"m 857 734 l 608 734 l 608 562 l 576 534 l 361 534 q 273 514 304 534 q 241 444 241 493 q 260 377 241 397 q 321 357 279 357 q 422 382 339 357 q 471 395 432 385 q 524 406 510 406 q 626 378 578 406 q 705 304 675 350 q 736 205 736 258 q 706 107 736 154 q 616 30 676 60 q 471 0 557 0 q 60 168 223 0 l 107 216 q 266 125 184 153 q 421 97 347 97 q 563 131 506 97 q 619 244 619 165 q 605 290 619 275 q 558 304 590 304 q 469 285 545 304 q 349 260 378 260 q 250 288 302 260 q 161 367 197 315 q 125 484 125 418 q 329 632 125 632 l 497 632 l 497 734 l 0 734 l -21 818 l -7 832 l 850 832 l 871 749 l 857 734 m 751 555 q 778 541 761 555 q 807 505 794 526 q 821 460 821 484 q 807 434 821 450 q 773 406 794 418 q 729 395 753 395 q 703 409 720 395 q 673 445 686 424 q 660 490 660 467 q 673 516 660 500 q 707 544 686 532 q 751 555 728 555 z "},"च":{"ha":823,"x_min":-41,"x_max":851,"o":"m 693 232 l 704 -18 l 679 -39 l 571 -18 l 582 191 l 582 225 q 382 164 492 164 q 254 192 311 164 q 165 268 197 220 q 134 375 134 315 q 168 505 134 452 q 17 496 65 500 l -7 593 l 395 593 l 416 510 q 296 466 341 510 q 250 347 250 421 q 285 277 250 304 q 374 249 319 249 q 486 283 429 249 q 582 379 542 318 l 582 734 l -21 734 l -41 818 l -28 832 l 831 832 l 851 749 l 838 734 l 693 734 l 693 232 z "},"छ":{"ha":997,"x_min":-21,"x_max":1018,"o":"m 760 633 q 870 551 830 610 q 911 410 911 492 q 792 129 911 231 q 458 28 673 28 q 203 100 300 28 q 106 300 106 172 q 127 394 106 347 q 197 478 149 440 q 126 551 150 509 q 103 640 103 593 q 129 734 103 692 l 0 734 l -21 818 l -7 832 l 997 832 l 1018 749 l 1004 734 l 760 734 l 760 633 m 290 734 q 239 680 257 712 q 221 614 221 648 q 267 517 221 557 q 412 555 322 543 l 449 468 l 435 440 q 279 380 332 418 q 227 275 227 343 q 282 153 227 195 q 431 111 338 111 q 622 152 539 111 q 749 267 704 193 q 794 435 794 340 q 767 528 794 490 q 696 566 741 566 q 644 539 661 566 q 627 473 627 513 q 640 413 627 446 q 673 363 653 380 l 632 319 q 555 405 586 354 q 511 504 524 456 q 555 602 518 564 q 648 646 591 640 l 648 734 l 290 734 z "},"ज":{"ha":986,"x_min":-41,"x_max":1014,"o":"m 856 232 l 867 -18 l 842 -39 l 733 -18 l 745 191 l 745 486 q 541 481 592 484 q 620 393 592 445 q 648 278 648 340 q 596 163 648 206 q 456 119 545 119 q 233 219 330 119 q 60 524 136 319 l 135 545 q 412 220 264 220 q 499 245 469 220 q 529 319 529 271 q 487 427 529 380 q 374 490 444 473 l 353 557 l 374 582 q 745 576 530 582 l 745 734 l -21 734 l -41 818 l -28 832 l 993 832 l 1014 749 l 1000 734 l 856 734 l 856 232 z "},"झ":{"ha":1139,"x_min":-21,"x_max":1166,"o":"m 1008 232 l 1019 -18 l 994 -39 l 886 -18 l 897 191 l 897 256 q 812 245 859 246 q 676 277 755 245 q 692 205 692 242 q 644 74 692 135 q 504 -5 596 14 q 693 -117 601 -66 l 624 -227 q 372 -9 509 -143 q 193 30 268 -1 q 111 119 118 61 l 129 157 q 216 175 170 175 q 257 172 237 175 q 382 79 346 106 q 521 127 467 86 q 575 244 575 168 q 561 290 575 275 q 514 304 546 304 q 425 285 500 304 q 304 260 334 260 q 205 288 258 260 q 117 367 153 315 q 81 484 81 418 q 285 632 81 632 l 453 632 l 453 734 l 0 734 l -21 818 l -7 832 l 1146 832 l 1166 749 l 1153 734 l 1008 734 l 1008 232 m 564 734 l 564 562 l 532 534 l 317 534 q 229 514 260 534 q 197 444 197 493 q 216 377 197 397 q 277 357 235 357 q 378 382 295 357 q 426 395 387 385 q 479 406 465 406 q 567 386 524 406 q 675 345 623 359 q 768 330 728 330 q 897 367 853 330 l 897 734 l 564 734 z "},"ञ":{"ha":1105,"x_min":-41,"x_max":1133,"o":"m 975 232 l 986 -18 l 961 -39 l 852 -18 l 864 191 l 864 307 q 833 306 854 306 q 726 326 785 306 q 664 176 724 228 q 496 123 604 123 q 252 229 368 123 q 58 521 136 334 l 129 545 q 280 312 197 395 q 447 229 364 229 q 610 386 610 229 q 573 477 610 446 q 473 509 536 509 q 346 465 404 509 l 301 570 q 450 607 370 607 q 623 550 547 607 q 720 399 699 493 q 789 390 757 391 q 864 401 830 390 l 864 734 l -21 734 l -41 818 l -28 832 l 1112 832 l 1133 749 l 1120 734 l 975 734 l 975 232 z "},"ट":{"ha":747,"x_min":-41,"x_max":789,"o":"m 386 503 q 244 453 294 503 q 195 315 195 404 q 247 190 195 237 q 385 143 298 143 q 508 164 452 143 q 596 221 564 184 l 686 132 q 425 45 606 45 q 251 88 328 45 q 129 206 174 131 q 85 375 85 281 q 156 542 85 484 q 359 600 227 600 l 503 600 l 503 734 l -21 734 l -41 818 l -28 832 l 768 832 l 789 749 l 775 734 l 614 734 l 614 521 l 596 503 l 386 503 z "},"ठ":{"ha":819,"x_min":-41,"x_max":861,"o":"m 608 551 q 707 437 673 501 q 741 302 741 374 q 658 111 741 178 q 419 45 575 45 q 245 88 322 45 q 124 206 168 131 q 79 375 79 281 q 150 539 79 484 q 354 595 221 595 l 497 595 l 497 734 l -21 734 l -41 818 l -28 832 l 840 832 l 861 749 l 847 734 l 608 734 l 608 551 m 379 143 q 509 166 452 143 q 600 231 567 189 q 632 325 632 272 q 612 418 632 374 q 557 497 593 463 l 380 497 q 239 451 289 497 q 189 315 189 404 q 241 190 189 237 q 379 143 293 143 z "},"ड":{"ha":808,"x_min":-21,"x_max":829,"o":"m 361 534 q 273 514 304 534 q 241 444 241 493 q 260 377 241 397 q 321 357 279 357 q 422 382 339 357 q 471 395 432 385 q 524 406 510 406 q 626 378 578 406 q 705 304 675 350 q 736 205 736 258 q 706 107 736 154 q 616 30 676 60 q 471 0 557 0 q 60 168 223 0 l 107 216 q 266 125 184 153 q 421 97 347 97 q 563 131 506 97 q 619 244 619 165 q 605 290 619 275 q 558 304 590 304 q 469 285 545 304 q 349 260 378 260 q 250 288 302 260 q 161 367 197 315 q 125 484 125 418 q 329 632 125 632 l 497 632 l 497 734 l 0 734 l -21 818 l -7 832 l 808 832 l 829 749 l 815 734 l 608 734 l 608 562 l 576 534 l 361 534 z "},"ढ":{"ha":786,"x_min":-41,"x_max":828,"o":"m 379 534 q 249 489 296 534 q 201 364 201 444 q 231 240 201 295 q 310 153 260 184 q 425 122 361 122 q 371 213 393 161 q 342 318 349 265 q 398 399 353 368 q 509 431 444 431 q 662 381 602 431 q 722 256 722 332 q 647 101 722 157 q 440 45 571 45 q 258 90 340 45 q 130 214 176 135 q 83 392 83 293 q 372 632 83 632 l 494 632 l 494 734 l -21 734 l -41 818 l -28 832 l 807 832 l 828 749 l 814 734 l 606 734 l 606 564 l 582 534 l 379 534 m 534 353 q 478 330 498 353 q 458 267 458 307 q 470 199 458 235 q 501 132 482 163 q 578 183 551 148 q 606 271 606 218 q 586 330 606 308 q 534 353 567 353 z "},"ण":{"ha":980,"x_min":-41,"x_max":1008,"o":"m 850 232 l 861 -18 l 836 -39 l 728 -18 l 739 191 l 739 734 l 550 734 l 551 419 q 494 250 551 309 q 334 191 437 191 q 212 222 266 191 q 129 309 158 254 q 100 432 100 364 l 102 734 l -21 734 l -41 818 l -28 832 l 987 832 l 1008 749 l 994 734 l 850 734 l 850 232 m 212 734 l 211 406 q 237 310 211 339 q 315 281 262 281 q 404 323 367 281 q 440 432 440 366 l 439 734 l 212 734 z "},"त":{"ha":779,"x_min":-41,"x_max":807,"o":"m 648 232 l 660 -18 l 635 -39 l 526 -18 l 538 191 l 538 454 l 349 454 q 237 419 275 454 q 199 329 199 385 q 241 198 199 268 q 357 74 283 127 l 304 24 q 140 199 200 104 q 81 375 81 293 q 140 503 81 454 q 317 551 200 551 l 538 551 l 538 734 l -21 734 l -41 818 l -28 832 l 786 832 l 807 749 l 793 734 l 648 734 l 648 232 z "},"थ":{"ha":847,"x_min":72,"x_max":875,"o":"m 717 232 l 728 -18 l 703 -39 l 595 -18 l 606 191 l 606 212 q 432 161 524 161 q 211 235 301 161 q 89 440 121 309 l 111 479 q 282 556 228 509 q 336 676 336 604 q 316 737 336 712 q 261 762 296 762 q 207 743 227 762 q 187 694 187 724 q 232 619 187 647 l 204 567 q 112 631 143 592 q 72 733 81 671 q 129 814 83 783 q 239 846 175 846 q 349 820 300 846 q 425 750 397 794 q 453 657 453 707 q 388 493 453 562 q 204 383 322 424 q 275 290 221 328 q 397 253 329 253 q 509 283 454 253 q 606 368 564 314 l 606 734 l 468 734 l 447 818 l 461 832 l 854 832 l 875 749 l 861 734 l 717 734 l 717 232 z "},"द":{"ha":783,"x_min":-41,"x_max":825,"o":"m 376 507 q 245 464 292 507 q 199 343 199 421 q 224 238 199 285 q 295 163 250 191 q 396 136 340 136 q 510 172 458 136 q 479 281 488 236 l 522 321 q 633 300 579 321 q 711 249 686 279 q 616 127 675 174 q 675 57 642 92 q 757 -22 708 22 q 779 -45 757 -22 l 685 -126 q 546 85 606 -39 q 424 58 489 58 q 250 99 328 58 q 126 212 171 140 q 81 371 81 283 q 370 604 81 604 l 492 604 l 492 734 l -21 734 l -41 818 l -28 832 l 804 832 l 825 749 l 811 734 l 603 734 l 603 536 l 579 507 l 376 507 z "},"ध":{"ha":907,"x_min":49,"x_max":935,"o":"m 777 232 l 787 -18 l 762 -39 l 654 -18 l 665 178 q 535 109 608 133 q 389 85 463 85 q 258 110 318 85 q 162 183 199 135 q 126 297 126 231 q 203 450 126 390 q 87 535 126 478 q 49 654 49 591 q 70 739 49 694 q 142 814 92 783 q 272 846 192 846 q 395 805 350 846 q 440 711 440 765 q 386 609 440 652 q 231 566 332 566 q 179 568 212 566 q 267 488 205 511 q 433 532 334 518 l 469 444 l 456 416 q 297 363 347 394 q 248 265 248 332 q 278 197 248 220 q 357 174 309 174 q 524 227 435 174 q 665 368 614 281 l 665 734 l 528 734 l 507 818 l 521 832 l 914 832 l 935 749 l 921 734 l 777 734 l 777 232 m 293 762 q 204 722 241 762 q 167 628 167 681 l 167 616 q 293 655 245 622 q 340 730 340 689 q 326 754 340 746 q 293 762 311 762 z "},"न":{"ha":804,"x_min":-21,"x_max":832,"o":"m 673 232 l 685 -18 l 660 -39 l 551 -18 l 562 191 l 562 336 q 271 323 368 331 q 212 187 252 256 q 132 220 165 187 q 82 300 98 253 q 65 386 65 347 l 89 418 q 198 430 138 427 q 396 433 258 433 q 562 429 477 433 l 562 734 l 0 734 l -21 818 l -7 832 l 811 832 l 832 749 l 818 734 l 673 734 l 673 232 z "},"ऩ":{"ha":804,"x_min":-21,"x_max":832,"o":"m 673 232 l 685 -18 l 660 -39 l 551 -18 l 562 191 l 562 336 q 271 323 368 331 q 212 187 252 256 q 132 220 165 187 q 82 300 98 253 q 65 386 65 347 l 89 418 q 198 430 138 427 q 396 433 258 433 q 562 429 477 433 l 562 734 l 0 734 l -21 818 l -7 832 l 811 832 l 832 749 l 818 734 l 673 734 l 673 232 m 257 111 q 284 97 267 111 q 314 61 300 82 q 327 16 327 39 q 314 -10 327 6 q 279 -38 300 -26 q 235 -50 258 -50 q 209 -35 225 -50 q 179 1 192 -20 q 165 46 165 22 q 179 72 165 56 q 213 99 192 87 q 257 111 233 111 z "},"प":{"ha":755,"x_min":-21,"x_max":783,"o":"m 625 232 l 636 -18 l 611 -39 l 503 -18 l 514 191 l 514 225 q 363 186 449 186 q 173 255 243 186 q 102 440 102 325 l 102 734 l 0 734 l -21 818 l -7 832 l 762 832 l 783 749 l 770 734 l 625 734 l 625 232 m 218 734 l 218 386 q 302 272 218 272 q 416 301 368 272 q 514 383 465 330 l 514 734 l 218 734 z "},"फ":{"ha":1129,"x_min":-21,"x_max":1171,"o":"m 625 496 q 829 583 715 583 q 1004 525 941 583 q 1067 364 1067 467 q 1020 205 1067 281 q 867 50 972 129 l 791 122 l 791 149 q 961 403 961 276 q 936 469 961 441 q 867 497 911 497 q 748 450 817 497 q 625 307 679 403 l 625 232 l 636 -18 l 611 -39 l 503 -18 l 514 191 l 514 225 q 363 186 449 186 q 173 255 243 186 q 102 440 102 325 l 102 734 l 0 734 l -21 818 l -7 832 l 1150 832 l 1171 749 l 1157 734 l 625 734 l 625 496 m 218 734 l 218 386 q 302 272 218 272 q 416 301 368 272 q 514 383 465 330 l 514 734 l 218 734 z "},"ब":{"ha":760,"x_min":-41,"x_max":787,"o":"m 629 232 l 640 -18 l 615 -39 l 507 -18 l 518 191 q 343 138 437 138 q 208 170 269 138 q 112 256 147 201 q 77 375 77 310 q 140 537 77 482 q 325 593 203 593 q 518 541 416 593 l 518 734 l -21 734 l -41 818 l -28 832 l 766 832 l 787 749 l 774 734 l 629 734 l 629 232 m 359 510 q 300 501 328 509 l 486 301 q 518 343 506 322 l 518 465 q 437 498 479 486 q 359 510 395 510 m 322 224 q 416 245 369 223 l 227 450 q 193 343 193 409 q 228 256 193 288 q 322 224 262 224 z "},"भ":{"ha":848,"x_min":56,"x_max":876,"o":"m 718 232 l 729 -18 l 704 -39 l 596 -18 l 607 191 l 607 335 q 340 323 479 334 q 279 187 315 247 q 199 220 232 187 q 149 300 165 253 q 132 386 132 347 l 155 418 q 249 429 205 427 q 297 661 298 585 q 276 729 297 709 q 225 749 254 749 q 184 733 199 749 q 170 694 170 718 q 182 651 170 672 q 215 619 195 631 l 187 567 q 95 631 126 592 q 56 733 64 671 q 103 817 68 789 q 184 846 138 846 q 292 808 243 846 q 368 715 340 771 q 395 610 395 660 q 371 433 395 534 l 463 433 l 607 431 l 607 734 l 469 734 l 449 818 l 463 832 l 856 832 l 876 749 l 863 734 l 718 734 l 718 232 z "},"म":{"ha":858,"x_min":-28,"x_max":886,"o":"m 728 232 l 739 -18 l 714 -39 l 606 -18 l 616 191 l 616 336 q 583 335 594 336 q 271 323 428 332 q 212 187 252 256 q 132 220 165 187 q 82 300 98 253 q 65 386 65 347 l 89 418 q 174 429 121 425 q 184 549 184 488 q 161 734 184 635 l -7 734 l -28 818 l -14 832 l 865 832 l 886 749 l 872 734 l 728 734 l 728 232 m 282 734 q 289 557 289 661 q 285 433 289 493 l 396 433 q 616 429 509 433 l 616 734 l 282 734 z "},"य":{"ha":777,"x_min":-41,"x_max":806,"o":"m 647 232 l 659 -18 l 633 -39 l 525 -18 l 536 191 l 536 195 q 395 161 466 161 q 174 235 264 161 q 52 440 83 309 l 74 479 q 180 521 142 492 q 218 595 218 550 q 135 734 218 663 l -21 734 l -41 818 l -28 832 l 785 832 l 806 749 l 791 734 l 647 734 l 647 232 m 237 734 q 336 555 336 643 q 296 455 339 500 q 167 383 253 410 q 238 290 184 328 q 359 253 292 253 q 451 274 406 253 q 536 332 497 294 l 536 734 l 237 734 z "},"र":{"ha":545,"x_min":-41,"x_max":587,"o":"m 349 734 q 393 567 393 650 q 346 401 393 474 q 208 286 298 329 q 494 58 297 147 l 431 -47 q 211 138 314 18 q 61 389 109 258 l 138 471 l 212 435 q 293 621 293 500 q 271 734 293 672 l -21 734 l -41 818 l -28 832 l 567 832 l 587 749 l 574 734 l 349 734 z "},"ऱ":{"ha":545,"x_min":-41,"x_max":587,"o":"m 349 734 q 393 567 393 650 q 346 401 393 474 q 208 286 298 329 q 494 58 297 147 l 431 -47 q 211 138 314 18 q 61 389 109 258 l 138 471 l 212 435 q 293 621 293 500 q 271 734 293 672 l -21 734 l -41 818 l -28 832 l 567 832 l 587 749 l 574 734 l 349 734 m 113 86 q 139 72 123 86 q 169 36 156 57 q 182 -9 182 14 q 169 -35 182 -19 q 135 -63 156 -51 q 90 -75 114 -75 q 64 -60 81 -75 q 34 -24 47 -45 q 21 21 21 -3 q 34 46 21 31 q 68 74 47 62 q 113 86 89 86 z "},"ल":{"ha":1014,"x_min":-41,"x_max":1042,"o":"m 884 232 l 895 -18 l 869 -39 l 761 -18 l 772 191 l 772 496 q 701 510 731 509 q 584 447 627 510 q 541 282 541 385 l 424 314 q 457 481 424 414 q 350 510 396 510 q 239 465 281 510 q 197 343 197 419 q 249 194 197 252 q 403 85 300 136 l 363 24 q 156 178 231 87 q 81 375 81 269 q 140 537 81 482 q 315 593 200 593 q 494 532 400 593 q 667 593 558 593 q 772 571 720 593 l 772 734 l -21 734 l -41 818 l -28 832 l 1021 832 l 1042 749 l 1028 734 l 884 734 l 884 232 z "},"ळ":{"ha":1037,"x_min":-21,"x_max":1059,"o":"m 802 578 q 915 486 871 550 q 960 346 960 422 q 903 182 960 241 q 743 123 847 123 q 633 150 690 123 q 507 225 575 176 q 319 123 437 123 q 199 158 254 123 q 111 249 143 192 q 78 371 78 306 q 134 534 78 475 q 294 593 191 593 q 532 503 401 593 q 690 591 591 583 l 690 734 l 0 734 l -21 818 l -7 832 l 1038 832 l 1059 749 l 1044 734 l 802 734 l 802 578 m 290 210 q 485 416 399 210 q 500 450 489 427 q 336 510 407 510 q 233 458 271 510 q 195 336 195 407 q 219 247 195 283 q 290 210 244 210 m 843 380 q 818 470 843 433 q 747 507 793 507 q 553 314 631 507 q 538 278 547 297 q 701 207 641 208 q 805 258 766 207 q 843 380 843 310 z "},"ऴ":{"ha":1037,"x_min":-21,"x_max":1059,"o":"m 802 578 q 915 486 871 550 q 960 346 960 422 q 903 182 960 241 q 743 123 847 123 q 633 150 690 123 q 507 225 575 176 q 319 123 437 123 q 199 158 254 123 q 111 249 143 192 q 78 371 78 306 q 134 534 78 475 q 294 593 191 593 q 532 503 401 593 q 690 591 591 583 l 690 734 l 0 734 l -21 818 l -7 832 l 1038 832 l 1059 749 l 1044 734 l 802 734 l 802 578 m 290 210 q 485 416 399 210 q 500 450 489 427 q 336 510 407 510 q 233 458 271 510 q 195 336 195 407 q 219 247 195 283 q 290 210 244 210 m 843 380 q 818 470 843 433 q 747 507 793 507 q 553 314 631 507 q 538 278 547 297 q 701 207 641 208 q 805 258 766 207 q 843 380 843 310 m 541 133 q 567 118 551 133 q 597 82 584 104 q 610 37 610 61 q 597 12 610 28 q 563 -16 584 -4 q 518 -28 542 -28 q 492 -13 509 -28 q 462 23 475 1 q 449 68 449 44 q 462 93 449 77 q 496 121 475 109 q 541 133 517 133 z "},"व":{"ha":760,"x_min":-41,"x_max":787,"o":"m 629 232 l 640 -18 l 615 -39 l 507 -18 l 518 191 q 343 138 437 138 q 208 170 269 138 q 112 256 147 201 q 77 375 77 310 q 140 537 77 482 q 325 593 203 593 q 518 541 416 593 l 518 734 l -21 734 l -41 818 l -28 832 l 766 832 l 787 749 l 774 734 l 629 734 l 629 232 m 322 224 q 518 343 439 224 l 518 465 q 437 498 479 486 q 359 510 395 510 q 239 465 284 510 q 193 343 193 419 q 228 256 193 288 q 322 224 262 224 z "},"श":{"ha":1005,"x_min":57,"x_max":1034,"o":"m 875 232 l 886 -18 l 861 -39 l 753 -18 l 764 191 l 764 734 l 627 734 l 606 818 l 620 832 l 1013 832 l 1034 749 l 1019 734 l 875 734 l 875 232 m 354 212 q 629 8 461 80 l 566 -97 q 404 24 484 -51 q 267 186 325 98 l 265 186 q 142 220 204 186 q 57 301 79 254 l 74 355 q 168 382 127 382 q 237 371 201 382 q 294 300 272 334 q 398 381 354 326 q 467 502 443 436 q 490 627 490 567 q 465 726 490 688 q 387 764 439 764 q 323 733 350 764 q 296 664 296 703 q 316 602 296 628 q 378 551 336 575 l 349 497 q 233 578 275 529 q 179 703 192 628 q 239 809 187 772 q 363 846 290 846 q 541 775 475 846 q 606 589 606 704 q 539 371 606 475 q 354 212 473 268 z "},"ष":{"ha":755,"x_min":-21,"x_max":783,"o":"m 625 232 l 636 -18 l 611 -39 l 503 -18 l 514 191 l 514 225 q 363 186 449 186 q 173 255 243 186 q 102 440 102 325 l 102 734 l 0 734 l -21 818 l -7 832 l 762 832 l 783 749 l 770 734 l 625 734 l 625 232 m 285 734 l 514 464 l 514 734 l 285 734 m 302 272 q 405 296 359 272 q 492 361 450 319 l 218 679 l 218 386 q 302 272 218 272 z "},"स":{"ha":929,"x_min":-41,"x_max":957,"o":"m 799 232 l 810 -18 l 785 -39 l 676 -18 l 688 191 l 688 304 q 558 283 625 283 q 310 358 433 283 q 208 286 270 315 q 494 58 297 147 l 431 -47 q 211 138 314 18 q 61 389 109 258 l 138 471 l 212 435 q 293 621 293 500 q 271 734 293 672 l -21 734 l -41 818 l -28 832 l 936 832 l 957 749 l 943 734 l 799 734 l 799 232 m 349 734 q 393 567 393 650 q 355 418 393 485 q 515 386 432 386 q 688 433 615 386 l 688 734 l 349 734 z "},"ह":{"ha":751,"x_min":-41,"x_max":793,"o":"m 343 534 q 255 514 286 534 q 224 444 224 493 q 227 412 224 432 q 382 439 288 439 q 593 385 509 439 q 676 233 676 330 q 656 152 676 192 q 597 79 636 113 l 513 121 l 513 158 q 561 213 546 189 q 576 262 576 237 q 534 332 576 309 q 431 355 492 355 q 279 310 336 355 q 222 189 222 265 q 288 38 222 96 q 484 -74 353 -21 l 443 -135 q 196 23 286 -70 q 106 221 106 115 q 150 358 106 306 q 107 484 107 415 q 311 632 107 632 l 479 632 l 479 734 l -21 734 l -41 818 l -28 832 l 772 832 l 793 749 l 779 734 l 590 734 l 590 562 l 558 534 l 343 534 z "},"ऺ":{"ha":0,"x_min":14,"x_max":125,"o":"m 14 986 l 28 1000 l 125 974 l 125 818 l 14 818 l 14 986 z "},"ऻ":{"ha":372,"x_min":-28,"x_max":400,"o":"m 241 232 l 253 -18 l 228 -39 l 119 -18 l 131 191 l 131 734 l -7 734 l -28 818 l -14 832 l 131 832 l 131 986 l 144 1000 l 241 974 l 241 832 l 379 832 l 400 749 l 386 734 l 241 734 l 241 232 z "},"़":{"ha":0,"x_min":0,"x_max":161,"o":"m 92 -79 q 118 -94 102 -79 q 148 -130 135 -109 q 161 -175 161 -151 q 148 -200 161 -184 q 114 -228 135 -216 q 69 -240 93 -240 q 43 -225 60 -240 q 13 -190 26 -211 q 0 -144 0 -168 q 13 -119 0 -135 q 47 -91 26 -103 q 92 -79 68 -79 z "},"ऽ":{"ha":634,"x_min":17,"x_max":599,"o":"m 318 734 q 233 712 262 734 q 204 654 204 689 q 231 589 204 623 q 309 529 258 555 q 393 488 335 515 q 545 390 490 440 q 599 261 599 340 q 535 109 599 163 q 351 56 471 56 q 170 106 261 56 q 17 240 78 157 l 72 289 q 208 183 136 217 q 336 149 279 149 q 443 183 404 149 q 482 281 482 218 q 460 343 482 317 q 408 388 437 370 q 314 439 378 407 l 231 482 q 122 574 160 519 q 85 682 85 628 q 135 789 85 746 q 277 832 186 832 l 492 832 l 513 749 l 498 734 l 318 734 z "},"ा":{"ha":372,"x_min":-28,"x_max":400,"o":"m 241 232 l 253 -18 l 228 -39 l 119 -18 l 131 191 l 131 734 l -7 734 l -28 818 l -14 832 l 379 832 l 400 749 l 386 734 l 241 734 l 241 232 z "},"ि":{"ha":372,"x_min":-28,"x_max":953,"o":"m 301 1166 q 607 1105 441 1166 q 953 911 772 1043 l 922 876 l 908 875 q 612 1019 765 966 q 338 1072 458 1072 q 202 1048 242 1072 q 161 972 161 1023 q 222 832 161 911 l 379 832 l 400 749 l 386 734 l 241 734 l 241 232 l 253 -18 l 228 -39 l 119 -18 l 131 191 l 131 734 l -7 734 l -28 818 l -14 832 l 139 832 q 78 1000 78 913 q 134 1124 78 1082 q 301 1166 191 1166 z "},"ी":{"ha":372,"x_min":-336,"x_max":400,"o":"m 241 232 l 253 -18 l 228 -39 l 119 -18 l 131 191 l 131 734 l -7 734 l -28 818 l -14 832 l 127 832 q 73 964 115 910 q -26 1044 31 1018 q -140 1071 -83 1071 q -219 1045 -192 1071 q -245 981 -245 1019 q -225 905 -245 943 l -269 876 q -319 952 -301 912 q -336 1031 -336 993 q -299 1128 -336 1090 q -191 1165 -261 1165 q -28 1123 -115 1165 q 133 1006 60 1082 q 240 832 207 930 l 379 832 l 400 749 l 386 734 l 241 734 l 241 232 z "},"ु":{"ha":0,"x_min":20,"x_max":549,"o":"m 193 -46 q 260 -8 220 -22 q 346 7 300 7 q 442 -17 395 7 q 519 -82 489 -41 q 549 -170 549 -122 q 496 -283 549 -243 q 363 -322 444 -322 q 158 -245 245 -322 q 20 -81 71 -168 l 65 -46 q 224 -193 161 -157 q 349 -228 288 -228 q 433 -203 406 -228 q 460 -146 460 -179 q 439 -101 460 -117 q 383 -86 418 -86 q 324 -96 353 -86 q 262 -129 296 -106 l 193 -46 z "},"ू":{"ha":0,"x_min":18,"x_max":547,"o":"m 345 -254 q 222 -313 289 -313 q 121 -289 168 -313 q 46 -227 74 -265 q 18 -150 18 -189 q 67 -33 18 -72 q 196 7 115 7 q 326 -24 260 7 q 452 -111 392 -56 q 547 -225 494 -151 l 518 -275 q 354 -139 432 -182 q 215 -96 275 -96 q 137 -121 166 -96 q 107 -182 107 -147 q 129 -225 107 -210 q 180 -240 150 -240 q 273 -192 237 -240 l 345 -254 z "},"ृ":{"ha":0,"x_min":49,"x_max":389,"o":"m 288 -46 q 174 -70 211 -46 q 138 -144 138 -94 q 156 -185 138 -171 q 203 -200 174 -200 q 346 -135 277 -200 l 389 -200 q 236 -275 322 -275 q 144 -255 187 -275 q 75 -198 102 -235 q 49 -113 49 -161 q 103 -4 49 -46 q 244 39 158 39 l 288 -46 z "},"ॄ":{"ha":0,"x_min":36,"x_max":478,"o":"m 478 -370 q 414 -425 450 -406 q 339 -444 378 -444 q 235 -421 285 -444 q 155 -359 184 -397 q 125 -282 125 -321 q 134 -237 125 -256 q 62 -178 89 -214 q 36 -103 36 -142 q 54 -30 36 -60 q 99 21 72 1 q 174 65 126 40 l 244 -18 q 153 -74 182 -52 q 125 -135 125 -97 q 146 -178 125 -163 q 199 -193 168 -193 q 306 -127 261 -193 l 376 -191 q 314 -246 349 -227 q 240 -265 279 -265 l 227 -265 q 214 -314 214 -290 q 237 -357 214 -342 q 297 -372 260 -372 q 407 -307 362 -372 l 478 -370 z "},"ॅ":{"ha":0,"x_min":18,"x_max":484,"o":"m 81 1080 q 240 972 136 972 q 376 1079 342 972 l 484 1042 q 397 928 458 970 q 262 886 336 886 q 117 926 182 886 q 18 1042 53 966 l 81 1080 z "},"ॆ":{"ha":0,"x_min":28,"x_max":579,"o":"m 85 1182 q 159 1109 125 1129 q 224 1081 193 1089 q 265 1069 254 1072 l 395 1035 q 504 985 470 1013 q 557 903 538 958 q 579 804 566 876 l 509 804 q 484 879 499 854 q 447 912 469 903 q 376 935 425 922 l 240 971 q 131 1019 171 989 q 46 1116 92 1048 l 28 1140 l 85 1182 z "},"े":{"ha":0,"x_min":14,"x_max":489,"o":"m 14 1143 q 76 1160 41 1154 q 139 1166 111 1166 q 276 1119 214 1166 q 386 999 338 1072 q 489 818 435 925 l 415 818 q 281 1001 343 939 q 150 1064 220 1064 q 74 1044 113 1064 l 14 1143 z "},"ै":{"ha":0,"x_min":8,"x_max":497,"o":"m 492 817 l 414 817 l 414 832 q 361 887 414 852 q 241 951 309 922 q 135 979 174 979 q 56 957 90 979 l 8 1040 q 118 1071 72 1071 q 368 951 222 1071 q 236 1092 300 1043 q 118 1140 171 1140 q 57 1128 86 1140 l 9 1223 q 115 1235 57 1237 q 311 1126 218 1235 q 497 817 403 1018 l 490 819 l 492 817 z "},"ॉ":{"ha":372,"x_min":-41,"x_max":424,"o":"m 241 232 l 253 -18 l 228 -39 l 119 -18 l 131 191 l 131 734 l -7 734 l -28 818 l -14 832 l 379 832 l 400 749 l 386 734 l 241 734 l 241 232 m 21 1080 q 180 972 76 972 q 317 1079 282 972 l 424 1042 q 338 928 399 970 q 203 886 277 886 q 58 926 122 886 q -41 1042 -7 966 l 21 1080 z "},"ॊ":{"ha":372,"x_min":-328,"x_max":400,"o":"m 241 232 l 253 -18 l 228 -39 l 119 -18 l 131 191 l 131 734 l -7 734 l -28 818 l -14 832 l 147 832 q 122 887 138 869 q 87 914 107 905 q 21 935 66 922 l -115 971 q -224 1019 -184 989 q -310 1116 -264 1048 l -328 1140 l -271 1182 q -197 1109 -231 1129 q -132 1081 -163 1089 q -90 1069 -102 1072 l 39 1035 q 148 985 114 1013 q 201 903 182 958 q 218 832 211 872 l 379 832 l 400 749 l 386 734 l 241 734 l 241 232 z "},"ो":{"ha":372,"x_min":-256,"x_max":400,"o":"m 241 232 l 253 -18 l 228 -39 l 119 -18 l 131 191 l 131 734 l -7 734 l -28 818 l -14 832 l 138 832 q 8 1005 68 946 q -119 1064 -52 1064 q -196 1044 -157 1064 l -256 1143 q -193 1160 -228 1154 q -131 1166 -158 1166 q 52 1079 -26 1166 q 212 832 131 991 l 379 832 l 400 749 l 386 734 l 241 734 l 241 232 z "},"ौ":{"ha":372,"x_min":-268,"x_max":400,"o":"m 241 232 l 253 -18 l 228 -39 l 119 -18 l 131 191 l 131 734 l -7 734 l -28 818 l -14 832 l 138 832 q 85 887 138 852 q -36 951 32 922 q -142 979 -103 979 q -221 957 -186 979 l -268 1040 q -158 1071 -204 1071 q 92 951 -54 1071 q -41 1092 24 1043 q -158 1140 -106 1140 q -220 1128 -190 1140 l -267 1223 q -161 1235 -219 1237 q 31 1131 -60 1235 q 214 832 121 1026 l 379 832 l 400 749 l 386 734 l 241 734 l 241 232 z "},"्":{"ha":0,"x_min":17,"x_max":410,"o":"m 25 -93 q 94 -83 58 -83 q 192 -106 147 -83 q 276 -165 237 -129 q 378 -269 315 -201 l 410 -304 l 357 -342 q 264 -254 294 -281 q 199 -205 235 -227 q 127 -184 163 -184 q 65 -195 97 -184 l 17 -110 l 25 -93 z "},"ॎ":{"ha":241,"x_min":-11,"x_max":269,"o":"m 256 734 l 111 734 l 111 232 l 122 -18 l 97 -39 l -11 -18 l 0 191 l 0 832 l 249 832 l 269 749 l 256 734 z "},"ॏ":{"ha":372,"x_min":-363,"x_max":400,"o":"m 241 232 l 253 -18 l 228 -39 l 119 -18 l 131 191 l 131 734 l -7 734 l -28 818 l -14 832 l 149 832 q 103 877 130 867 q 31 892 77 888 l -49 899 q -138 907 -115 904 q -261 944 -216 913 q -331 1002 -306 974 q -363 1038 -355 1031 l -322 1079 q -125 999 -243 1013 l -14 985 q 86 963 49 978 q 150 918 123 947 q 125 963 144 947 q 53 1002 106 979 q -29 1032 10 1020 q -85 1051 -78 1049 q -173 1106 -140 1076 q -222 1162 -205 1136 q -271 1250 -239 1189 l -218 1279 q -154 1194 -186 1219 q -94 1158 -122 1169 q -56 1141 -65 1146 q 68 1089 -9 1120 q 169 1024 138 1056 q 210 935 199 993 q 218 832 215 904 l 379 832 l 400 749 l 386 734 l 241 734 l 241 232 z "},"ॐ":{"ha":1286,"x_min":12,"x_max":1246,"o":"m 721 846 q 694 860 711 846 q 665 897 677 875 q 652 942 652 918 q 665 967 652 951 q 699 995 677 983 q 743 1007 720 1007 q 769 992 753 1007 q 799 956 786 978 q 812 911 812 935 q 799 885 812 901 q 765 858 786 869 q 721 846 745 846 m 758 715 q 613 756 677 715 q 514 871 549 796 l 576 909 q 736 802 632 801 q 872 908 838 802 l 979 871 q 893 757 954 799 q 758 715 832 715 m 993 672 q 1120 640 1063 672 q 1212 554 1178 608 q 1246 435 1246 500 q 1183 271 1246 328 q 1029 215 1120 215 q 908 242 967 215 q 814 318 850 269 l 869 367 q 983 301 920 302 q 1090 351 1050 301 q 1131 465 1131 401 q 1102 552 1131 517 q 1021 587 1074 587 q 956 571 982 587 q 912 532 929 555 q 871 465 896 509 q 823 393 846 420 q 763 346 800 366 q 671 326 726 326 q 578 345 623 326 q 595 261 595 307 q 531 109 595 163 q 347 56 467 56 q 165 106 257 56 q 12 240 74 157 l 68 289 q 203 183 132 217 q 332 149 275 149 q 439 183 399 149 q 478 281 478 218 q 447 363 478 327 q 361 422 416 400 q 227 380 318 406 l 189 472 l 200 497 q 379 567 323 526 q 435 663 435 607 q 340 739 435 739 q 140 671 264 739 l 109 681 l 66 771 q 178 818 125 803 q 301 832 231 832 q 426 808 369 832 q 517 741 484 785 q 551 640 551 697 q 529 539 551 581 q 454 465 507 497 q 623 414 563 414 q 691 430 664 414 q 733 469 718 447 q 778 541 749 490 q 861 637 815 603 q 993 672 907 672 z "},"॑":{"ha":0,"x_min":17,"x_max":109,"o":"m 109 937 l 17 937 l 17 1178 l 109 1178 l 109 937 z "},"॒":{"ha":0,"x_min":14,"x_max":479,"o":"m 479 -165 l 465 -179 l 32 -179 l 14 -107 l 28 -93 l 461 -93 l 479 -165 z "},"॓":{"ha":0,"x_min":14,"x_max":271,"o":"m 203 895 l 271 935 l 104 1203 l 14 1139 l 121 1017 l 203 895 z "},"॔":{"ha":0,"x_min":14,"x_max":271,"o":"m 14 935 l 82 895 l 164 1017 l 271 1139 l 180 1203 l 14 935 z "},"ॕ":{"ha":0,"x_min":27,"x_max":503,"o":"m 100 1187 q 260 1080 155 1080 q 396 1186 361 1080 l 503 1149 q 417 1035 478 1077 q 282 994 356 994 q 137 1034 201 994 q 38 1149 73 1074 l 100 1187 m 493 886 l 479 872 l 45 872 l 27 944 l 41 958 l 475 958 l 493 886 z "},"ॖ":{"ha":0,"x_min":14,"x_max":479,"o":"m 77 -36 q 236 -144 132 -144 q 372 -37 338 -144 l 479 -75 q 393 -189 454 -147 q 258 -231 332 -231 q 113 -190 178 -231 q 14 -75 49 -150 l 77 -36 z "},"ॗ":{"ha":0,"x_min":4,"x_max":497,"o":"m 77 -36 q 236 -144 132 -144 q 372 -37 338 -144 l 479 -75 q 393 -189 454 -147 q 258 -231 332 -231 q 113 -190 178 -231 q 14 -75 49 -150 l 77 -36 m 68 -216 q 153 -304 109 -283 q 241 -325 197 -325 q 333 -298 294 -325 q 392 -228 372 -271 l 497 -264 q 398 -373 463 -333 q 261 -412 334 -412 q 126 -377 197 -412 q 4 -248 54 -342 l 68 -216 z "},"क़":{"ha":1147,"x_min":-21,"x_max":1168,"o":"m 616 488 q 829 583 708 583 q 1004 525 941 583 q 1067 364 1067 467 q 1020 205 1067 281 q 867 50 972 129 l 791 122 l 791 149 q 961 403 961 275 q 936 469 961 441 q 867 497 911 497 q 791 476 835 497 q 701 409 747 454 q 616 292 654 363 l 616 232 l 628 -18 l 603 -39 l 494 -18 l 505 189 q 330 138 423 138 q 203 170 261 138 q 112 256 146 201 q 78 375 78 310 q 138 537 78 482 q 313 593 197 593 q 505 538 407 593 l 505 734 l 0 734 l -21 818 l -7 832 l 1147 832 l 1168 749 l 1154 734 l 616 734 l 616 488 m 310 224 q 407 254 361 224 q 505 349 453 285 l 505 464 q 423 497 465 485 q 347 510 380 510 q 236 465 278 510 q 195 343 195 419 q 310 224 195 224 m 174 62 q 200 48 184 62 q 230 12 217 33 q 243 -33 243 -9 q 230 -59 243 -43 q 196 -86 217 -75 q 151 -98 175 -98 q 125 -84 142 -98 q 95 -48 109 -69 q 82 -3 82 -26 q 95 23 82 7 q 129 51 109 39 q 174 62 150 62 z "},"ख़":{"ha":1127,"x_min":-41,"x_max":1156,"o":"m 997 232 l 1008 -18 l 983 -39 l 875 -18 l 886 191 l 886 222 q 700 170 802 170 q 573 199 631 170 q 481 280 515 229 q 447 393 447 332 q 507 535 447 486 q 682 583 567 583 q 886 524 779 583 l 886 734 l 349 734 q 393 567 393 650 q 346 401 393 474 q 208 286 298 329 q 494 58 297 147 l 431 -47 q 211 138 314 18 q 61 389 109 258 l 138 471 l 212 435 q 293 621 293 500 q 271 734 293 672 l -21 734 l -41 818 l -28 832 l 1135 832 l 1156 749 l 1141 734 l 997 734 l 997 232 m 679 256 q 886 379 803 256 l 886 450 q 799 487 845 474 q 717 500 753 500 q 606 463 648 500 q 564 361 564 425 q 595 284 564 312 q 679 256 627 256 m 147 83 q 174 69 157 83 q 203 33 191 54 q 216 -12 216 11 q 203 -38 216 -22 q 170 -66 191 -54 q 125 -78 149 -78 q 99 -63 115 -78 q 69 -27 82 -49 q 56 18 56 -5 q 69 44 56 28 q 103 72 82 60 q 147 83 123 83 z "},"ग़":{"ha":794,"x_min":-41,"x_max":822,"o":"m 664 232 l 675 -18 l 650 -39 l 542 -18 l 553 191 l 553 734 l 301 734 q 309 557 308 661 q 295 340 309 440 q 253 187 282 240 q 164 219 205 187 q 97 297 122 250 q 75 382 72 343 l 98 414 q 142 424 112 419 q 193 429 172 428 q 204 549 204 488 q 180 734 204 635 l -21 734 l -41 818 l -28 832 l 802 832 l 822 749 l 808 734 l 664 734 l 664 232 m 236 83 q 262 69 245 83 q 293 33 279 54 q 306 -12 306 11 q 293 -38 306 -22 q 258 -66 279 -54 q 214 -78 237 -78 q 188 -63 204 -78 q 158 -27 171 -49 q 144 18 144 -5 q 158 44 144 28 q 192 72 171 60 q 236 83 212 83 z "},"ज़":{"ha":986,"x_min":-41,"x_max":1014,"o":"m 856 232 l 867 -18 l 842 -39 l 733 -18 l 745 191 l 745 486 q 541 481 592 484 q 620 393 592 445 q 648 278 648 340 q 596 163 648 206 q 456 119 545 119 q 233 219 330 119 q 60 524 136 319 l 135 545 q 412 220 264 220 q 499 245 469 220 q 529 319 529 271 q 487 427 529 380 q 374 490 444 473 l 353 557 l 374 582 q 745 576 530 582 l 745 734 l -21 734 l -41 818 l -28 832 l 993 832 l 1014 749 l 1000 734 l 856 734 l 856 232 m 241 135 q 268 120 252 135 q 298 84 285 106 q 311 39 311 62 q 298 13 311 29 q 264 -15 285 -3 q 220 -26 243 -26 q 193 -12 210 -26 q 163 24 176 3 q 150 69 150 46 q 163 95 150 79 q 197 123 176 111 q 241 135 218 135 z "},"ड़":{"ha":808,"x_min":-21,"x_max":829,"o":"m 361 534 q 273 514 304 534 q 241 444 241 493 q 260 377 241 397 q 321 357 279 357 q 422 382 339 357 q 471 395 432 385 q 524 406 510 406 q 626 378 578 406 q 705 304 675 350 q 736 205 736 258 q 706 107 736 154 q 616 30 676 60 q 471 0 557 0 q 60 168 223 0 l 107 216 q 266 125 184 153 q 421 97 347 97 q 563 131 506 97 q 619 244 619 165 q 605 290 619 275 q 558 304 590 304 q 469 285 545 304 q 349 260 378 260 q 250 288 302 260 q 161 367 197 315 q 125 484 125 418 q 329 632 125 632 l 497 632 l 497 734 l 0 734 l -21 818 l -7 832 l 808 832 l 829 749 l 815 734 l 608 734 l 608 562 l 576 534 l 361 534 m 429 -83 q 456 -98 439 -83 q 486 -134 473 -113 q 499 -179 499 -155 q 486 -204 499 -189 q 452 -232 473 -220 q 407 -244 431 -244 q 381 -230 397 -244 q 351 -194 364 -215 q 338 -149 338 -172 q 351 -123 338 -139 q 385 -95 364 -107 q 429 -83 406 -83 z "},"ढ़":{"ha":786,"x_min":-41,"x_max":828,"o":"m 379 534 q 249 489 296 534 q 201 364 201 444 q 231 240 201 295 q 310 153 260 184 q 425 122 361 122 q 371 213 393 161 q 342 318 349 265 q 398 399 353 368 q 509 431 444 431 q 662 381 602 431 q 722 256 722 332 q 647 101 722 157 q 440 45 571 45 q 258 90 340 45 q 130 214 176 135 q 83 392 83 293 q 372 632 83 632 l 494 632 l 494 734 l -21 734 l -41 818 l -28 832 l 807 832 l 828 749 l 814 734 l 606 734 l 606 564 l 582 534 l 379 534 m 534 353 q 478 330 498 353 q 458 267 458 307 q 470 199 458 235 q 501 132 482 163 q 578 183 551 148 q 606 271 606 218 q 586 330 606 308 q 534 353 567 353 m 452 -39 q 479 -54 463 -39 q 509 -90 496 -68 q 522 -135 522 -111 q 509 -160 522 -144 q 475 -188 496 -176 q 430 -200 454 -200 q 404 -185 420 -200 q 374 -150 387 -171 q 361 -104 361 -128 q 374 -79 361 -95 q 408 -51 387 -63 q 452 -39 429 -39 z "},"फ़":{"ha":1129,"x_min":-21,"x_max":1171,"o":"m 625 496 q 829 583 715 583 q 1004 525 941 583 q 1067 364 1067 467 q 1020 205 1067 281 q 867 50 972 129 l 791 122 l 791 149 q 961 403 961 276 q 936 469 961 441 q 867 497 911 497 q 748 450 817 497 q 625 307 679 403 l 625 232 l 636 -18 l 611 -39 l 503 -18 l 514 191 l 514 225 q 363 186 449 186 q 173 255 243 186 q 102 440 102 325 l 102 734 l 0 734 l -21 818 l -7 832 l 1150 832 l 1171 749 l 1157 734 l 625 734 l 625 496 m 218 734 l 218 386 q 302 272 218 272 q 416 301 368 272 q 514 383 465 330 l 514 734 l 218 734 m 322 83 q 349 69 332 83 q 379 33 366 54 q 392 -12 392 12 q 379 -38 392 -22 q 345 -65 366 -54 q 300 -77 323 -77 q 274 -63 290 -77 q 244 -27 257 -48 q 231 18 231 -5 q 244 44 231 28 q 278 72 257 60 q 322 83 298 83 z "},"य़":{"ha":777,"x_min":-41,"x_max":806,"o":"m 647 232 l 659 -18 l 633 -39 l 525 -18 l 536 191 l 536 195 q 395 161 466 161 q 174 235 264 161 q 52 440 83 309 l 74 479 q 180 521 142 492 q 218 595 218 550 q 135 734 218 663 l -21 734 l -41 818 l -28 832 l 785 832 l 806 749 l 791 734 l 647 734 l 647 232 m 237 734 q 336 555 336 643 q 296 455 339 500 q 167 383 253 410 q 238 290 184 328 q 359 253 292 253 q 451 274 406 253 q 536 332 497 294 l 536 734 l 237 734 m 184 83 q 211 69 195 83 q 241 33 228 54 q 254 -12 254 12 q 241 -38 254 -22 q 207 -65 228 -54 q 162 -77 186 -77 q 136 -63 153 -77 q 106 -27 119 -48 q 93 18 93 -5 q 106 44 93 28 q 140 72 119 60 q 184 83 161 83 z "},"ॠ":{"ha":1149,"x_min":-24,"x_max":1198,"o":"m 1198 -100 q 1135 -156 1171 -136 q 1060 -175 1099 -175 q 956 -151 1006 -175 q 876 -90 905 -127 q 846 -12 846 -52 q 854 32 846 14 q 783 92 810 56 q 757 167 757 127 q 777 244 757 213 q 833 300 796 275 q 790 364 828 307 q 656 310 726 332 l 656 232 l 667 -18 l 642 -39 l 533 -18 l 545 191 l 545 262 l 184 22 l 122 111 q 503 343 305 213 q 393 452 437 417 q 302 488 349 488 q 225 467 264 488 q 132 395 187 447 l 56 493 q 278 583 164 583 q 414 540 353 583 q 545 416 475 497 l 545 734 l -3 734 l -24 818 l -9 832 l 1150 832 l 1171 749 l 1157 734 l 656 734 l 656 407 q 742 458 703 429 q 722 561 728 515 l 768 599 q 970 513 886 591 q 864 406 938 454 q 965 277 905 343 l 965 249 l 962 250 q 873 195 901 218 q 846 135 846 172 q 867 92 846 107 q 920 77 889 77 q 1026 142 982 77 l 1097 79 q 1035 24 1069 43 q 961 4 1000 4 l 947 4 q 935 -45 935 -21 q 958 -88 935 -73 q 1018 -103 981 -103 q 1128 -37 1083 -103 l 1198 -100 z "},"ॡ":{"ha":1014,"x_min":-41,"x_max":1122,"o":"m 1122 -250 q 1058 -306 1095 -286 q 983 -325 1022 -325 q 879 -301 929 -325 q 800 -240 829 -278 q 770 -163 770 -201 q 778 -118 770 -138 q 707 -58 733 -94 q 681 17 681 -22 q 704 99 681 67 q 771 158 726 131 l 772 191 l 772 496 q 701 510 731 509 q 584 447 627 510 q 541 282 541 385 l 424 314 q 457 481 424 414 q 350 510 396 510 q 239 465 281 510 q 197 343 197 419 q 249 194 197 252 q 403 85 300 136 l 363 24 q 156 178 231 87 q 81 375 81 269 q 140 537 81 482 q 315 593 200 593 q 494 532 400 593 q 667 593 558 593 q 772 571 720 593 l 772 734 l -21 734 l -41 818 l -28 832 l 1021 832 l 1042 749 l 1028 734 l 884 734 l 884 232 l 889 102 q 798 45 827 68 q 770 -16 770 22 q 791 -59 770 -43 q 843 -74 812 -74 q 950 -8 905 -74 l 1021 -71 q 958 -126 993 -106 q 885 -146 924 -146 l 871 -146 q 859 -195 859 -171 q 881 -238 859 -222 q 942 -253 904 -253 q 1051 -187 1007 -253 l 1122 -250 z "},"ॢ":{"ha":0,"x_min":28,"x_max":717,"o":"m 717 -346 q 597 -407 664 -407 q 525 -390 562 -407 q 465 -347 488 -374 q 441 -290 441 -319 q 457 -231 441 -253 q 505 -184 473 -210 q 544 -149 532 -163 q 555 -111 555 -135 q 539 -76 555 -89 q 490 -62 522 -62 q 403 -103 436 -62 q 370 -211 370 -143 l 272 -186 q 293 -75 272 -121 q 229 -62 261 -63 q 152 -91 180 -62 q 123 -167 123 -119 q 160 -265 123 -220 q 267 -342 196 -310 l 235 -392 q 81 -280 135 -345 q 28 -142 28 -215 q 71 -26 28 -65 q 196 14 114 14 q 328 -28 258 14 q 454 14 372 14 q 552 -6 510 14 q 617 -59 595 -26 q 640 -127 640 -92 q 624 -187 640 -165 q 578 -232 608 -210 q 537 -270 550 -253 q 524 -314 524 -286 q 536 -338 524 -330 q 570 -347 549 -347 q 609 -336 592 -347 q 653 -292 627 -325 l 717 -346 z "},"ॣ":{"ha":0,"x_min":28,"x_max":786,"o":"m 786 -467 q 665 -529 732 -529 q 592 -512 628 -529 q 532 -468 555 -496 q 509 -411 509 -440 q 511 -383 509 -400 q 461 -341 481 -366 q 441 -290 441 -317 q 457 -231 441 -253 q 505 -184 473 -210 q 544 -149 532 -163 q 555 -111 555 -135 q 539 -76 555 -89 q 490 -62 522 -62 q 403 -103 436 -62 q 370 -211 370 -143 l 272 -186 q 293 -75 272 -121 q 229 -62 262 -63 q 152 -91 180 -62 q 123 -167 123 -119 q 160 -265 123 -220 q 267 -342 196 -310 l 235 -392 q 81 -280 135 -345 q 28 -142 28 -215 q 71 -26 28 -65 q 196 14 114 14 q 328 -28 260 14 q 454 14 370 14 q 552 -6 510 14 q 617 -59 595 -26 q 640 -127 640 -92 q 624 -187 640 -165 q 578 -232 608 -210 q 537 -270 550 -253 q 524 -314 524 -286 q 536 -338 524 -330 q 570 -347 549 -347 q 609 -336 592 -347 q 653 -292 627 -325 l 717 -346 q 599 -407 664 -407 q 593 -431 593 -418 q 604 -458 593 -448 q 637 -468 615 -468 q 678 -456 660 -468 q 722 -411 696 -444 l 786 -467 z "},"।":{"ha":372,"x_min":119,"x_max":253,"o":"m 241 624 l 241 146 l 253 -104 l 228 -125 l 119 -104 l 131 104 l 131 582 l 119 832 l 144 852 l 253 832 l 241 624 z "},"॥":{"ha":650,"x_min":119,"x_max":531,"o":"m 241 624 l 241 146 l 253 -104 l 228 -125 l 119 -104 l 131 104 l 131 582 l 119 832 l 144 852 l 253 832 l 241 624 m 519 624 l 519 146 l 531 -104 l 506 -125 l 397 -104 l 409 104 l 409 582 l 397 832 l 422 852 l 531 832 l 519 624 z "},"०":{"ha":780,"x_min":85,"x_max":696,"o":"m 390 789 q 549 751 479 789 q 657 646 618 714 q 696 489 696 578 q 657 332 696 400 q 549 227 618 264 q 390 191 481 191 q 231 227 300 191 q 124 331 163 264 q 85 488 85 399 q 124 645 85 576 q 232 751 163 714 q 390 789 301 789 m 431 704 q 313 667 366 704 q 232 570 261 631 q 203 439 203 509 q 239 324 203 375 q 351 273 275 273 q 469 310 418 273 q 550 406 521 346 q 579 536 579 467 q 541 654 579 604 q 431 704 503 704 z "},"१":{"ha":625,"x_min":49,"x_max":568,"o":"m 250 310 q 433 197 347 262 q 568 56 518 132 l 464 -22 q 328 154 407 82 q 102 300 249 225 l 102 354 q 304 530 235 440 q 374 707 374 621 q 340 803 374 774 q 267 831 307 831 q 201 807 232 831 q 171 736 171 783 q 189 667 171 701 q 232 611 207 632 l 191 568 q 97 663 138 604 q 49 766 56 722 q 112 873 56 830 q 240 917 168 917 q 363 886 308 917 q 451 798 419 854 q 484 672 484 742 q 424 485 484 570 q 250 310 364 399 z "},"२":{"ha":751,"x_min":40,"x_max":682,"o":"m 400 297 q 533 174 468 220 q 682 90 597 127 l 614 -21 q 445 109 529 26 q 306 279 361 192 l 294 279 q 155 314 231 279 q 58 395 79 349 l 75 449 q 183 475 128 475 q 267 461 220 475 l 315 403 q 467 496 411 429 q 524 656 524 564 q 478 773 524 728 q 358 819 432 819 q 230 789 292 819 q 121 718 168 760 l 40 825 q 317 917 169 917 q 474 880 403 917 q 588 777 546 843 q 631 625 631 710 q 563 415 631 499 q 400 297 494 332 z "},"३":{"ha":705,"x_min":64,"x_max":637,"o":"m 436 168 q 637 52 518 109 l 568 -58 q 319 160 446 32 q 170 188 235 164 q 64 271 104 211 l 81 325 q 184 350 125 350 q 237 340 215 350 l 285 296 l 334 253 q 479 387 479 278 q 447 460 479 426 q 361 513 414 494 q 227 472 316 496 l 180 585 q 376 652 317 616 q 435 747 435 688 q 410 804 435 785 q 338 823 385 823 q 146 751 260 823 l 94 861 q 194 904 147 890 q 301 917 240 917 q 426 893 369 917 q 517 826 484 869 q 551 725 551 782 q 528 626 551 667 q 452 554 505 586 q 595 359 595 477 q 549 239 595 292 q 436 168 504 187 z "},"४":{"ha":687,"x_min":82,"x_max":611,"o":"m 440 429 q 533 329 500 376 q 566 229 566 282 q 513 101 566 147 q 375 56 460 56 q 271 81 319 56 q 193 150 222 106 q 164 248 164 193 q 198 351 164 302 q 290 454 232 400 l 224 509 q 82 711 103 612 q 115 824 86 770 q 197 917 144 879 l 267 818 q 200 703 200 757 q 227 625 200 661 q 311 541 253 589 l 350 507 l 382 536 q 497 743 497 646 q 374 950 497 843 l 410 994 q 559 865 508 939 q 611 711 611 791 q 518 503 611 600 q 440 429 485 467 m 357 143 q 433 173 404 143 q 463 250 463 203 q 382 374 463 300 q 312 292 337 329 q 286 220 286 254 q 305 165 286 186 q 357 143 323 143 z "},"५":{"ha":757,"x_min":82,"x_max":671,"o":"m 529 -21 q 536 41 535 24 q 538 86 538 57 q 484 345 538 205 q 351 315 421 315 q 146 390 211 315 q 82 585 82 464 q 103 753 82 659 q 160 920 125 847 l 267 868 q 217 710 239 804 q 195 550 195 615 q 304 395 195 395 q 439 437 374 395 q 400 543 407 505 l 443 583 q 561 563 501 583 q 646 511 621 542 q 558 395 614 444 q 671 11 669 204 l 529 -21 z "},"६":{"ha":684,"x_min":90,"x_max":621,"o":"m 621 267 q 497 186 574 215 q 545 102 517 138 q 621 11 572 65 l 515 -57 q 414 165 448 46 q 351 160 386 160 q 224 187 285 160 q 127 262 164 214 q 90 372 90 311 q 195 551 90 488 q 119 630 149 585 q 90 729 90 676 q 150 866 90 815 q 307 917 210 917 q 456 890 379 917 l 485 823 l 471 810 q 410 826 443 819 q 351 832 376 832 q 246 799 286 832 q 205 707 205 766 q 222 644 205 675 q 269 586 239 612 q 457 624 354 614 l 500 518 q 275 470 357 509 q 193 353 193 432 q 224 276 193 307 q 325 245 256 245 q 395 257 357 245 q 385 353 388 297 l 432 386 q 539 347 488 380 q 621 267 591 314 z "},"७":{"ha":806,"x_min":93,"x_max":725,"o":"m 315 269 q 461 317 393 269 q 570 444 529 366 q 611 611 611 522 q 592 733 611 685 q 515 781 572 781 q 451 757 477 781 q 425 694 425 733 q 507 579 425 625 l 478 525 q 362 606 404 557 q 309 730 321 656 q 368 837 317 800 q 492 873 419 873 q 612 835 558 873 q 695 732 665 796 q 725 599 725 668 q 676 403 725 497 q 543 250 627 309 q 363 191 460 191 q 208 240 269 191 q 120 366 147 290 q 93 522 93 441 q 115 736 93 627 q 171 920 136 846 l 278 868 q 228 692 250 803 q 205 488 205 582 q 232 338 205 407 q 315 269 258 269 z "},"८":{"ha":659,"x_min":86,"x_max":610,"o":"m 431 867 q 322 728 379 815 q 227 548 265 640 q 189 389 189 456 q 219 306 189 334 q 300 277 249 277 q 534 379 387 277 l 610 296 q 487 220 553 250 q 358 191 421 191 q 224 219 286 191 q 124 299 161 248 q 86 421 86 351 q 160 688 86 541 q 338 945 235 835 l 431 867 z "},"९":{"ha":692,"x_min":57,"x_max":623,"o":"m 467 385 q 573 289 533 332 q 623 197 612 245 q 588 78 618 135 q 500 -21 557 21 l 431 78 q 504 204 505 146 q 472 273 504 239 q 364 367 440 307 l 283 432 q 160 539 200 501 q 88 628 119 578 q 57 734 57 679 q 114 870 57 823 q 265 917 171 917 q 375 886 325 917 q 454 804 425 856 q 484 692 484 751 q 350 485 484 596 q 432 414 383 453 l 467 385 m 273 831 q 176 717 176 831 q 265 566 176 659 q 375 732 375 654 q 345 802 375 773 q 273 831 315 831 z "},"॰":{"ha":643,"x_min":78,"x_max":566,"o":"m 330 138 q 203 170 261 138 q 112 256 146 201 q 78 375 78 310 q 138 537 78 482 q 313 593 197 593 q 439 561 382 593 q 531 475 497 529 q 566 355 566 421 q 506 193 566 248 q 330 138 446 138 m 340 509 q 233 464 272 509 q 195 343 195 419 q 302 222 195 222 q 410 267 370 222 q 449 387 449 311 q 340 509 449 508 z "},"ॱ":{"ha":292,"x_min":83,"x_max":208,"o":"m 154 846 q 174 834 161 846 q 198 806 187 823 q 208 771 208 789 q 199 752 208 764 q 172 730 189 739 q 138 721 155 721 q 118 732 131 721 q 94 760 104 743 q 83 794 83 777 q 105 826 83 806 q 154 846 126 846 z "},"ॲ":{"ha":1051,"x_min":53,"x_max":1103,"o":"m 921 232 l 932 -18 l 907 -39 l 799 -18 l 810 191 l 810 338 q 733 329 775 330 q 612 354 679 329 q 635 261 635 314 q 571 109 635 163 q 387 56 507 56 q 205 106 297 56 q 53 240 114 157 l 109 289 q 244 183 172 217 q 372 149 315 149 q 479 183 440 149 q 518 281 518 218 q 486 367 518 330 q 393 425 453 404 q 267 387 338 406 l 229 479 l 240 504 q 420 571 366 534 q 475 663 475 607 q 380 739 475 739 q 208 685 311 739 l 176 694 l 135 785 q 233 822 192 812 q 342 832 273 832 q 467 808 410 832 q 557 741 524 785 q 591 640 591 697 q 569 540 591 581 q 490 468 546 500 q 689 414 610 414 q 810 444 767 414 l 810 734 l 672 734 l 652 818 l 665 832 l 1059 832 l 1079 749 l 1065 734 l 921 734 l 921 232 m 700 1080 q 859 972 755 972 q 996 1079 961 972 l 1103 1042 q 1017 928 1078 970 q 882 886 956 886 q 736 926 801 886 q 637 1042 672 966 l 700 1080 z "},"ॳ":{"ha":1051,"x_min":53,"x_max":1079,"o":"m 921 232 l 932 -18 l 907 -39 l 799 -18 l 810 191 l 810 338 q 733 329 775 330 q 612 354 679 329 q 635 261 635 314 q 571 109 635 163 q 387 56 507 56 q 205 106 297 56 q 53 240 114 157 l 109 289 q 244 183 172 217 q 372 149 315 149 q 479 183 440 149 q 518 281 518 218 q 486 367 518 330 q 393 425 453 404 q 267 387 338 406 l 229 479 l 240 504 q 420 571 366 534 q 475 663 475 607 q 380 739 475 739 q 208 685 311 739 l 176 694 l 135 785 q 233 822 192 812 q 342 832 273 832 q 467 808 410 832 q 557 741 524 785 q 591 640 591 697 q 569 540 591 581 q 490 468 546 500 q 689 414 610 414 q 810 444 767 414 l 810 734 l 672 734 l 652 818 l 665 832 l 810 832 l 810 986 l 823 1000 l 921 974 l 921 832 l 1059 832 l 1079 749 l 1065 734 l 921 734 l 921 232 z "},"ॴ":{"ha":1423,"x_min":53,"x_max":1451,"o":"m 1293 232 l 1304 -18 l 1279 -39 l 1171 -18 l 1182 191 l 1182 734 l 921 734 l 921 232 l 932 -18 l 907 -39 l 799 -18 l 810 191 l 810 338 q 733 329 775 330 q 612 354 679 329 q 635 261 635 314 q 571 109 635 163 q 387 56 507 56 q 205 106 297 56 q 53 240 114 157 l 109 289 q 244 183 172 217 q 372 149 315 149 q 479 183 440 149 q 518 281 518 218 q 486 367 518 330 q 393 425 453 404 q 267 387 338 406 l 229 479 l 240 504 q 420 571 366 534 q 475 663 475 607 q 380 739 475 739 q 208 685 311 739 l 176 694 l 135 785 q 233 822 192 812 q 342 832 273 832 q 467 808 410 832 q 557 741 524 785 q 591 640 591 697 q 569 540 591 581 q 490 468 546 500 q 689 414 610 414 q 810 444 767 414 l 810 734 l 672 734 l 652 818 l 665 832 l 1182 832 l 1182 986 l 1196 1000 l 1293 974 l 1293 832 l 1430 832 l 1451 749 l 1438 734 l 1293 734 l 1293 232 z "},"ॵ":{"ha":1423,"x_min":53,"x_max":1451,"o":"m 1293 232 l 1304 -18 l 1279 -39 l 1171 -18 l 1182 191 l 1182 734 l 921 734 l 921 232 l 932 -18 l 907 -39 l 799 -18 l 810 191 l 810 338 q 733 329 774 330 q 612 354 679 329 q 635 261 635 314 q 571 109 635 163 q 387 56 507 56 q 205 106 297 56 q 53 240 114 157 l 109 289 q 244 183 172 217 q 372 149 315 149 q 479 183 440 149 q 518 281 518 218 q 486 367 518 330 q 393 425 453 404 q 267 387 338 406 l 229 479 l 240 504 q 420 571 366 534 q 475 663 475 607 q 380 739 475 739 q 208 685 311 739 l 176 694 l 135 785 q 233 822 192 812 q 342 832 273 832 q 467 808 410 832 q 557 741 524 785 q 591 640 591 697 q 569 540 591 581 q 490 468 546 500 q 689 414 610 414 q 810 444 767 414 l 810 734 l 672 734 l 652 818 l 665 832 l 1200 832 q 1155 877 1181 867 q 1082 892 1128 888 l 1003 899 q 914 907 937 904 q 791 944 836 913 q 721 1002 746 974 q 689 1038 696 1031 l 729 1079 q 926 999 808 1013 l 1038 985 q 1138 963 1100 978 q 1202 918 1175 947 q 1177 963 1196 947 q 1104 1002 1157 979 q 1022 1032 1061 1020 q 966 1051 973 1049 q 878 1106 911 1076 q 829 1162 846 1136 q 781 1250 812 1189 l 833 1279 q 897 1194 865 1219 q 958 1158 929 1169 q 996 1141 986 1146 q 1120 1089 1042 1120 q 1220 1024 1190 1056 q 1261 935 1250 993 q 1270 832 1267 904 l 1430 832 l 1451 749 l 1438 734 l 1293 734 l 1293 232 z "},"ॶ":{"ha":1051,"x_min":53,"x_max":1107,"o":"m 921 232 l 932 -18 l 907 -39 l 799 -18 l 810 191 l 810 338 q 733 329 775 330 q 612 354 679 329 q 635 261 635 314 q 571 109 635 163 q 387 56 507 56 q 205 106 297 56 q 53 240 114 157 l 109 289 q 244 183 172 217 q 372 149 315 149 q 479 183 440 149 q 518 281 518 218 q 486 367 518 330 q 393 425 453 404 q 267 387 338 406 l 229 479 l 240 504 q 420 571 366 534 q 475 663 475 607 q 380 739 475 739 q 208 685 311 739 l 176 694 l 135 785 q 233 822 192 812 q 342 832 273 832 q 467 808 410 832 q 557 741 524 785 q 591 640 591 697 q 569 540 591 581 q 490 468 546 500 q 689 414 610 414 q 810 444 767 414 l 810 734 l 672 734 l 652 818 l 665 832 l 1059 832 l 1079 749 l 1065 734 l 921 734 l 921 232 m 705 -36 q 864 -144 760 -144 q 1000 -37 966 -144 l 1107 -75 q 1021 -189 1082 -147 q 886 -231 960 -231 q 741 -190 806 -231 q 642 -75 677 -150 l 705 -36 z "},"ॷ":{"ha":1051,"x_min":53,"x_max":1125,"o":"m 921 232 l 932 -18 l 907 -39 l 799 -18 l 810 191 l 810 338 q 733 329 775 330 q 612 354 679 329 q 635 261 635 314 q 571 109 635 163 q 387 56 507 56 q 205 106 297 56 q 53 240 114 157 l 109 289 q 244 183 172 217 q 372 149 315 149 q 479 183 440 149 q 518 281 518 218 q 486 367 518 330 q 393 425 453 404 q 267 387 338 406 l 229 479 l 240 504 q 420 571 366 534 q 475 663 475 607 q 380 739 475 739 q 208 685 311 739 l 176 694 l 135 785 q 233 822 192 812 q 342 832 273 832 q 467 808 410 832 q 557 741 524 785 q 591 640 591 697 q 569 540 591 581 q 490 468 546 500 q 689 414 610 414 q 810 444 767 414 l 810 734 l 672 734 l 652 818 l 665 832 l 1059 832 l 1079 749 l 1065 734 l 921 734 l 921 232 m 705 -36 q 864 -144 760 -144 q 1000 -37 966 -144 l 1107 -75 q 1021 -189 1082 -147 q 886 -231 960 -231 q 741 -190 806 -231 q 642 -75 677 -150 l 705 -36 m 696 -216 q 781 -304 736 -283 q 869 -325 825 -325 q 961 -298 922 -325 q 1020 -228 1000 -271 l 1125 -264 q 1026 -373 1090 -333 q 889 -412 962 -412 q 754 -377 825 -412 q 632 -248 682 -342 l 696 -216 z "},"ॹ":{"ha":986,"x_min":-41,"x_max":1014,"o":"m 856 232 l 867 -18 l 842 -39 l 733 -18 l 745 191 l 745 486 q 541 481 592 484 q 620 393 592 445 q 648 278 648 340 q 596 163 648 206 q 456 119 545 119 q 233 219 330 119 q 60 524 136 319 l 135 545 q 412 220 264 220 q 499 245 469 220 q 529 319 529 271 q 487 427 529 380 q 374 490 444 473 l 353 557 l 374 582 q 745 576 530 582 l 745 734 l -21 734 l -41 818 l -28 832 l 993 832 l 1014 749 l 1000 734 l 856 734 l 856 232 m 395 -40 q 384 -61 395 -47 q 356 -84 372 -74 q 322 -94 339 -94 q 300 -81 315 -94 q 273 -50 285 -68 q 261 -16 261 -32 q 272 5 261 -9 q 300 28 283 18 q 334 39 317 39 q 356 25 340 39 q 383 -6 371 12 q 395 -40 395 -24 m 526 39 q 548 25 533 39 q 575 -6 564 12 q 587 -40 587 -24 q 576 -60 587 -47 q 549 -84 566 -74 q 515 -94 532 -94 q 493 -81 509 -94 q 466 -50 478 -68 q 454 -16 454 -32 q 465 5 454 -9 q 493 28 476 18 q 526 39 510 39 m 435 -119 q 457 -133 441 -119 q 484 -164 472 -146 q 496 -199 496 -182 q 485 -219 496 -205 q 457 -242 473 -232 q 424 -253 440 -253 q 401 -240 417 -253 q 374 -209 386 -227 q 363 -174 363 -191 q 374 -154 363 -167 q 401 -130 385 -140 q 435 -119 418 -119 z "},"ॺ":{"ha":777,"x_min":-41,"x_max":806,"o":"m 647 232 l 659 -18 l 633 -39 l 525 -18 l 536 191 l 536 195 q 395 161 466 161 q 174 235 264 161 q 52 440 83 309 l 74 479 q 180 521 142 492 q 218 595 218 550 q 135 734 218 663 l -21 734 l -41 818 l -28 832 l 785 832 l 806 749 l 791 734 l 647 734 l 647 232 m 273 734 l 536 416 l 536 734 l 273 734 m 359 253 q 511 310 439 253 l 334 524 q 281 441 324 477 q 167 383 239 406 q 238 290 184 328 q 359 253 292 253 z "},"ॻ":{"ha":794,"x_min":-41,"x_max":822,"o":"m 664 232 l 675 -18 l 675 -25 l 661 -39 l 125 -39 l 104 45 l 118 58 l 546 58 l 553 191 l 553 734 l 301 734 q 309 557 308 661 q 295 340 309 440 q 253 187 282 240 q 164 219 205 187 q 97 297 122 250 q 75 382 72 343 l 98 414 q 142 424 112 419 q 193 429 172 428 q 204 549 204 488 q 180 734 204 635 l -21 734 l -41 818 l -28 832 l 802 832 l 822 749 l 808 734 l 664 734 l 664 232 z "},"ॼ":{"ha":986,"x_min":-41,"x_max":1014,"o":"m 1000 734 l 856 734 l 856 232 l 867 -18 l 867 -64 l 852 -78 l 138 -78 l 117 5 l 131 20 l 734 20 l 745 191 l 745 486 q 541 481 592 484 q 620 393 592 445 q 648 278 648 340 q 596 163 648 206 q 456 119 545 119 q 233 219 330 119 q 60 524 136 319 l 135 545 q 412 220 264 220 q 499 245 469 220 q 529 319 529 271 q 487 427 529 380 q 374 490 444 473 l 353 557 l 374 582 q 745 576 530 582 l 745 734 l -21 734 l -41 818 l -28 832 l 993 832 l 1014 749 l 1000 734 z "},"ॽ":{"ha":627,"x_min":35,"x_max":550,"o":"m 550 574 q 476 390 550 469 q 288 278 403 310 l 288 232 l 298 -18 l 273 -39 l 165 -18 l 176 191 l 176 355 l 195 374 q 338 424 278 385 q 428 515 397 463 q 458 618 458 568 q 420 703 458 672 q 310 734 382 734 q 215 717 264 734 q 125 668 165 700 l 93 675 l 35 745 q 144 810 83 787 q 269 832 205 832 q 421 795 358 832 q 517 699 485 758 q 550 574 550 640 z "},"ॾ":{"ha":808,"x_min":-21,"x_max":829,"o":"m 815 734 l 608 734 l 608 562 l 576 534 l 361 534 q 273 514 304 534 q 241 444 241 493 q 260 377 241 397 q 321 357 279 357 q 422 382 339 357 q 471 395 432 385 q 524 406 510 406 q 626 378 578 406 q 705 304 675 350 q 736 205 736 258 q 706 107 736 154 q 616 30 676 60 q 471 0 557 0 q 60 168 223 0 l 107 216 q 266 125 184 153 q 421 97 347 97 q 563 131 506 97 q 619 244 619 165 q 605 290 619 275 q 558 304 590 304 q 469 285 545 304 q 349 260 378 260 q 250 288 302 260 q 161 367 197 315 q 125 484 125 418 q 329 632 125 632 l 497 632 l 497 734 l 0 734 l -21 818 l -7 832 l 808 832 l 829 749 l 815 734 m 761 -164 l 747 -178 l 110 -178 l 89 -94 l 103 -81 l 741 -81 l 761 -164 z "},"ॿ":{"ha":760,"x_min":-41,"x_max":787,"o":"m 774 734 l 629 734 l 629 232 l 640 -64 l 627 -78 l 111 -78 l 90 5 l 104 20 l 509 20 l 518 191 q 343 138 437 138 q 208 170 269 138 q 112 256 147 201 q 77 375 77 310 q 140 537 77 482 q 325 593 203 593 q 518 541 416 593 l 518 734 l -21 734 l -41 818 l -28 832 l 766 832 l 787 749 l 774 734 m 359 510 q 300 501 326 509 l 486 301 q 518 343 506 322 l 518 465 q 437 498 479 486 q 359 510 395 510 m 227 450 q 193 343 193 408 q 228 256 193 288 q 322 224 262 224 q 416 245 370 224 l 227 450 z "},"‌":{"ha":0,"x_min":0,"x_max":111,"o":"m 0 -339 l 0 1050 l 111 1050 l 111 -339 l 0 -339 z "},"‍":{"ha":0,"x_min":0,"x_max":351,"o":"m 111 947 l 111 -339 l 0 -339 l 0 1050 l 351 1050 l 351 947 l 111 947 z "},"–":{"ha":700,"x_min":0,"x_max":700,"o":"m 693 300 l 3 300 l 0 404 l 700 404 l 693 300 z "},"—":{"ha":1397,"x_min":0,"x_max":1397,"o":"m 1390 300 l 3 300 l 0 404 l 1397 404 l 1390 300 z "},"‘":{"ha":267,"x_min":40,"x_max":231,"o":"m 135 904 q 160 982 135 947 q 231 1036 186 1017 l 221 1069 q 89 983 138 1051 q 40 838 40 916 q 64 755 40 789 q 131 721 87 721 q 194 749 168 721 q 220 817 220 778 q 196 879 220 854 q 135 904 172 904 z "},"’":{"ha":267,"x_min":36,"x_max":227,"o":"m 132 886 q 106 808 132 843 q 36 754 81 774 l 46 721 q 178 807 130 739 q 227 953 227 875 q 203 1036 227 1002 q 136 1069 179 1069 q 73 1041 99 1069 q 47 974 47 1013 q 71 911 47 937 q 132 886 94 886 z "},"‚":{"ha":300,"x_min":47,"x_max":237,"o":"m 143 -14 q 117 -92 143 -57 q 47 -146 92 -126 l 57 -179 q 189 -93 140 -161 q 237 53 237 -25 q 214 136 237 102 q 147 170 190 170 q 84 141 110 170 q 58 74 58 113 q 82 12 58 37 q 143 -14 105 -14 z "},"“":{"ha":500,"x_min":48,"x_max":461,"o":"m 143 904 q 169 982 143 947 q 239 1036 194 1017 l 229 1069 q 97 983 146 1051 q 48 838 48 916 q 72 755 48 789 q 139 721 96 721 q 202 749 176 721 q 228 817 228 778 q 204 879 228 854 q 143 904 180 904 m 366 904 q 391 982 366 947 q 461 1036 416 1017 l 452 1069 q 319 983 368 1051 q 271 838 271 916 q 294 755 271 789 q 361 721 318 721 q 425 749 399 721 q 450 817 450 778 q 427 879 450 854 q 366 904 403 904 z "},"”":{"ha":513,"x_min":50,"x_max":464,"o":"m 146 880 q 120 802 146 836 q 50 747 94 767 l 60 714 q 192 800 143 732 q 240 946 240 868 q 216 1029 240 995 q 150 1063 193 1063 q 87 1034 113 1063 q 61 967 61 1006 q 84 905 61 930 q 146 880 108 880 m 370 880 q 344 802 370 836 q 273 747 318 767 l 283 714 q 415 800 367 732 q 464 946 464 868 q 440 1029 464 995 q 374 1063 416 1063 q 311 1034 336 1063 q 285 967 285 1006 q 308 905 285 930 q 370 880 332 880 z "},"„":{"ha":524,"x_min":47,"x_max":461,"o":"m 143 -14 q 117 -92 143 -57 q 47 -146 92 -126 l 57 -179 q 189 -93 140 -161 q 237 53 237 -25 q 214 136 237 102 q 147 170 190 170 q 84 141 110 170 q 58 74 58 113 q 82 12 58 37 q 143 -14 105 -14 m 367 -14 q 341 -92 367 -57 q 271 -146 315 -126 l 281 -179 q 413 -93 364 -161 q 461 53 461 -25 q 437 136 461 102 q 371 170 414 170 q 308 141 334 170 q 282 74 282 113 q 306 12 282 37 q 367 -14 329 -14 z "},"†":{"ha":700,"x_min":29,"x_max":671,"o":"m 315 714 q 296 863 315 732 q 269 1042 277 994 l 278 1050 l 400 1064 l 431 1039 q 404 878 424 999 q 385 714 385 757 l 315 714 m 412 686 q 526 698 435 688 q 648 713 616 708 l 657 704 l 671 621 l 646 595 q 544 604 622 597 q 412 615 467 611 l 412 686 m 288 615 q 174 603 265 614 q 52 589 83 593 l 43 597 l 29 681 l 54 707 q 156 697 78 704 q 288 686 233 690 l 288 615 m 385 587 q 404 280 385 571 q 431 -117 424 -11 l 422 -125 l 300 -139 l 269 -114 q 296 265 276 -14 q 315 587 315 545 l 385 587 z "},"‡":{"ha":700,"x_min":29,"x_max":671,"o":"m 315 714 q 296 863 315 732 q 269 1042 277 994 l 278 1050 l 400 1064 l 431 1039 q 404 878 424 999 q 385 714 385 757 l 315 714 m 412 686 q 526 698 435 688 q 648 713 616 708 l 657 704 l 671 621 l 646 595 q 544 604 622 597 q 412 615 467 611 l 412 686 m 288 615 q 174 603 265 614 q 52 589 83 593 l 43 597 l 29 681 l 54 707 q 156 697 78 704 q 288 686 233 690 l 288 615 m 385 587 l 315 587 l 315 435 l 385 435 l 385 587 m 412 408 q 502 420 435 410 q 593 435 570 431 l 602 427 l 615 343 l 590 317 q 520 327 574 319 q 412 338 467 335 l 412 408 m 288 338 q 198 326 265 336 q 107 311 131 315 l 98 319 l 85 403 l 110 429 q 179 419 125 427 q 288 408 233 412 l 288 338 m 385 310 q 404 119 385 293 q 431 -117 424 -54 l 422 -125 l 300 -139 l 269 -114 q 296 105 276 -57 q 315 310 315 267 l 385 310 z "},"•":{"ha":319,"x_min":49,"x_max":271,"o":"m 160 472 q 78 439 107 472 q 49 351 49 406 q 78 264 49 297 q 160 232 107 232 q 242 264 213 232 q 271 351 271 297 q 241 440 271 408 q 160 472 212 472 z "},"…":{"ha":837,"x_min":56,"x_max":775,"o":"m 140 175 q 78 149 100 175 q 56 82 56 123 q 78 16 56 41 q 140 -9 100 -9 q 203 15 180 -9 q 225 82 225 40 q 203 150 225 125 q 140 175 180 175 m 415 175 q 353 149 375 175 q 330 82 330 123 q 353 16 330 41 q 415 -9 375 -9 q 477 15 455 -9 q 500 82 500 40 q 478 150 500 125 q 415 175 456 175 m 690 175 q 628 149 650 175 q 606 82 606 123 q 628 16 606 41 q 690 -9 650 -9 q 753 15 730 -9 q 775 82 775 40 q 753 150 775 125 q 690 175 730 175 z "},"‰":{"ha":1563,"x_min":57,"x_max":1476,"o":"m 872 957 l 271 -68 l 200 -24 l 803 1002 l 872 957 m 473 684 q 419 511 473 579 q 265 443 364 443 q 112 511 167 443 q 57 685 57 579 q 112 857 57 789 q 265 925 167 925 q 418 857 363 925 q 473 685 473 789 l 473 684 m 161 684 q 185 565 161 614 q 265 517 210 517 q 345 565 321 517 q 370 685 370 614 q 345 803 370 754 q 265 851 321 851 q 185 803 210 851 q 161 684 161 754 m 1004 225 q 949 53 1004 121 q 796 -16 895 -16 q 643 53 698 -16 q 587 227 587 121 q 642 399 587 331 q 796 467 697 467 q 949 398 895 467 q 1004 227 1004 330 l 1004 225 m 1476 225 q 1421 53 1476 121 q 1268 -16 1367 -16 q 1115 53 1170 -16 q 1060 227 1060 121 q 1115 399 1060 331 q 1268 467 1169 467 q 1421 398 1367 467 q 1476 227 1476 330 l 1476 225 m 692 225 q 716 107 692 155 q 796 58 741 58 q 876 107 852 58 q 900 227 900 155 q 876 345 900 296 q 796 393 851 393 q 716 345 741 393 q 692 225 692 296 m 1164 225 q 1188 107 1164 155 q 1268 58 1213 58 q 1348 107 1324 58 q 1372 227 1372 155 q 1348 345 1372 296 q 1268 393 1324 393 q 1188 345 1213 393 q 1164 225 1164 296 z "},"‹":{"ha":357,"x_min":35,"x_max":298,"o":"m 298 62 l 248 28 l 35 336 l 248 644 l 298 610 l 151 336 l 298 62 z "},"›":{"ha":357,"x_min":58,"x_max":322,"o":"m 110 26 l 58 61 l 205 335 l 58 608 l 110 643 l 322 335 l 110 26 z "},"₨":{"ha":1375,"x_min":20,"x_max":1303,"o":"m 422 993 q 649 920 568 993 q 729 705 729 847 q 674 538 729 607 q 528 439 619 469 l 624 292 q 800 111 706 165 q 1028 57 893 57 q 1146 83 1103 57 q 1189 163 1189 110 q 1154 233 1189 205 q 1044 296 1120 261 q 940 351 979 326 q 873 415 901 375 q 846 514 846 456 q 905 648 846 597 q 1064 699 965 699 q 1264 675 1149 699 l 1261 476 l 1181 481 l 1181 530 q 1154 610 1181 544 q 1114 623 1133 619 q 1065 627 1095 627 q 986 602 1015 627 q 957 536 957 578 q 993 467 957 495 q 1101 406 1029 439 q 1206 350 1166 375 q 1274 285 1246 325 q 1303 189 1303 245 q 1026 -14 1303 -14 q 708 54 844 -14 q 498 249 571 122 l 400 418 l 390 418 q 268 421 345 418 l 268 232 q 272 151 268 193 q 278 85 275 109 l 403 75 l 393 -7 q 318 -3 376 -5 q 191 0 260 0 q 101 -3 153 -1 q 26 -7 49 -5 l 20 62 l 129 85 q 142 191 141 167 l 142 789 q 129 895 142 807 l 22 911 l 29 986 l 168 979 l 278 986 q 350 990 303 987 q 422 993 396 993 m 279 916 q 268 747 268 827 l 268 494 q 363 488 326 488 q 536 543 473 488 q 599 704 599 597 q 536 867 599 811 q 364 924 473 924 l 279 916 z "},"₹":{"ha":656,"x_min":14,"x_max":643,"o":"m 643 593 l 629 579 l 481 579 l 481 572 q 426 411 481 486 q 264 286 371 336 q 550 58 353 147 l 486 -47 q 267 138 370 18 q 117 389 164 258 l 193 471 l 272 433 q 378 579 363 490 l 35 579 l 14 663 l 28 676 l 366 676 q 254 815 336 753 l 35 815 l 14 899 l 28 913 l 623 913 l 643 829 l 629 815 l 357 815 q 460 676 426 754 l 623 676 l 643 593 z "},"™":{"ha":725,"x_min":4,"x_max":722,"o":"m 252 896 q 248 928 252 907 q 243 937 245 930 q 210 940 229 940 l 186 940 q 182 905 182 915 l 182 746 q 186 693 182 710 l 215 690 l 212 653 q 182 654 205 653 q 121 656 158 656 q 92 654 104 656 q 77 653 81 653 l 74 686 l 103 693 q 106 712 104 700 q 107 732 107 724 l 107 886 q 103 940 107 916 l 83 940 q 46 937 65 940 l 43 928 q 39 896 39 907 l 4 897 l 8 975 l 17 985 q 40 983 24 985 q 69 981 57 981 l 221 981 l 272 985 l 282 975 l 285 897 l 252 896 m 701 982 l 703 947 l 673 942 l 673 917 l 688 717 q 694 692 693 696 l 722 688 l 721 653 q 694 654 715 653 q 637 656 672 656 q 608 654 621 656 q 590 653 595 653 l 589 685 l 618 692 l 621 730 l 612 890 l 530 656 l 486 656 l 407 890 l 397 730 l 399 692 l 429 688 l 427 653 q 405 654 422 653 q 354 656 387 656 q 326 654 338 656 q 309 653 313 653 l 307 685 l 338 692 l 345 717 l 355 917 l 353 942 l 323 947 l 325 982 q 343 981 329 982 q 374 978 357 979 l 441 978 l 452 971 l 471 900 l 517 760 l 566 908 q 575 942 570 922 q 583 971 581 962 l 593 981 l 642 981 l 701 982 z "},"◌":{"ha":895,"x_min":43,"x_max":852,"o":"m 447 812 q 486 797 471 812 q 501 758 501 782 q 485 721 501 737 q 447 705 469 705 q 409 721 425 705 q 393 758 393 737 q 409 797 393 782 q 447 812 425 812 m 272 766 q 311 751 296 766 q 326 713 326 736 q 311 674 326 690 q 272 659 296 659 q 235 673 250 659 q 218 713 218 690 q 234 751 218 736 q 272 766 250 766 m 623 766 q 661 751 646 766 q 676 713 676 736 q 661 674 676 690 q 623 659 646 659 q 585 673 600 659 q 568 713 568 690 q 584 751 568 736 q 623 766 600 766 m 144 639 q 183 624 168 639 q 199 585 199 608 q 183 546 199 562 q 144 530 168 530 q 106 546 121 530 q 90 585 90 562 q 106 624 90 608 q 144 639 122 639 m 751 639 q 790 624 775 639 q 806 585 806 608 q 790 546 806 562 q 751 530 775 530 q 714 546 729 530 q 697 585 697 563 q 713 623 697 607 q 751 639 729 639 m 97 463 q 136 447 121 463 q 151 408 151 432 q 136 370 151 386 q 97 354 121 354 q 58 371 73 354 q 43 408 43 387 q 59 447 43 432 q 97 463 75 463 m 799 463 q 837 447 822 463 q 852 408 852 432 q 837 370 852 386 q 799 354 822 354 q 760 371 775 354 q 745 408 744 387 q 761 447 745 432 q 799 463 777 463 m 144 288 q 183 272 168 288 q 199 233 199 257 q 183 195 199 211 q 144 179 168 179 q 106 195 121 179 q 90 233 90 213 q 106 272 90 257 q 144 288 122 288 m 751 288 q 790 272 775 288 q 806 233 806 257 q 790 195 806 211 q 751 179 775 179 q 714 195 729 179 q 697 233 697 214 q 713 272 697 256 q 751 288 729 288 m 272 160 q 311 144 296 160 q 326 106 326 129 q 310 66 326 82 q 272 50 294 50 q 235 68 250 50 q 218 106 218 83 q 234 145 218 130 q 272 160 250 160 m 623 160 q 661 144 646 160 q 676 106 676 129 q 660 66 676 82 q 623 50 644 50 q 585 68 600 50 q 568 106 568 83 q 584 145 568 130 q 623 160 600 160 m 447 111 q 486 96 471 111 q 501 57 501 81 q 486 19 501 35 q 447 3 471 3 q 408 20 423 3 q 393 57 393 35 q 409 96 393 81 q 447 111 425 111 z "},"Ꞌ":{"ha":264,"x_min":61,"x_max":195,"o":"m 61 997 q 78 865 65 962 q 92 755 92 768 l 81 503 l 164 496 l 195 974 l 170 997 l 61 997 z "},"ꞌ":{"ha":250,"x_min":57,"x_max":197,"o":"m 197 0 l 171 -21 l 57 0 l 71 236 l 71 734 l 183 734 l 183 278 l 197 0 z "},"꣠":{"ha":345,"x_min":14,"x_max":332,"o":"m 165 1304 q 282 1256 233 1304 q 332 1140 332 1208 q 289 1033 332 1075 q 180 991 245 991 q 63 1040 113 991 q 14 1154 14 1088 q 57 1261 14 1218 q 165 1304 100 1304 m 200 1236 q 127 1198 157 1236 q 98 1116 98 1160 q 111 1075 98 1090 q 149 1059 123 1059 q 221 1097 191 1059 q 250 1179 250 1136 q 238 1220 250 1204 q 200 1236 225 1236 z "},"꣡":{"ha":307,"x_min":14,"x_max":293,"o":"m 121 1368 q 218 1333 182 1368 q 254 1239 254 1299 q 226 1141 254 1185 q 140 1053 197 1097 q 293 954 228 1015 l 220 888 q 124 985 164 950 q 33 1039 83 1019 l 33 1090 q 171 1258 171 1177 q 162 1292 171 1278 q 136 1307 153 1307 q 107 1270 107 1307 q 127 1221 107 1242 l 97 1189 q 39 1236 61 1210 q 14 1286 17 1263 q 53 1346 23 1324 q 121 1368 82 1368 z "},"꣢":{"ha":385,"x_min":14,"x_max":371,"o":"m 147 1368 q 275 1321 225 1368 q 325 1203 325 1274 q 294 1117 325 1162 q 216 1051 264 1072 q 281 1003 244 1023 q 371 962 318 983 l 313 884 q 219 949 257 913 q 149 1039 182 985 q 74 1062 109 1039 q 29 1116 40 1084 l 39 1152 q 97 1168 61 1168 q 134 1161 115 1168 q 155 1131 143 1150 q 250 1232 250 1152 q 230 1281 250 1264 q 175 1297 210 1297 q 71 1246 125 1297 l 14 1324 q 77 1357 40 1346 q 147 1368 114 1368 z "},"꣣":{"ha":334,"x_min":14,"x_max":321,"o":"m 149 1368 q 256 1340 216 1368 q 296 1260 296 1312 q 254 1175 296 1207 q 319 1082 319 1138 q 296 1015 319 1040 q 232 982 272 990 q 321 935 253 968 l 271 863 q 142 978 208 901 q 14 1051 36 989 l 24 1075 q 74 1090 46 1090 q 113 1084 96 1090 l 153 1043 q 208 1060 186 1047 q 229 1100 229 1074 q 187 1143 229 1128 q 123 1128 157 1134 l 89 1213 q 221 1275 221 1231 q 182 1301 221 1301 q 127 1288 155 1301 q 62 1250 98 1274 l 24 1337 q 149 1368 89 1368 z "},"꣤":{"ha":321,"x_min":14,"x_max":307,"o":"m 195 1407 q 307 1247 307 1332 q 297 1207 307 1225 q 257 1158 288 1190 l 224 1129 q 288 1026 288 1074 q 257 952 288 980 q 176 924 227 924 q 91 956 126 924 q 56 1035 56 989 q 114 1145 56 1082 l 90 1164 q 36 1219 53 1196 q 14 1270 20 1243 q 35 1327 19 1304 q 81 1368 50 1350 l 129 1300 q 104 1260 104 1279 q 116 1224 104 1240 q 158 1185 127 1207 l 178 1203 q 215 1244 205 1230 q 224 1276 224 1258 q 167 1371 224 1325 l 195 1407 m 182 1086 q 140 1014 140 1044 q 149 994 140 1003 q 168 985 157 985 q 194 998 184 985 q 204 1031 204 1011 q 182 1086 204 1063 z "},"꣥":{"ha":347,"x_min":14,"x_max":334,"o":"m 139 1332 q 111 1253 123 1303 q 98 1173 98 1203 q 111 1125 98 1141 q 144 1109 123 1109 q 189 1122 170 1109 l 179 1158 l 216 1196 q 329 1150 280 1196 q 279 1076 317 1105 q 334 905 322 993 l 237 885 l 239 924 q 218 1050 239 989 q 171 1046 195 1046 q 52 1087 90 1046 q 14 1203 14 1128 q 27 1289 14 1239 q 61 1371 40 1339 l 139 1332 z "},"꣦":{"ha":342,"x_min":14,"x_max":329,"o":"m 144 1369 q 224 1358 186 1369 l 257 1287 l 243 1272 q 153 1284 187 1284 q 115 1275 127 1284 q 102 1251 102 1265 q 112 1229 102 1240 q 140 1211 122 1218 q 240 1225 180 1222 l 275 1141 q 231 1145 245 1144 q 138 1124 171 1145 q 104 1068 104 1103 q 142 1034 104 1034 q 191 1048 164 1034 l 195 1088 l 236 1108 q 329 1035 297 1096 q 264 986 302 1004 q 328 908 283 949 l 253 865 q 199 970 214 920 l 165 968 q 51 1002 87 968 q 14 1086 14 1036 q 77 1183 14 1145 q 14 1276 14 1219 q 52 1347 14 1325 q 144 1369 90 1369 z "},"꣧":{"ha":370,"x_min":14,"x_max":357,"o":"m 143 1332 q 110 1237 122 1295 q 97 1128 97 1179 q 140 1054 97 1054 q 211 1079 179 1054 q 261 1143 243 1104 q 279 1222 279 1182 q 271 1265 279 1251 q 250 1279 262 1279 q 234 1270 241 1279 q 228 1246 228 1260 q 233 1220 228 1235 q 249 1193 239 1204 l 218 1160 q 163 1203 182 1183 q 135 1255 144 1222 q 170 1319 144 1298 q 236 1340 196 1340 q 323 1294 290 1340 q 357 1187 357 1249 q 331 1088 357 1133 q 262 1017 306 1043 q 164 990 218 990 q 52 1035 90 990 q 14 1149 14 1080 q 65 1369 14 1270 l 143 1332 z "},"꣨":{"ha":313,"x_min":14,"x_max":300,"o":"m 214 1326 q 135 1219 174 1286 q 97 1105 97 1152 q 135 1054 97 1054 q 241 1114 189 1054 l 300 1050 q 233 1006 271 1022 q 158 990 195 990 q 57 1026 101 990 q 14 1121 14 1063 q 51 1255 14 1182 q 143 1385 89 1328 l 214 1326 z "},"꣩":{"ha":329,"x_min":14,"x_max":315,"o":"m 127 1369 q 225 1332 186 1369 q 264 1246 264 1295 q 249 1192 264 1218 q 204 1132 235 1165 q 244 1101 211 1126 q 297 1046 278 1075 q 315 991 315 1018 q 296 933 315 961 q 243 885 277 905 l 195 953 q 225 1006 225 981 q 197 1057 225 1029 q 117 1126 170 1084 l 94 1143 q 33 1205 53 1177 q 14 1267 14 1234 q 46 1342 14 1316 q 127 1369 79 1369 m 139 1305 q 112 1291 121 1305 q 103 1255 103 1276 q 135 1187 103 1219 q 165 1229 156 1213 q 174 1263 174 1246 q 164 1293 174 1281 q 139 1305 155 1305 z "},"꣪":{"ha":611,"x_min":14,"x_max":597,"o":"m 168 1353 q 275 1320 235 1353 q 315 1234 315 1287 q 265 1140 315 1174 q 363 1121 328 1120 q 432 1139 400 1121 l 432 1275 l 363 1275 l 346 1328 l 353 1349 l 579 1349 l 597 1296 l 589 1275 l 513 1275 l 513 1031 l 522 897 l 501 879 l 419 892 l 432 1061 q 389 1053 410 1053 q 339 1060 366 1053 q 197 924 336 924 q 99 946 146 924 q 14 1013 52 968 l 46 1047 q 174 987 107 987 q 231 1006 208 987 q 253 1059 253 1025 q 242 1089 253 1076 q 208 1111 231 1103 q 126 1092 179 1101 l 107 1152 l 117 1179 q 240 1251 240 1196 q 201 1284 240 1284 q 94 1239 147 1284 l 66 1251 l 43 1322 q 168 1353 112 1353 z "},"꣫":{"ha":440,"x_min":14,"x_max":427,"o":"m 418 1275 l 311 1275 q 334 1219 334 1250 q 294 1143 334 1173 q 379 1036 379 1101 q 341 951 379 979 q 236 924 302 924 q 137 946 184 924 q 53 1013 90 968 l 85 1047 q 149 1002 115 1017 q 212 987 183 987 q 269 1006 247 987 q 292 1059 292 1025 q 279 1091 292 1077 q 240 1114 267 1105 q 144 1088 191 1095 l 125 1147 l 135 1175 q 229 1203 199 1183 q 260 1247 260 1223 q 240 1275 260 1265 l 33 1275 l 14 1328 l 21 1349 l 410 1349 l 427 1296 l 418 1275 z "},"꣬":{"ha":668,"x_min":14,"x_max":654,"o":"m 647 1275 l 392 1275 l 392 1194 q 475 1214 432 1214 q 571 1182 536 1214 q 607 1096 607 1150 q 583 1005 607 1050 q 514 925 558 960 l 456 971 l 456 999 q 520 1056 500 1032 q 541 1103 541 1080 q 497 1146 541 1145 q 392 1068 447 1146 l 392 1031 l 401 897 l 382 879 l 300 892 l 309 993 q 208 966 269 966 q 103 1004 144 966 q 61 1099 61 1042 q 94 1191 61 1160 q 192 1222 127 1222 q 311 1181 246 1222 l 311 1275 l 33 1275 l 14 1328 l 21 1349 l 636 1349 l 654 1296 l 647 1275 m 225 1154 q 164 1134 186 1154 q 143 1078 143 1114 q 192 1031 143 1030 q 265 1058 235 1031 q 311 1137 296 1084 q 225 1154 269 1154 z "},"꣭":{"ha":521,"x_min":14,"x_max":507,"o":"m 498 1275 l 422 1275 l 422 1031 l 432 897 l 412 879 l 329 892 l 342 1032 l 342 1076 q 200 1065 274 1074 q 170 991 186 1015 q 85 1031 115 991 q 56 1114 56 1071 l 74 1137 q 215 1146 124 1145 q 306 1143 241 1146 l 342 1141 l 342 1275 l 33 1275 l 14 1328 l 21 1349 l 490 1349 l 507 1296 l 498 1275 z "},"꣮":{"ha":490,"x_min":14,"x_max":476,"o":"m 467 1275 l 390 1275 l 390 1031 l 400 897 l 380 879 l 298 892 l 310 1017 q 224 996 270 996 q 120 1029 164 996 q 77 1121 77 1063 l 77 1275 l 32 1275 l 14 1328 l 21 1349 l 458 1349 l 476 1296 l 467 1275 m 161 1105 q 173 1070 161 1082 q 204 1059 184 1059 q 258 1078 229 1059 q 311 1133 288 1097 l 311 1275 l 161 1275 l 161 1105 z "},"꣯":{"ha":357,"x_min":14,"x_max":343,"o":"m 335 1275 l 228 1275 q 257 1186 257 1232 q 231 1100 257 1137 q 154 1039 204 1063 q 307 933 211 978 l 254 865 q 138 967 193 901 q 56 1105 82 1034 l 106 1154 l 140 1137 q 179 1207 179 1165 q 164 1275 179 1236 l 33 1275 l 14 1328 l 21 1349 l 326 1349 l 343 1296 l 335 1275 z "},"꣰":{"ha":656,"x_min":28,"x_max":493,"o":"m 90 740 q 250 632 145 632 q 386 739 351 632 l 493 701 q 407 588 468 629 q 272 546 346 546 q 127 586 191 546 q 28 701 62 626 l 90 740 m 257 837 q 283 822 267 837 q 313 786 300 808 q 326 741 326 765 q 313 716 326 732 q 279 688 300 700 q 235 676 258 676 q 208 691 225 676 q 178 727 191 705 q 165 772 165 748 q 178 798 165 781 q 212 825 191 814 q 257 837 233 837 z "},"꣱":{"ha":354,"x_min":14,"x_max":340,"o":"m 294 1275 l 167 1275 q 139 1268 149 1275 q 129 1250 129 1261 q 151 1212 129 1229 q 220 1168 172 1194 q 309 1107 278 1135 q 340 1036 340 1079 q 299 953 340 982 q 197 924 258 924 q 99 946 146 924 q 14 1013 52 968 l 46 1047 q 174 987 107 987 q 231 1003 208 987 q 253 1044 253 1018 q 235 1081 253 1065 q 178 1120 216 1097 q 83 1186 117 1154 q 50 1271 50 1218 q 78 1326 50 1304 q 153 1349 106 1349 l 283 1349 l 301 1296 l 294 1275 z "},"ꣲ":{"ha":521,"x_min":28,"x_max":833,"o":"m 357 437 q 201 378 254 415 q 149 272 149 340 q 204 150 149 191 q 353 109 260 109 q 544 150 461 109 q 672 264 627 191 q 717 432 717 338 q 690 525 717 488 q 618 562 663 562 q 566 536 583 562 q 549 471 549 510 q 562 410 549 443 q 596 359 575 378 l 554 317 q 477 402 508 351 q 433 501 446 453 q 483 605 440 566 q 590 644 525 644 q 767 579 700 644 q 833 407 833 514 q 715 126 833 228 q 380 25 596 25 q 125 97 222 25 q 28 297 28 170 q 98 457 28 383 q 335 553 168 530 l 371 465 l 357 437 z "},"ꣳ":{"ha":0,"x_min":28,"x_max":493,"o":"m 56 403 q 125 412 89 412 q 223 390 178 412 q 307 331 268 367 q 408 227 346 294 l 440 191 l 387 154 q 295 242 325 215 q 229 290 265 269 q 158 311 193 311 q 96 301 127 311 l 47 386 l 56 403 m 90 740 q 250 632 145 632 q 386 739 351 632 l 493 701 q 407 588 468 629 q 272 546 346 546 q 127 586 191 546 q 28 701 62 626 l 90 740 m 257 837 q 283 822 267 837 q 313 786 300 808 q 326 741 326 765 q 313 716 326 732 q 279 688 300 700 q 235 676 258 676 q 208 691 225 676 q 178 727 191 705 q 165 772 165 748 q 178 798 165 781 q 212 825 191 814 q 257 837 233 837 z "},"ꣴ":{"ha":521,"x_min":28,"x_max":657,"o":"m 216 1531 q 589 1389 369 1531 l 570 1369 l 555 1372 q 398 1437 485 1411 q 252 1463 311 1463 q 182 1444 207 1463 q 158 1396 158 1426 q 172 1349 158 1372 l 640 1349 l 657 1296 l 648 1275 l 572 1275 l 572 1031 l 582 897 l 562 879 l 479 892 l 488 982 q 408 966 450 966 q 297 1004 342 966 q 252 1099 252 1042 q 287 1190 252 1158 q 390 1222 322 1222 q 492 1193 440 1222 l 492 1275 l 196 1275 l 196 1031 l 205 897 l 186 879 l 104 892 l 115 1032 l 115 1275 l 47 1275 l 28 1328 l 35 1349 l 125 1349 q 98 1436 98 1395 q 129 1505 98 1479 q 216 1531 160 1531 m 425 1154 q 357 1136 382 1154 q 332 1084 332 1118 q 349 1044 332 1058 q 392 1031 366 1031 q 492 1093 450 1031 l 492 1141 q 425 1154 450 1154 z "},"ꣵ":{"ha":526,"x_min":33,"x_max":514,"o":"m 262 838 q 289 823 272 838 q 319 787 306 808 q 332 742 332 765 q 319 716 332 732 q 285 688 306 700 q 240 676 264 676 q 214 691 231 676 q 184 727 197 705 q 171 772 171 749 q 184 798 171 782 q 218 826 197 814 q 262 838 239 838 m 96 741 q 256 632 151 632 q 392 739 357 632 l 498 701 q 412 588 473 629 q 278 546 351 546 q 133 586 197 546 q 33 701 68 627 l 96 741 m 227 510 q 347 481 293 510 q 432 403 401 453 q 463 290 463 353 q 417 157 463 216 q 306 72 371 97 q 397 -4 349 26 q 514 -62 446 -35 l 447 -160 q 224 56 309 -86 q 119 84 170 56 q 53 151 68 113 l 66 196 q 146 216 98 217 q 200 207 174 216 q 231 165 220 182 q 334 226 297 181 q 371 321 371 271 q 342 395 371 366 q 261 424 314 424 q 178 403 218 424 q 106 351 138 382 l 36 446 q 123 492 72 475 q 227 510 174 510 z "},"ꣶ":{"ha":517,"x_min":25,"x_max":490,"o":"m 254 838 q 280 823 264 838 q 310 787 297 808 q 323 742 323 765 q 310 716 323 732 q 276 688 297 700 q 232 676 256 676 q 206 691 222 676 q 176 727 189 705 q 163 772 163 749 q 176 798 163 782 q 210 826 189 814 q 254 838 231 838 m 87 741 q 248 632 143 632 q 383 739 349 632 l 490 701 q 404 588 465 629 q 269 546 343 546 q 124 586 189 546 q 25 701 60 627 l 87 741 m 225 510 q 365 472 311 510 q 418 367 418 433 q 402 298 418 328 q 354 245 387 268 q 425 189 399 222 q 450 114 450 155 q 417 24 450 60 q 330 -24 385 -11 q 464 -96 394 -64 l 403 -187 q 224 -31 313 -126 q 46 62 85 -20 l 58 98 q 129 118 89 118 q 178 110 155 118 q 239 50 200 86 q 317 81 289 57 q 345 134 345 104 q 327 176 345 156 q 273 208 309 196 q 182 183 235 196 l 142 286 q 278 327 235 303 q 322 385 322 350 q 262 428 322 427 q 110 366 204 428 l 62 468 q 225 510 146 509 z "},"ꣷ":{"ha":528,"x_min":28,"x_max":493,"o":"m 257 838 q 283 823 267 838 q 313 787 300 808 q 326 742 326 765 q 313 716 326 732 q 279 688 300 700 q 235 676 258 676 q 209 691 225 676 q 179 727 192 705 q 165 772 165 749 q 179 798 165 782 q 213 826 192 814 q 257 838 233 838 m 90 741 q 250 632 146 632 q 386 739 352 632 l 493 701 q 407 588 468 629 q 272 546 346 546 q 127 586 191 546 q 28 701 62 627 l 90 741 m 400 419 l 243 419 q 196 407 212 419 q 179 375 179 395 q 205 327 179 347 q 293 269 232 306 q 420 185 375 224 q 465 86 465 146 q 414 -25 465 14 q 278 -65 363 -65 q 145 -32 212 -65 q 31 61 79 1 l 72 104 q 164 36 117 58 q 254 14 212 14 q 332 39 303 14 q 361 110 361 64 q 335 166 361 142 q 258 218 309 191 q 193 254 248 225 q 109 320 138 283 q 79 400 79 357 q 117 477 79 446 q 220 509 154 509 l 389 509 l 410 440 l 400 419 z "},"꣸":{"ha":919,"x_min":62,"x_max":637,"o":"m 624 734 l 83 734 l 62 818 l 77 832 l 616 832 l 637 749 l 624 734 z "},"꣹":{"ha":894,"x_min":40,"x_max":848,"o":"m 606 644 q 782 579 715 644 q 848 407 848 514 q 730 126 848 228 q 396 25 611 25 q 140 97 238 25 q 43 297 43 170 q 65 392 43 345 q 138 476 87 439 q 65 550 90 507 q 40 640 40 593 q 95 771 40 721 q 245 832 150 821 l 277 729 q 188 683 218 712 q 158 614 158 654 q 205 515 158 554 q 350 553 264 541 l 386 465 l 372 437 q 217 378 269 415 q 164 272 164 340 q 220 150 164 191 q 368 109 275 109 q 559 150 477 109 q 687 264 642 191 q 732 432 732 338 q 705 525 732 488 q 633 562 677 562 q 581 536 599 562 q 564 471 564 510 q 577 410 564 443 q 611 359 590 378 l 570 317 q 492 402 524 351 q 449 501 461 453 q 498 605 456 566 q 606 644 541 644 z "},"꣺":{"ha":643,"x_min":28,"x_max":1018,"o":"m 762 660 q 863 592 826 640 q 900 476 900 545 q 865 341 900 399 q 761 245 829 282 l 761 -94 l 772 -296 l 750 -318 l 642 -298 l 648 -199 q 489 -235 573 -235 q 362 -209 420 -235 q 270 -139 304 -183 q 236 -40 236 -94 q 296 95 236 49 q 472 140 355 140 q 654 90 559 140 l 654 207 q 490 191 583 190 q 322 217 396 191 q 206 291 248 243 q 164 404 164 339 q 250 550 164 497 q 185 604 208 572 q 163 673 163 636 q 180 736 163 708 l 49 736 l 28 817 l 40 832 l 997 832 l 1018 751 l 1006 736 l 762 736 l 762 660 m 325 736 q 275 659 275 704 q 318 581 275 614 q 446 606 370 597 l 481 524 l 467 497 q 328 455 376 484 q 279 379 279 427 q 330 295 279 323 q 463 267 380 267 q 699 331 611 267 q 787 507 787 396 q 765 573 787 549 q 703 597 742 597 q 657 579 672 597 q 642 532 642 561 q 653 491 642 513 q 684 454 664 469 l 643 415 q 571 480 600 440 q 530 564 542 521 q 571 637 537 608 q 657 672 604 667 l 657 736 l 325 736 m 468 -153 q 654 -46 581 -153 l 654 22 q 513 57 575 57 q 394 24 439 57 q 350 -64 350 -8 q 382 -129 350 -105 q 468 -153 414 -153 z "},"ꣻ":{"ha":519,"x_min":-28,"x_max":559,"o":"m -28 1112 l 58 1165 l 267 909 l 475 1165 l 559 1112 l 330 832 l 201 831 l -28 1112 z "}," ":{"ha":297,"x_min":0,"x_max":0,"o":""}}}
